<mxfile type="github" version="12.7.9" host="www.draw.io" modified="2020-02-28T06:54:09.924Z" agent="Mozilla/5.0 (Windows NT 10.0; Win64; x64) AppleWebKit/537.36 (KHTML, like Gecko) Chrome/70.0.3538.102 Safari/537.36 Edge/18.18362" etag="MKPsYD1kn_wUtnbM90Wk">
  <diagram id="TqmnWz8q68xXUQukbPVL" name="Page-1">
    <mxGraphModel page="1" grid="1" dx="816" dy="456" gridSize="10" guides="1" tooltips="1" connect="1" arrows="1" fold="1" pageScale="1" pageWidth="827" pageHeight="1169" math="0" shadow="0">
      <root>
        <mxCell id="0" />
        <mxCell id="1" parent="0" />
        <mxCell id="_H1u6RRBhLndzVg0ieA8-13" value="&lt;div align=&quot;left&quot;&gt;tree&lt;/div&gt;&lt;div align=&quot;left&quot;&gt;&lt;br&gt;&lt;/div&gt;&lt;div align=&quot;left&quot;&gt;&lt;br&gt;&lt;/div&gt;&lt;div align=&quot;left&quot;&gt;&lt;br&gt;&lt;/div&gt;&lt;div align=&quot;left&quot;&gt;&lt;br&gt;&lt;/div&gt;&lt;div align=&quot;left&quot;&gt;&lt;br&gt;&lt;/div&gt;&lt;div align=&quot;left&quot;&gt;&lt;br&gt;&lt;/div&gt;" parent="1" style="rounded=1;whiteSpace=wrap;html=1;align=left;" vertex="1">
          <mxGeometry as="geometry" x="600" y="190" width="160" height="160" />
        </mxCell>
        <mxCell id="_H1u6RRBhLndzVg0ieA8-2" value="" parent="1" style="shape=image;verticalLabelPosition=bottom;labelBackgroundColor=#ffffff;verticalAlign=top;aspect=fixed;imageAspect=0;image=data:image/png,iVBORw0KGgoAAAANSUhEUgAAAfIAAAGXCAYAAABIqNI5AAAAAXNSR0IArs4c6QAAAARnQU1BAACxjwv8YQUAAAAJcEhZcwAADsMAAA7DAcdvqGQAAP+lSURBVHhe7J0L3FZT2v9/m6KUaioKGYVMmQhFGXk1DjmFyFleGYcRoZERip7IIa9MiBoy8pdTihAhh4yMoghRIyqEHGoqUaO0/9d37fuq1e0pHcQT+/f5rHvve++113lfv+tap52kBuXIkSNHjhw51ktsUDjmyJEjR44cOdZD5ESeI0eOHDlyrMfIiTxHjhw5cuRYj5ETeY4cOXLkyLEeIyfyHDly5MiRYz1GTuQ5cuTIkSPHeoycyHPkyJEjR451iH/+85867LDDtOWWWypJEg0bNqxwZ8UYNWqUdtttN2288cbafvvtNXDgwMKd7yMn8hw5cuTIkWMd4uuvv1bjxo11yy23FK6sHNOmTdOhhx6qP/7xj5owYYI6deqk008/XU899VTBx/LIN4TJkSNHjhw5fiJgkT/88MNq06ZN4cr30aVLFz3++OOaOHFi4Yp0/PHHa86cOXryyScLV5Yht8hz5MiRI0eOMoSXX35Z+++/f+FfhgMPPDBcLw2/CIt8yZIl+uSTT7TpppsGbSdHjhw5cqxfgIq++uqrMI68wQbrzsZcuHChvv3228K/NQfpLeYbxrNxK8OqWOQ77LCDTj31VF1yySWFK9ITTzwRutu/+eYbVaxYsXC1AIh8fcdHH32EMpK73OUud7lbzx3yfF1hwYIFaeVS4lwTV7ly5e9d6969eyGmFQN/RuSFf6Wjfv366dVXX134l+Hxxx8PzxqRF64swy/CIp87d66qVatmZ38xt3JtKEeOHDlylEX819zfwjhw1apVs0s/MubNmxfCXlumyFIqmdKhKlWqhGvgx7LI/+d//ifMWO/Tp0/hinTnnXeGSW/wXTF+EUTulSNdbC4n8hw5cuRY/wA9XhuIKibHHxPOFd3svEJ2aY2w0FxPc2uS1lWd7EZX+ltvvVW4Ip144omaPXt2PtktR44cOXLkKP8juNXB/PnzwzIyHGB5Gecffvhh+M9Y+P/+7/+Gc3DWWWdp6tSpuuiiizR58mTdeuutGjx4sP7yF/oSvo+VEvkPLWLHmL/88su1xRZbhMF3ZtlNmTKlcDcDGsRJJ50UtBa6v0877bSQqRhvvvmm9t57b1WoUEFbb721rrvuusKdHDly5MiR48dFuR/BrQ7GjRunXXfdNThwwQUXhHP4E3z66adLSR3Uq1cvLD8bOXJkWH/eu3dvDRgwIMxcLw0rJfIfWsQO4d50003q37+/xo4dq0qVKoWImBXogMTffvvtkKDhw4cH5eDMM88s3M26Olq1aqVtttlG48eP1//93/+ppKREt912W8FHjhw5cuTIsf6iZcuWwfAtdr5bG0d2covBM6+//rr++9//6v3331f79u0Ld76PVR4jL+7X5zEs9c6dO+vCCy8M1xgvqFWrVkgUi9cnTZqkHXfcUa+++qqaNm0a/NC/f8ghh2jGjBnh+X79+qlr166aOXOmNtpoo+Dn4osvDtY/XQqrgnyMPEeOHDnWd/x0Y+S97LxoAddqYYG5LubWZVpXB2s8Rk4fP+QbL1qngJo1a7Z00TpHutOdxAH+WSOIBQ/wwww9J3GAVf/vf/9b//nPfwpXlgcaChUSuxw5cuTIkWNVUFpX+eq6soQ1JnJIHGCBx+C/3+O4+eabh3NHuXLlVL169eX8lBYGcD/FuOaaa4LS4I5x9Rw5cvwQsByOMneSubpcyJEjxy8A6+WsdWb40aXhjrV8OXLkWBHoNetqjhmvFaXm9e24k9SoxI7Vza3JPNwcOdZfxLPP19SVJawxkdeuXTscP/vss3B08N/vcfz888/DuWPx4sVhJnvsp7QwgPspBgvuGZeIXY4cOUpDLalmCzvOMPeKufo6+OWHjMSbqOFbr4X/GRaZW533CFGGEpAjx/qH0rrKV9eVJawxkTM9HqJ99tlnC1eyiQSMfe+5557hP0d26WE2uuO5554Le6Mzlg7ww0z2RYsQJBmY4f673/1Ov/nNbwpXcuTIsWbYVPpypNSpnnShvXOdpBGbHqWq42Zq0l9309D0ZvPD8BdTf5hrspu5GFuZ6yA9Y9Z7CRY8/nC8r0z5yZEjx8+NlRL5yhaxM4ud7eJ69uypRx99NOxAw4J2ZqL7zPaGDRvqoIMO0hlnnKFXXnlFL730kjp27BhmtOMPsFsNE91YX84ytQceeEA33nhjWGeXI0eO1UXc6WeEW7edHQ+QhtuBHvY+o7mhue1rS/dLbXs/YQR/hl2BlHkWK93R0BwKtxE8HF7T3P3M1cXvToVjWetkzJHjh4FFTctdU7deWeQ/tIidXWfOPffcsC589913D8TP8jI2dnHcc889atCggfbbb7+w7KxFixbLrRFnstrTTz8dlIQmTZqE5WyEH681z5Ejx6oCa9lhRDv9s2xeG3s5HYQVXV3qawf4nW2cmU8alqcinrxXDCsch4U+mwvSaFMAOlpY7EsZsGzryBw51jfEXeRr6soS8r3Wc+T4xcFJmeNB5hZraNpDbQ8z6xvLvI10wsP/0H09/iRNkI54+D49krBEdLA5JsU9ag5LnLkqhLOzOXZsRElgzssIc4ynY5E7+efIsbb46daR/8PON8kurRG+MWdvz/q/jjxHjhxlDT75zO0FI9njm0gNmqntb4zEJ9oluteHjdZ9SVW17T4oWOSP/PUEqUJ9aaCROFb6WYerbcq4OgT+lTkUgsfM3WUOEqdbnXH1Tc3lyLH+gRa9tq4sISfyHDl+McBCxmpeHP4FcXN/P10y6XJpjP1tae6ZafZDt/hbGpocrs4v98zGvjHI24/KPgllZD80OTjrgg9WuU9yo7udPR7eMwcK3e45cqxnKCblNXFlCTmR58jxiwFEjgNYzXR7z9Y1va8IRH7mnTeaxV3PLPQOdp0u9AXqvVO3jKf5jlEfY/qz3pSOZrTNLPDF9vyY46TWeKD7kG51yJtJcB+bW1dAaciXtuVYdyge714TV5aQE3mOHL84QISsHcduMDK+8Ca1OuURM8ifV9o0CRPf0jEbac/07WBcbzD967AsTdeaC13ofH1wL3M3S837ZePqS5el7WOO8F1hWBcg7Nzaz5FjVZETeY4cvziwBev07DRgtp5O3teJydVKapq13aBESfPuejn5p7RwlpY0qiS1f0eaeZX5haR5/h5zkLlZ73S9hwlv3Hup4NY1ylrnZY5fErCo427y1XW5RZ4jR451ihPSx+33GXPxjHKWkg2WruecbvWtND61/yU1lL5hVnoQTztJx7N/A0rA9uaY0PaZ9CUz1pnkFnfdr2vEac+R48dF3EW+pq4sISfyHDl+Ybgv+cJ+V0CEAxjv5hvIp6tJcps0SEq2esP+P2RukjTEDq3plgcsR4PAObJRzI9FrigNPxWIi6V0p5tjtl+OHL885OvIc+TIsQJAgpD3uh4TX5dgeMB7EkxR0WHmmAeQo+zhp1tH/pSdV8ourRG+NneguXwdeY4cOdYxVtXyjf1B2jgncY7rK4kDPhRT6E1oQG9ETuI5Su8qX11XlpATeY4cv1isyYYtTtpxN/qqKgRlGOXaSZN7Ff7kyPHLQk7kOXL8YrGqS7iKx75jCxzbo/h+WUSsbMTnpL2itHhU9jdHDgOtmlaypi63yHPkyLEewXeJK+uIlY3SFBOInCNiOMevHd49vjauLCEn8hw5cqwE64M1viKURtrrc35y5CgdOZHnyJEjwvpqsXqnZ4yYtEu7n+PXCm8Na+PKEnIiz5FjnYFlKWXtlf8hQH5xmvlc2o8Fwj3Y3FHh349bNqtiaa/MD2lhtn6OXwNK6ypfXVeWkBN5jhzrDOym1iA7DQRWNzsNWF8I/oXC8ccAZbGpFcPOUiOWgm0lNeVo7mhzZ3EO4rLx81Upr2IlJMYPET331+dldjlWBxAxLWVNXVkj8nxDmBw51hl45d3KgyRWxWosSyD9q5HmNkbEw0aalDtAWvyNXSDPbBXLlq9MmnOi5cgua7jPpGq1pDnsIGfKTjU7zBltP6z/RhGKsSrpWc00fw98ppVPt+b46fHTbQjzpp2vzdf0+Uo/Xx8oKxvC5ESeI0eOUrAmhIhAc/Itfn51wzP/lbtK81n7TbiuCPnMcxQkvsQWb/DiJLwmaQf+sZgcPw9+OiJnj7+1JXI+5pvv7JYjR471AHwXnH3KTzFXmsCCNB3xGLMTaXzfwRBDaddj2PPz6Wq3MGecakcj2YO62JG0ABQGJ3EPC5KHzIl7ZcKVD8KUBkj8h9KV45eAeKx7TV1ZQk7kOXLkKMBJDBLcSnoSIoUYB5i7y9yKuro58mESiBTw354Pz4KdCkeu4+hqd1HI/5VhtlSHD6X3s/SYdV63jp0fJjUnbRdIFTjylTbCIX7SiEJRnNYY7xWOpWFNLPkcOX5e5ESeI0eOAuhsNBJsdIHSfc0KPohubTohSyNbrkHGkCbkx37mTuTgc3O+s9xb5py4sfB5hjFzjqtj21j40yFuQ/hGusW5cJquTP9t51jZfCAFq729OU/zDykKYFX85PglodyGVuvW9NbU8XxZQk7k3wMvNV1/zDLOX/AcvxZ4d/dJevGtJkqe627nTsyxlQr54oDfj7uxCQf/Ju0CsTp8hzjI3Se+8TzOw1tVPCQNL3S762NdlrS2IwrCbmGyXPkv7fr0i6Rr8bMqFvaq+MnxS0I5yHgtXVnCr5DIY6HjpM34nwmBIAx4qen6w8LYw1yOHL8UxIqpnzuJTjcCPEkaVUd7J8cWrsXAf0zgSDKucU43tpPhx4Uj19kW1SWe3/f/cVrwy//42qqAme7Mip9ljvfVCL6yxVRzkr3WFve10r3pBLvuWN3wc+RYP/ArJHLI2oFwQYggfOiaq2+OsT5e+LPM0a2YI8f6Diew2PLknOuQM23ermxvSm5LutN5JwD3YsWX6066HAmD+7xTXOO/h+txuiXu9/054IqBY1XNnOLnPpBq0qVu7/GMm+zIe2t+5jyqE5OH7dw3tfF4HXHeiuHpB/F5jl8CytO1vpauLOFXSOTFk2B4uVmzygvP2lfGCZk8c525Vf16VI4cPzdisnHiWhEBuTJrx4nn2XGsWbIl0i5cY5Ia4FlI2End4b1WKL744Zz3BHLFlVf6YbfCdfdbWjog7eKw8efOu/pxrDcHnIPi5+yd/tK72kkLPWpG5p0Ol1onds77zYS7YuJe0YQ44iHdDs+Dx59jfUdpXeWr68oSfoVEHr+MnDOzFqHEshYEF111TNQpFhY5cpRlxMQDCcaI7wHIztr9Lh2kRljgp+j9r7aQ+nLP2z2SCucE7WG4cmtW8FKCA5Bi9mzyW8bXuc5/Xw6GIxwH9+J3kbi45vFwnikCQ/RHvZIOtfP4+dJAGpyszTrvc7s0/B07p3dtsrkVEbfD0+NpiBGXQY4cZQu/UovchRPj4p9JHU1zF7tJeVd6/sL++pB1L69fOMyck095VV98hh0hMpZogbgdu7+K6pZ+q3Tw2er1+rlaMotNlKpou+RT6Xjuo8Ti17vEeV/83C157vP+cIwJmbg9To7cY4MWJ1f+x4jNGo8DmGLdt4NmpFj2mVryova23x8iYoAfTw9DZoNVYc5CqVpXO2cLD+bDFCs6jpW9965Y5PglIHSPW/NbY5d3rf/c4IXEAgdMkDELo+9VdmSJTI5fH1zojy0c1yewD/oy4pxdbqAdITLPC2QL+ZBH/JXobV2snkljJcf2VJekl16rIaWjakozjOwmFpZ2QbCDID4nXsIB7GdVTMqE62ngmvs19PfwYnL1I/B15jF4foFOOOcfqjOeSWxV1NRS3TlZti79tvR9+10RGYPlCXlhNbPM5wySWh8ntaxnV0gnSpDnZVUImjC9NyLHeg+IeG1dGcKvkMgNldvaDy+zv/DLv/g5fi1wUonIZ73CblInyJJ88EUx2jHnRsQBtHHIZ5FuVA/1VqIpaSv7T88Tfq8zkrSrLXubEW9uKbHac+1QbgHhQcSUEc9wzhF3pDmAH8jQ0tOeSWeF8gwfQemQnQf/8ZFnSB/wMXC/V9Hs+M1Vv8kbSjt3tv9043v8W+nMZDs7Mg6eoWFKj9pO0kHEV9qMe+J5L1uyNspInbQ+08SOWOj0ynk6HKStNHCdtLKVa471Grwia+vKEH6dRD4//yhCDoQy5MAbWSzI1xeMVfoOk7kguIfClWyyJpO7HNX1vJH4+dun6qyeapPsWbhO3ikDniX/lAOTPJkUxvpvl1Qx8RYf2SKVI35RGMZKAyHTuDz76cz0N4XzGITLewiRTin897Cn67nkXW2pT5VszacgfLMZ0vy51NGVlwyTxloY+5tyPlNKP/594eqK8HFmme9PGDPMscubb/v6A9iFXgp689jK1ZWPHDl+fvyKP5qC9ZETeg4nBCes9QeD0/E6NsGyjNsyRIMFe5jSXRoH3ks+YfJZMSDFeFwaoATQfR6Td1wu/r/4Ot3eELkTOGEXKUe1jThnOgFD/MRNGHRxP2nOgTKBdf+W8ay9zwMrZPPUBg2yH0gf5cHDxh9xMRaeIf2sh5JacX6JjzCX+cnKi54FQ+suZqmzZI30bGOOOQKAOHBxPiF8tqsF5AWX48fDT/fRlLl1pCprYcbOWyJVNT0w/2jKz46cxH+9QLg7ENSxsF4fYCT9Vg8j8UMK/2nL5AlXXxplluO1O6vXBEi8Jx6KgL+YxL0MIHEHfrjmZeX/gR/9HiRZRNzFmDlQagDx8ayTOEoHxMy5O+5l81W22Wq6NF+acPcOGpXebFfY52FZPLemWOpxmi2/y5E4IMyYxAHlZQTeBhJn1j6KCAqB78HOcACbQfEs1z2f9HqQBxSBB8z59RgoF+dmpznKLtAl19aVIfyKiXxtwAtc2kucY/0AbyH1h5Be/1A7/Y2SnW6zs1gZhXSAkV/LsVrQMdHFbG229Lojzjfl4FZt8bivP+cSKw7H15r7teJ3AbL1CaUOS9dkSBPwHM9AwvF6cbAsTx8kzyv9Y6JdktPUMjnOrrC3g+NYnZ0M1AlpNXVIq+jmlG7y1alPS8sw9o2wvPRpK10IeZNuLHXImmWopMmVDsImvdyjFwHlIC6TGCgd5Cu32HP8NMiJfI2xopeYF351BEqOnxbUjQtnBPX6V1czky/s17uAY5AnsyqHNFP3SpBIsZUcTWZb2n7ZPIb/g81xbUXt2omWY2zhevlx5J77w7r1c8fO5riGX7q7Ie0CIdZk/LmY+Kqbhc3IH8/EeUGRIP8lulHnq99fLtCByR1Kt7xY6Tk97DrfSVgVEPcBUqeBWY95+KIa3aSxouLl4W0G4LnQNf89+Mx2JuO54pKjzAHmK20m+qq6MsacOZGvEmIBBVYk7AAvPC5H2UQskBHGEMT6RubZTPTlUWifPY0Qjx6k65LiqS/chzhZR81YMHlmhjkTt0DcV5iFld4NKTo8Pj/6O+FtPVYOCmn5XhpZFsc1/ELE+Fuk9CGLJ0T/qMaJOP35KprYmBnqPlPewbPs427qwF/MSu4v/T29UqM+sQvPcpU92H8IloY29VVhDnEZoc8Zmc19q22W+QTW48egrIrz4vC0xqA3gnJe39rVrwi0t7V1ZQg5ka8S6H7kRV7VF3NFL32OsgfqdH1RvCAN2iJjw8UEYm2uUYnu6HqinbvlXRrJYE1iLcddvx6u+8+kVHKyfwGN6+5ieDvHv9/za8V+i//zDH7318CjjH8//YOdf6ym15oCUoJ13kwbzPwf/f7zqUr7QO6eJ9Lpx4pKn0yU7puo957d9EdNVTK5eIy8ON4Iw3ppYX8LpwLxTcr2aW9jp2EfGrfKV/L8UsR+OGey4UvmKLscOdY9ciJfJfi43aq8mDmJl21QPy54IXHqdF2p106OHl8s8NcU3gbjNFu4+5do+lub67Skuf2HRIjLCba0eH1il1ub8ZgvcbjSyrNcL27XHj/XY/+gNP/+39Pj+XhN7V+V/pO8rPTxs5XuasQ8PdEbOkTfXVxZjxp/D+wkpfXONqJlTTnj1MRVS8PS54y4eyt5wsh7DErJXeaKUZwOFAIn6SrSl3ZYiMVPuLPNur9JBz/2kEalKDzE4/ksrQwdxXFUVPXFf7Rj3jNXZkG1rq0rQ8iJPMevGJBJTCo/FhhnhTC8C9wFPcd4qcrKyKE0xIQRp3l7yciubn26nH2MFkkDYcVxO1Aw/L+XgYNzCAwScuvXwTP+jfFikioeMyYMwip2hOFx4+crJbvfqLZ9pG+OtVAOl5J2qRrr1rCSlNwcP9+uTRsn1bnf/pXTvukOSpsdr4+0tf0vre6IBxB+DOqEckFpYSmZ5WW4dFH6NzsnTTw3WyOeOkot/8owAP8JH+dpLg0eH8BfQ80u960dy5i0z7EMpY17r64rQ8iJfJURv6yloVho5Fg/wKSrH7vuIDV6cYrbDCTuhMea6NUF6SwmLuJoqPTKxIxsrFL+4yBadjxzxSHewMTJHkBu3nMAICInLldEgIeLtQ/i6zH4T5yeTvfH0c8d+CmQeafu+np+ZW3ErqwVuDdbH/TfTKfqeVWsbKQeZpGDrfRc8raOGzNQHcfeYXzcVZpcoknpQM1feKXdp2vd4yF88keamGkOIHHSx+Q+I+vJN+i6PXmGazxnfg8aqsolTCiEiHmeuvJ8xeCa5ytuQygBlB0TCfGTI8e6RU7kq4xiIRSj2HLJsf7ACK8uk75WB7FwXhVB7UI+tlpZK72yNlUMPuoCOX8/vonpkdkHvgKIi41dOLIVq8fpFiY7t3HPHYSD0uFpwU9RHC1RECA1/JSW3/gafoiz+BoohD2dMekYWbibJxerwslSOiHRiHSk3g2z85nURhrpXeDIzPeKGpzMVTIxVbploicaJLpKXVXp5CVSZXa6i0HeSDv70vO85aXnBVJHc4HULa1MFxjOf0Ba3tL81ptJo8/LJr+FOQmerxixxY3SEOeZ9fHE50pAjjIFqm5tXRlCTuSrjJW9jIyvlS5kc5RVeF3tVfjq16qAZ3BOTCA+LwZECbwb2v97GMUW3orQQenjbP7CM+4ci/RfbazkVJ/kBaHgIB1fC+3+sRAZGyc97i8Oi/TF/wsYxb7rTlR+3/NSDPxAuqVJO5411xQ/DidHFAy7d4X0TkfTHb5+QQeck93JniPdxEmeCu/b6dOUvJLq0/QEDUo+VvKglcF8lI5ieHkQTi+lpyZKq5g7kkl0poTTYx82l4vSVc187nWuVNPOJ8RhxmkvfucJ38F1U74asRQOxSpHmQJd4zEpr67Lu9bXV/CSrkjwco/ajV/kHGUX1JPX1RSVv7DY0loRvJ5jxIK8GBZuIycBSAhCAR7GqsXLEqmk7Yp2Ut5LTZIXC+ekhTRypK16m+Q/cXv3tOe9GAu0wcy/2tGfcfj/+PoC8TnU58MU7zg8zhmrh+SKia5A/l/GxMhGNPh5S2mPHjq60d36/bBUFYyTk1vY0Mbh5Uf4nO+lXukNYcTgtGQH+0+vWGnWL34L8QZcoGSrVMnVS5Q8zDg2Qw6PSn2pC5aNYZ7vpF4Pn6suyeFhKH1SY645ivMa/49h6aljdTCRcxSPHGUK8Vj3mroyhJzIVwu87C4oYoHBebEAyVF2gWB3pew9LaoZC/qVgTp2MnYgyIvr3sOuVfg0KH4gNSxV4ioOozQQJv5LVLPqLGmhkx/XGbeFXCrqjvROO/pacM8H7ZQ4cFzD+fAP11bUVstrSe3/00Wpf4jF4f45+vXy6rn11ZqdmsUZtl7lnsePBYo/d/48ccfKMP7pgmY71M2V/CfV0D3bBWv4wOuH2TW+Tra/5i6+2o4+p4ByJH97qEuPm6WLvVws7L7MCbD4ysWKgpeDg+EGehjYfY2d4iz+0w9XhzBLfbbUur2eTvuoyxaEzWYxY/V3/dnuxWUWnxeDOgOfSTNYmM4e8V5mOXKsG/yKP5qSY3kggBgzhCCWfSLylw2IBCFPl3Ph2/RLEZFWBSOGQKQuwFcmmN0Sxq8vW/SwojADPDzg140Yt28m7WKnQ2634xnSHDufHpMTgJi30pLqR2uD2XSrx2E7oTqBFccf+yW9xT0D8X3Ogf9n1rpPeGO72P/VzOT/2VlxOLQnLHN/ztuXh0cZxQRbUZ+nPdVLXezsm/DN9KwdWl6Gn2cE6+XvdQY8bIBy4+UN6VOfMTxPPM95HIblqaaRNsb5l1Ln53uq9/huWW8+cw/m8FEV2gbPokjwDEoGSsGKwFCBK298ja64jHN8Hz/hR1OsyqsUd66tBuZZ1Va11yD/aMovDi6g1le4kC3rJO4k9WPAhTldzjGJg4gkFk4rnMTEAYpfYNKGH8JyUgH+XPHz/HeXkdStaT/tM+VJaZz9JZwJvaSOnHv7Ig6Lt6mR24VtlYSdzPgWebFUgkRWBg8Pgiluu6THy7k4XCbpnV7ogm9YIHHgROVhUbaeX5SOOtlpAGFCvF5+PNNS49VE1//9Ml154TX2n/bITPOvjMSxai/Slel/7Eg8p0gD4wlzPO/lTfd4aW2YtBAf6SIM0lDI29FG4l8uUqsHHwmfQu39RyPxpqY4HG9uDta7d43HeYLEyVdx2TkoJ5Ri0wYq+ES6HGUGXv1r48oQciL/0fBjEszPBRdSZRlOvj8lfKMRhLaXEeekxeudI+S5uukjHJ4l3AV6Uf+jF5KDjIv6Fe5ZeBfGe3ZDHkZE48xav36KknPpUOOrXMSNf09XnE7OIbG4fjl3/8Vtl/+EwTOES5w4/lvcu9QJXfCZyerwMDxcB+coNnxzXKqftrZfwi7MGA8WK8+M0MHJKCVn9VbS+8bC9YJVPbCd/fxNlyWb2bGlvtxwa31+yqZS5ayXIj09bMVWAOH6Urs4HaQ9nnQW1dUQwpmipz84JBC5RjFTvnhmPYjDA4XnA7jHtqwOenkKE/gW3hCu5MixrpAT+Y8GhNIvCQg+XI5liInQ4cKcY2n3fwhOmqCK7ksYIjKSDuRHm6IOuO8mAETFBDH2A7d7oyF8wP2K2iZta0esXYgF52mKydqvceR63HYhbAfX8UNaPD1GsBOwUoGH42kEhIfDP9fdD/930pRkePY3kCrpIz/+DAoLBF7XyPl4U2AgcMtXeyPCphCr+anZUrO/kzbbdr7S4dlSs2TAE+GYhUE6GHcH/Hdwna5+EJeLw4h9mF2f86ids1SP8XP3536LnyFM0gvIT7yz3DPS6ZvYkXz7GvYcZQZuVa+NK0PIiXytwIv+SwT5QkghuMtaHuMZxD8HKI/SyiQmwNVBTKKcTzbH+CukERMkcGIycmBP8EA43qWMv0X6IIHUuOYTzjythB0TG4iJNgq7BevqY7+eFsKCeD3cOGyAHyxd/184Ds8s52Vr542U258XrmRj7gwN0CVOGdItvpORc/fQ40B4af/OSjeHtC1tX/bSDnVSybKZtPS5AZQDoAywxtnkp7zqpEag7TzuGKVJ4ceUHpgo/eyIwn/S6WXj+Yzh+ac8AIRdhAHETTm6nxxlBjBfaTPRV9WVMebMiXytUPyir+iFXx8QpbMa1o8LO58tXFYQjz3/HHAB787L7cdYYoTQJ0zfKx1ioh44hyBx0hHpVLMe37GzeEKXEy/jsXTpkh6e43ksdNYzQ5RRPQeidUWhcKS7OkTj190/fmMC9PzH8PQC0sOz5sJENXoRLtAj6qHbtJE00CzfBrQzyJ1Z96TXCY9d11BmrBwmd9XHf66u5Ime4Y4GmpIxY4SShixNIz+xwgHeNAepVtSMD8yy38c3iInT63mLsUjJC6mSWkxOQKmIgdVNPHFccXiFfAaHMhMDxZOyI69l7V3K8UtBPmt9jcFL7QIBQQkQAMxQLRZw6xMsL906ZFlpzyQj8omwzfF9ILh/7LqmvDPCzqxqSAlygCA5r6506vlKtuW1dWuTdHAfwvFxa79WTMgrS6/P9oYgYwvT27rnNz46PFy/BwiHvFygY9O7NDhh/1WHKRwH2eFJ8uDPeD4B8TPOzBGCt3z3OV5JpwKhq4G5NW2XvK/FCqGlYRcj2xZ22pc0xfUQw/MWI5YFMbiOIx8oJyvylyPDTzhr3fTaKnHzXU3Ms2ZQdUQ+a/0XgPiFRCjgsKRKe9HLKrwlxy3aSLznQCNxhBmkQFdvju/DyQeshURYCoQBBOPtysNG+HNeINaW5+nCeuwp7uPUgPs8x+czPS0QogsYv7aitmlxtCnRmek0VV3IequYxEFxmjiSLgf/iQPi9nPAc1ijV+mBru0L51zj2dGF4QH88gx55z6WOcTHdd6njMT1zHFG4nPt3NMAicdpwL/HC1YmXEvr1WHsX9rmZto74UDixIVzJWlFFrWnw9OAXw+Dc9+Ix8sxx88OqnRtXRlCTuS/arhQjAGBx9f9HMHE+OPPPUb9c4NyAJSLn/tsaP+/JoDEIFAPA3KACHAQJKir254/WdNDHRA/190/R6QL1+mWBoRH14rXIWPR3INcIE664AnDCGZYiW5L/qO5Ffrb/zgf+MMBnw0OiskdEF9Mas30otgGdTclVz9tR+7hH3+vhC+2Zf8hXciVI2liv1T8Et/+Svc6Xm33o3eITVuAx+lKAeBanBbKMyuH9BHSEOepGNwjnLH66jufW7CNOVcGqAPG7umtKC2cuN54FuWDI3lB4eA+ykmOHOsGOZH/6oEAQujEAgqrqNiiwQ/Lcn7udeYxUfyccFICCGrKy/+vDQiDsCEPJ8vCbOvK7XW5EeOQ3U+2P/jxcXnOmTSWEX56FZvH8yxhQSpWVvczRvuQ3k9hT8KDOOlxIe3FiJdReW8TKN5kxeF1QTpccdhcvdPB2jt88JvJaBAaaeI+CocR7UI2WmHCGqQLuM76bCar4XeEuXuUvHSthibkw/3F8DIqBmnK2mpyBHGsrG68Lptp9vYoOYCy8fj8WfdXGihf7hGvK15x2hhyy1FmUNoEttV1ZQg5kf+kQBD8XHCrygVNLHwBQtSvIZAQYvj7uTezIE3uXEByviKBuq7h8RYTSGkkAyjf2JJdETxPHD0ssw73hyAIw9z8qzTzhG2VDGGPcOLnOvXGOUoWBF1RSdc7C0Mj5bVZeoIdjdz3SCysEvNBO/B4UBYA5w5TSIbUMePfnmdHO5ZOcR4I2NOFf6xN4OnGEZ4Rds0SvZteoc49+PwoW6ECb18QsvcyoPyw/SrXLS8VmMm+QOloFBXGwB3kr7i8VwZP06o8U17HpjWki9tlSaydXc1AOA7K2tufg2uOeK2/K0dxmyh+NsfPCup6bV0ZQk7kPylccP7YwBqjG3G3gvCN4Za1Cx0EHIKGo6EORI3AIm1c4xzHcwifeDOLWLCtKxTHwRtDunBYoKsj0Nc1VlYefo9y9eVRpQF/uEJ9LK0D6suefWaeXkyZ1Z19avWE+/5hxMoaZ4DfQr12pN4Zw6V8PtPNd55ux+r6InnOjkbu2/a0sG7Qnsll4brauAUJ/AisPRxtYbElbNiW9pnsPFio1cOObmFTl5ZtpUaEQRshDXZ+VlfNSG9W+naiHf7+kQZ3j9dPW91tj39/B0gnFrO3y700dAFfeCuvpAUW9Ftqnf4+3FkGysUV0pUhzg/wuojBNWvjx3fV7d+dIV1rRLx4qDTG75GuOByu8d54ekHcFj1fPOPvHEqLo9AzkqNsAIu6mJhXx62hRX7LLbeobt26qlChgpo1a6ZXXll5T02fPn30u9/9ThUrVtTWW2+tv/zlL1q4cGHh7jLkRP6TIhYCPyYQbsdZAzvchO9IO3cBGltRPm5aJExmIKQRPi60EMw8g0N4x/6LBeS6QHEcLiAB99ZVGa4J4vRwpKzccQ+BzlvvZeh+Yvj4Oii+h9W7QN3CxLahapgerKuS0+zc44VIIBd7ri/KAmERRnV1vO4O3ZyOt/o9XmnnznbtL+aoU5Qh8zOsRGmr4rFjxnFpD4DrHof7WaAltftoSvKwNMrCnmjpKtdBX254sdKnNtK7/RNV++8cJbVSfXlOomO6svkLSiawcnjPyLJlV+NKdmJD6aALn/I5Ufdrbx11OF3py+p/eOIrUIgfx73SJqr9EEorY8Ky8rh/lKqWo4fD6qo2m+kMLNzzdudxU3be5V8aPN3utxjcJ685fq144IEHdMEFF6h79+567bXX1LhxYx144IH6/HPfqGh53Hvvvbr44ouD/0mTJumOO+4IYVx66aUFH8uQE/lPitJe8B8DU7LvJi+GxCFsE8AtSlSSxstzmDkLsSBQVmbV+ASosgCIxAUk58AFKf9xLph/KlCGHifxe3o4klZ3gPqGEDjyjPuJ0+zdsFzze/4892rphYR9Q9/SpORRbRvGlAHhepngHxKkju3a9mZhjpPOTepLdcZokRnhT6cH2j3qtTDWfHyJkqcJ61xzsQXpYTJWTHo5enp4HlLEz2uau3E3pe8kqmHc981RUt050ndVl6jy/C9Uw/6PuppPfbcqPFcId9RNasaOsiFsdj6rotvSy8Pd5DHPm8PH5IkfHytqlz4Bk7brZUue3H+xMsg9wmsmTd9L26TMVDfldya7utFLEA8/cPT8syrgh7AisiYsbys5fnbEY91r6lYTN9xwg8444wydeuqp2nHHHdW/f39tsskm+sc//lHwsTz+9a9/aa+99tKJJ54YrPhWrVrphBNOKNWKz4n8F4EWUmWOB5hDSBmZLzTbKqF71YEwckFXmlWDYEMJoJHEz2GFgIIg/knhQhkUC0GEM9dKS1f8HDO1yU98bVVB2FiOHgdhxMpYcZp8LNzjio9OBsDP/T7C3+PgHucc+bwnR+oLv9StkxDXiZ/rHk4B75Vo5OAWujL9wv6M0kbV7lSry140S/h8+09vjZXd/VjehIUFankKn/5kohnlSng+qRGS9LixHFAuIMgFqvrHVBU3n6Xn2u2pnvMv00a7pKr6m1TzB2ymjwdXDy3n+ONZ717oNQjuKE2zKkmbHaHG6TSdkC5RxWSQjmCrtpWCco+VnhieVhRXyoX7lI1PBvQ6Iw+Ae7ixlr0p+qBDA3VOKQd6oAz7d8iOy8HjLI7b4dddaSj2R7pylBnwyq2tWw18++23Gj9+vPbff9nqhQ022CD8f/nllwtXlscf/vCH8IwT99SpU/XEE0/okEMYgloeOZGvFXhZXQD/nDBBFWQZG25wYsJkAv8hABdepJV1uZ5errPbFvDuVAQ5Au5v4V8GF4Zc/6mBACadpD22xhCK/iYVpwt/Lsx5ln23MQHXRJBaOe5yuJFeF7NyfQiCcFcUFhPOiu/7ufeCcN8R5yHLR3oY3d2QAf8hJsLknHA4ZiSawWdYexxetwermuao2429pclZ3V5y5eWqnG6r9PrGwZLOQPyF8l3scyEIy8NDMfG9EagLTy+Wu7WLJx/QwmrVtV9yqK5JalrTG2lWrbW5TjepTnKufk/vwf18OY48sz7dBM7M36jeh3ZiOsVxesBSWU0ni13aiuYRnGXprlaiYWlpQs7TtyJwHzUiVuA4OqHHzz+sE/r9Q70TdoDjvim7z1BmlCX59ecpa4aq4m76GIz/Aw+7LMiFHOsabDATu//+l01tvo8vv/xS3333nWrVWr43lP8zZ9Lj9n1giV9xxRVq0aKFypcvr+22204tW7bMu9Z/fPDSulD9OYEAMlenhh13NmfpWvymdC3bVHn6XMD4f6xznkNQMQbrJIE/9wvKQv5AcTqK8+Uwqy3sr22CN3w+kvs+Tru6qKhZr5tAPt5I7j22/iwNLugdnh4EeXE5xn6579eWXU9+jwULCfk1elmAEwNWKefUFYTqZINzBeAzo81+0id2Ol9mbc4woj1VjW55X9d17qiTFrLLGP4zv1lYTnKA8LmPEuHgmlub3vWMBWtt5yxIjLC4z0dcllng6aumPDTtpiWzEDWb6ruPKkuvSzNOxNafphHJDLvOs4A4KuredILSZxPNnJPoiMNZf74mYAOaeMw9rosILbvqvl5/Kvwxou7IODnwsuQ58oKCjKLrim0MS3f47GwMz5ODMHKUGfDarK0zMAGNneLcXXMNn+D9cTBq1ChdffXVuvXWW8OY+kMPPaTHH39cV17JhlDLI9+i9ScHL/QKhMoaA1KGwBHsCF+6k6dos3R3fVH+tyaTXLgCF0wceS4eRy+LIK1szlHo9lznMPJ53SxWU6yT5i/af7q1jOTMOtQcFATg5QehlTZM4cAfb3yxUHdwH3h78HAhNJ7hP0qIW6tcw4LGD7PYUcD8WUd1vZLerj2Ss42XOmSfAefLoRfSW2OE3cgsTyapCa2engrGh7EyIagorcxcH4I/rnk6OIfQUBCZSU/cWO2+c5k/f5jSdk2VDPLtVAl/f6X3/l43nNBBF9zXT28akT+ZdlSXhPVeXr+7Kb3qCDW7dJReSfYxBSDR5q9+oC+S0scQfxSwtI69ZlqwfIxy5z2h+/MFc3HZel3hxxVg7lMfgGGpeEy/GAxR+BBAjtLxE27ReqbV3EaFi2uAed9KVW+TPvroo+XSuvHGGwdXDLrWGQ8fMmSI2rQJWxoGnHLKKZozZ44eeeSRwpVl2HvvvdW8eXP93//xyeAMgwYN0plnnqn58+eHrnnHWlnkdBVcdtllqlevXpgej+mPthDrBpxffvnl2mKLLYIfxgSmTMm+TeyYPXu2TjrppFAg1apV02mnnRYSuv7BX/ZmhWNmYSzrVgWlveRrC6wIrIV9wr+M1FuYAITER9s5wol4caSHI2lFiPO/LIO0FpM4aXe3MmBpri6qK9m1u5E4E68grIKlOodPi/oLWzzXgPNY8Hi6SDvERhn7NT9W1LEpLOt1AThH4DuJMz5vJN4U0oZIiYP0YC1CPPjnmj8PKmr36yYaEXfQ3MkmqarZpQvpNmc999VG4owFV1T6Z3v1L26rdHO62b19EA7O2usQ/uOIiyNd7I8Zb9PWUAwXqFO6xI70HrjfQl5rNslkcgDXLfwKOyo5sbs6J5vbsbcaD0yNxOlBoo5QPCmjSarRZYY20reWvkTJuJ4/TOLHGxHXdgVr9dF62oM6ZS/yAygHyh/l1ueGxHUTK2X85x71gUNR8nIoBRXoIcjxSwOcFbvSSBxstNFGatKkiZ599tnCFWnJkiXh/5577lm4sjy++eab5cgabLhhNsuu2P5eKyLv1auX+vXrp759+4bp8fy/7rrrdPPNvgmEwv+bbropzNAbO3asKlWqFKbcx2vhIPG3335bI0eO1PDhw/XPf/4zaB3rF3ip/SX2blheelwxofgEIuD3fHmYg/sxOawEQcFDELp1XZjApBkmyCEjBJATtpPESoROmQRp9jJzrCz9lCuCGcRE+kMokPNAyMHHjVHMCrO9A3xSFYjLMq4vL2/uQ4YoWYTj1xdrcJiN7rPC8cfzbrVxrbAl6Dirz6Opx0W6MnUF19sNR38efKykiykhQ0pUtdyV0jAfNgH4Ix8LNGuACYM2iR767GCdlrLkYSe1SrezIxPsaC88B3yXt0LeR1EuxLWV+jx7iR0hY1BQbkZ10SlfGDEGnZJwCghr0gHPmoXe3jdQoY6Yk0E+Omh2uYEanVge/s64OekFJ6lxyhdWAGXkZWhg0t7MOOwYzMgvvuYgvroaftkxGtj8bDv39wJYXi/ke+/A0+AgT+4vvhcrm6XEObk4nBw/K2C+4lnoq+PWgDlZenb77bfrrrvuCnzZoUMHff3112EWO/jf//1fXXIJ71SGww47LPDr/fffr2nTpgV+xHDmuhO6Y6261lu3bh0G61nf5mjbtm2wvOkCIOgtt9xSnTt31oUXXhju023CMwMHDtTxxx8fMsRU/FdffVVNmzYNfp588skwM2/GjBnh+R9C2ela5wVe1RcWMkeo4r9YMMThILicQFaEY81h9UMwEBFCha5TI5DaFtZM74ItLX0e/uqk/edGXCYrSjfXwYryvTKUV+30BM1M3rfzlwKJvJGgSRMGJOJWKuexYhTHE/szhK55FAP+cx24X0ccTjEgVPYax0ov2iqV7uHpDKnEY9qOqPu/jvkL+wYAwskUkvTxHtlQwlF32n/8Ej/p93Pgac3S2CGtYi14mlnVWJpPGr91VfpMoo0azdW3/7R3cZyFdzVkjP+4/UKgscJCeuL26VZvFk9Ac/MzBuJ3hWQFCMMBnj+woneHSWuW/+t3VPn287SoJkMXDKF4Hqtrt3Q3vZb4kEGhDCp0NYWEOozDjNPsKPhfGh6I8pNjBfgJu9Y7WutYC6qYZ0mt2nf1v36G0UtXORPcdtlll2DksjEMYCIby8zgRrB48WJdddVVuvvuu/Xxxx9rs802CyTONXquY6yVRc70eLoG3n333fD/jTfe0OjRo3XwwXz7WEGLIMHxlHsKkYT7lHuOJMpJHOCfLgUs+NLAzEAqJHZlA6vyovpLjiBz/xxxpQkA8kZD8Xsc/RwguEyINMIyYiyS5UV2rM0sXCu/mUPtiLUE4nDjMBDq8b2yDq9v8uDWWZwfzsmPW4Srm7fN9T960Y4oROWNxDm6JeaWMPA4PXyOfg3Bzn/SZ9fmQESk29NWnCaue16Ii/vUG+e4AXolpS4h33ioxp6bDhGWNv5KmN4rYZjhVjB5QBnYShpUohoHzlByKfo8xO1KBsjStGdK118hH52MsN/toX5JOXWpT8+btZ2WRnCdjLhbPq9vBxqJz7XU32K3Qljxu8myLtKDAgtMOdnFDhBkSBN5XqBtUvaK97ozjCm08aUgXQ7SZc9eW6JbH0SpoJve7xfLBSPwARZW33b2fuxoVvft2rgC5OEz83mOd22BkThj5Pz3sOw+HRdBCYgRtwuOLuvi+uV6/D/HrxUdO3bUBx98EDgMfnMSB0xucxIH5cqVC5vBvPfee1qwYIE+/PDDsDNcMYmDtSJydp3Bqm7QoEGYHr/rrruqU6dOoasc+LT6lU2557j55j4elYEMVK9efamfYjAzEIXAHTMHfz74i+5Hx4qug5iYY6zoZUcg+T0/IsAQ9CzvsfOJ8bfDTZjMZMyORkI80VaZS8cTCYd7hF1k4a03IA+kn3yXBoR/TLyriIFnaPAZWMAQG3FAPk403osCCJ8ydI2cdPg9B/e55kQUp5Vz/09d+vAKBEiY1KW3lfLa4zeZBZ2lx5/jPy4ivgCe83vFcHK3/LWbotnjjNAnM2/Fn6FMMz8V5rTXywlrGUmb+etzk5IdsNwtje/Rlq5W2sSUxo48N0o60Aj91J7aaG530zGNoMOWwZ5WehR8KAG8ok6vX6NxC1E6XUZcpCP1sNJmFyttxFI8YM/PsP9H9lBar4dmpT0LQx+QKuVqab24RGcnLTVOje0/imkxCL+OOpx2g6qebnJl5nj7X0XzKweNw0AaPe+EybmF3wIlo5DeII647/UN8IsCTXlxxIr3/DmK/+f42eH68dq4MoS1IvLBgwfrnnvuCVvJMT2evv/rr78+HNclGEegS8MdMwd/HvjLD1b08pZ2HWEQX0dQx0fgws+RCfMMPIuwZ6epe809bM6sxhZmZUDeWBvVsNDxz6xiBCXhmTCbiVXmy7GK01bWEJfHyuCC1xGXHQI2LrtVAB8cGeAToABhsBkKYcRh8zZ7fQIna+Dx+TX/nxFk9p971CPnkLT3QBEuYZ5oroPSZzurT/phoWve2xzP8pw7awunu5IGiuuW5zwuVw74f4/ScbQPZqEzRINCsUzxXliNSX6khfSh2JB+DxvlppyS3r2luvQKNFSyk+/OdqzSaom6LbhUb4QhL8PxkCKKEHETx3v627aXqsmW9MRjhUPMN6tPsoGSsbcqmUwvAWk1Ym5UQcnDvZVMe0Q1ki5K3yLNPi5NeGC6mi5dk841v84Rkt1JG+u/arnx83bOp1KZIApcIYjBM1Zmo/lCG7B0LObdocy8vgFr1b2N0RuQY71A8Zj3mrgyhLUi8r/+9a9LrfKddtpJJ598ctjU3dfS1a6dfUros88QAMvAf7/HsXivWcYGmMnuforBzMB4puC6Gk/5YbhgBH5cXcTPb15YA815MQEABGhxPFwrCNbRWBkjs+H3MCcKQYgA5zrhIYAaGikMsaPDhU9xuGUBxWS0KiAfsaB1rE5YhOFtNiZuwnACBfE58PP4GqTsYRRfh0A8XRyLnh9Wz36+CXupdNr073aOHydhjvz33d/MBV7zMLxtxukH+OWax3+YFrWzQwAKuBN2IcwA/PGM927wvmJZQ8akw8sbRQAQ9pN65PxW2j25Ro3bFKbhhN3kAOESRzntOHW8bv+4nRosRBQRLnGw6sLiW+yTNi1Nc3wcvaGqLz5DU0x3eDF9LKw5/zRleY6nzeuEJW2QN+A5rt9jSkIlDbsRBcnzBnzrVS87P0L0hMt/D4Mw4zKlzLhuaMAqBMfPJZNyrBJoomvryhDWishXND2eafWAZWmQcTzlnvFsxgZ8yj1H1tGxFZ3jueeeC2HE4wdlA7zQ/pIDXmoXCH60F7haidJH6Ba09Ncs0Y2y88l2rQ/X4ucBz7kz4TsIYce5++McwcERcISpQUwkCFWsDLs3htnqdnq6WS39uc/4KWWJcJ+kZ8I4HmFyL2x8bfDw10eQDxecpeVjdfMWv6WUGaCuiQdHeEXnYTZ3MbjP8x6Gw69DIE4KcR1Tr/a/gtmi6Wv6w7v2/sxncxOukzb8QeCEU5jZDuGM8sl0gKOfA/z4f0iU/xDVC/qMthKGXCz8sFUr9yBqwDlrzCFUt6YhN8KgXW2u9LOsC7xh+rpZ1j30bPqI0vaddUTvp7OtV4cVrNr+hO2Ea5Zsgy5654wmqpIMUqXmyAziII8+3u/KlF1r01XpvhcrvXcHvbnhzqp/jtF9hdd04gvDtEWCkuM9HQ7KlnSTXoCSwP+vNPt8K9i+nk8Ql5kfKWfqyMMlXfhH0bF3jQl4S1chcN2emUw+PUz3D/yYI8e6wVoRuc+gY7eZ6dOn6+GHHw4bwx955JHhfpIkYcy8Z8+eevTRR/XWW2+FKfbMRPdF8Q0bNtRBBx0UNpNnT9mXXnopTAjAyl+VGes/LXjB/WXn5YyFB0RSSy3Sncx6mKfkiJ5KLz9Eac9Ep2FtNLhJSSe6He3FP6tEl4Q1uJBv/JK74CoWAAgLF4AAgeoC3UnHn2Xmsvn/8h2z0O00TNAxS2F/JiBCRgdr+C3H2BFBw/OlCZni+Ms6yAckEKe3tDysan4om2J4l7LXf3xuaEm3K/+pK79X5KfUe8TlpOHpy66XHNhFTTVeL4dNU3weA3VPOPGGJfx3so3bCSB8SNnz5AqPl9cCPZaeonQkXdUW3mIIijkrWMXcJw7vOiYesEg9db76pFOVbnm05v3WLg0p0ZVJEzUxw7le8rLEZ9BDZw/d3IX35CwsbE/HAKVPJEoG9NbxFlqm66CgktZNdadYkkMawFa6bVii0XyR1fT93372oZJbuqvqf+19almibdNGmbflQLpxdOd7Pgh7J9VIemXj5GJJm5e5g//xNdJLGDxLGMAUjTEMvZA3vwYYsvL/HKlXr/McZQp0jVM9a+p+SV3rrBc/+uijdfbZZwdCZonZn//85+W2kLvooot07rnnhnXhu+++e9joheVlfI/VwTg7E+b222+/sOyMvWVvu+22wt2yCBcM/tI3lPpcoFfSWzU6QUBmllFyRU8lZ12ryhXo+kOYIURNMPTvpWuSSnY+T43SVkq39kk9wMN2B3g2FqZcd4EYW3tcN0F/fY1snHzyKB3blq4/S9MzdG8i5M2y65jq4NQFNXDhDmIiIDz3s77CyxDE56sKLwPGjovhZYMfrwfqJy4zP+ftp20ArkFaHPHPRDLWPOPHu6urqMQIZ1ZYp82WqnHaPS6e59zCrWlkUxkShnDi+AHk7/nwdlNAua46O2mvZCfGlql74sY/CqE/Q7q45+fl9WY6UFcZwaULpZf+K6W/SdTWrOTk01T1eLyjnfMNdPP7BD1SJaQNSztrX+n1di1M0KVMqivZnvZJT9FkU3rbqX34LoTvx9A+TF+bkJ4mTZWW1F620xV4f1cj8gmE74jLKr5OXFbew8/T3AqvS082sf+eRy8z/uPi96uXNphJdzx1Q30B3kf+48/DyFY5ZKAceZb7nPv1HGUCNOO1dWUI+RatawReSqxbZoPThcfyFSa9xBOkgL/0Lnh5BssJFITNQSVKl5hlEj4pGYNneY5nChZNGKuMhQVwIVIIz0EX6eIH7OQ4cwhEpCtH/GI5+BrZ4uchLLoPf0nw/FGmRUS2yoB4nRAdpZR7uAb8evzfz8GmOtNevdsS9onknrcLwH8jvFHn6dtdEm1UDUKM44EMyQftI74OYaAQoEgW34vLwO9xjf9Y4LTj2H/cdl1qcU77iFc5nKT03R2C9Z1MRBlopnTUH6Wv7f+htGmIlAlzlF0B3Ur0dM9EBxhZJ0/0VEk6TyV/6WXKMCst5mloeo7aJnfbeWFjqV3sHVmchF1pk8dNXC0da49B/TDcgNJTDCxqxtgd5NvyMehwNT5pjN4IS80oz+K68vLwd8LLC8QE7v6QAczMd/i9ONwcK8ZPuI78cntbltmSq415psBWvWL115GvK6yVRf7LBy8tL6E7B4LhYKWTttUR6adKR7PNZTGJ498rmBcY4etCMXqhn7zKSBxB7QLCn0FQYIc4iYNiYe/p8/CiNIYZtlhnfGPZJ+1496B3CeIQiqQps5SWEZ3vihXne30F+SQfnrc1AcvRCMfrycvdy4fVAcUvNPdi1d3LHHxlJM6MRIZEvF4LbSNY1u118z6n619VISdT5oJF66BNkBcmdAFPA9cgLNoZ4Lq7ihqVjjDSjNsTadlK6aUnZ39D+smft1UPhyNh4/81dUz5jrjjISVHpUbikDZ+rM2eZYTbz+0D0h2RuIFu/AOOND//ws8ilSQWZx/8PWZhP2gkzpfSlu0OqQlmum9p/jdNddF9PXRzyodWHNmeFZm1DyGXBsKKy4IyNWJuN0pvbN3cztkClzyTP+oAPw7Kg62MucZ971XxeuUaCjZlR9nGzxKmh4vLUWYQzz5fU1eGkBP5SuHCC8eekw0zC/pSxhMHK2nYXY8k/1bSIram/UXmRTf/tRESvOiEhRDghXc/HBEUFv6oLkrPoYu9nCrPP4ebBl9G4/BxcBcKhMc5fmJ/AOGLIgDBQOCAQUu6A7nuQPCTRtIHfAYvVpfnvTjsnxMrSkvxdf/vRy+zNURl6hxQToRJeJQl4D9d0dRHMXE7GbIm+zylV1HHtIeLzBmbsUFJ6Nlxvx2ksDfSozq33gC1TFDILM4StyiJ0/cF8OVXDq+rQpsK4LhIVReeqP+p8YpO1L16LGWw2XFcNmerKcopeeNZCCl7bvmwQHndfAbtxWHPTIyVjJuVTH5DGh5f8/YnjU/tvaloxP+wvTPhIzSE75iuvsk3dizuEZoeeqxaH/Ggbpp7rs5N6GUqr7bp9mqUxiLM349i+Hvizndxe0nqb4fwVVfKnrKjDNwf4D9kTL2SVvfj9cp/6oFr3lPBNUA5xsp3jjIDqnNtXRlCTuQrBS8kzgTRhS3UIuWFNsvgaojbX3SHv7x+nf8mKGaWaM+USXtYTwgCWgB+uM9/SNWEc0uzzG8h3Nn6qv/mqpP6t8Ld7w/B43XByP/rzGG9IFAQZggwLBeEDl2RF0ijEeB0uVs6gtXHc4SRfcw+g4ddFhCnJS4Xz3eE94rrqdhiXg3Mj4nJw4Q4OMd5WhDwfp8yBtlbv7BaPyVdvZv8OqV9fy/meWl/5itY2+rfVfumr5pOQLhGDtPp5WHYhvoCEKLV5RDGduP8evxc45yj1yUor7kV+muD2bdqh+QjHZacGrqnWb41d/FGSplXNg6Fgedi4iFM2g3XOcctUjIgVlyLQZy+EsKRWeRY8k2wtqMZ/lUXnqK0fjxHBDQIbZHNX1he5njsqGOtDJkZnu3ENvSWdnrrRqzr1QF58Q2oTKHqY4c5nMfvZbGyTRlQr9QDfnD45x514uWOi4Ef7gEPL0eOHx85kX8P/sIVusRadNVm6YG69//aaHRiAuTJWKDH2LSwlSQvrlu8vNi19HLyTzuitSMMvJuRlxwBgRbPMRP2ILmwu2YkY6MPZBAO6SpNGHCNOEkv4+luWTh8ohRxYOGTtgPMCmE7SxNMbIHfGiKxayWL1C5FMMVkFMPDLS0d6xqlxRmn0QnH0K5EM9IbTE4zpOBWM8DP2iBOA+fFaeK/d3cDX0blREx6cRkhJB2NEKebBfpMiSrPPyEsN3suedvuMc5KWBA6eeKc9lHIC3uKB6s+wxHp7zTGzMr0XuaIsA0q4XtbBMSJUmFHlpqNaSf2X9n7nvHaaOEi3T/rCO2W+oxrb4fEyX9AeH69EOYuRe/BQfz38vBjoV3WtHv2bvRN+CgLE9rO1dXpXKUNeui+CluE8fQMRqDHl+iidKLSOxJNmWaPJo8o/XMPpZ17aN4TBW8FpE8lSjqZ9b8UxEdPh+c7Bj1TjHU7IfPf2sczN+i0m/tKbc6z/zxHnr2dFMqsUF/Zfc+bX4t7AeL3HuDHw/JrOcoEaM5r68oQciL/HvyFwzIxoTNokT5/bhudmPxPdnmFOK6wtpSXHQLhBealxxrmyEsNMqs+Eyho/pBvQ2sYdFfGFuN7uiz5rU5IWdsDSJenzYUJ4JrFdRaCyAk49mfpmcynJ+ubI3zIxUiOPWH2N2IYk0rDb88EvPk/VWy/uSJ4uKUJynWJOL8O32MgvpeVccO7X1Od5AI7Q4lB0Lqf0sJZVfDsMvJcVhaAe04Cy48HL+/P4RsgQRTXWd2XmMG/mdSeyYlOEIAwaUccqVuUPpcgWfdzemkPDRt0oporVXJ1qq8rsVQNi5NnaGvUOUfSZW3RdIR2zW5X2itRem2iIyoNsxZRT+Nf2Nvus6EL8fMMpEcYEB7PEz9tlWuG5WaJSxNHQNKLwv4JJ6RGzgH4tfC+7KV0a4YmyDd7HfTX8QmmsHSI7lbyya12hpKyldL3EtVKLOzDLdbCOOTAv0vTeluq/ENrBSSPMcZesP7DOnhTRq5n/J60Ene82RFKLGXGdRxWPZinO5IvLY1Gw0GZAfinDrzsAWVCuChqvvGNg3vllTZiTITnvJ35EXg4OcoEYL7iMe/VcWWMOXMi/x6yF+7MtLJeTM83EiyvZD+6El2zLgaCDiCE/WV3K9AEXwO6roG/1CgIxIGwJUyI3gTMYsZAXfA6Zuu+5FOlY3oUBBVwIePAvz0XNttAyMfCA38mSBtwjw1FiAtn8cNJZoiYODRn6cUINDm0X+Lb665M8KyoLNYVyIfnmfzhILW4LFjClY2bTkrIa1xGPwYIz8ekfcyXa17eLvQhQk+jO8DRy9TJ2P0amHO1VAmgHdA+7B5fNmMIJDzrYVDnXG+p567aU2NPNkIfk+jtiYk2YVVjZbZqo8eFuqaiUXoKbePoERqUfK5q53+qZOITeuq5NkbkdXX6PkwIQ/EhbvJC+ZI+8mjxPUM7pm0TJiAtTnxSo+RP9lsl7J9wX/JddnF7Uy6bZ3NEkq6QLkrVPKXtumleWl/JZMYVKFO3aieFb5BfYM19xC0WuwWzl+XnVF2rbc1sTz7xLn0mYjLJzd8JS1/4lKmRc/gAHGlGSVqg9HQLbDpWOnmpomfZ1bAnnyiN24flZXSJXksm2f2nl10Lz5BnP7dyHsXEQN5hrgHaAmVWrjDhj/qJ24UDPznKDHgd1taVIeREvhwyDZ6vL92WtNDel4wvdBkWw19SBCTWtwOLxQUhfkzoTWacM36JaQH8xzpBICNweI6XHyHJEeGLQMCZgGg+riCgLC2tXTFwVFSnlL5JxtRd8MZC35EJogwdzAq/St/6F9K6mflztJ1WNtcTy500IsB+bng5x/mIBXB8bmnu21VDE+owvg74T5du8fXVAWnxt9fHkbmGhUbYwIV+DJ7xa9SB54W6n2eKxzZ6gqVVR1PBcR0V4phO+2PBNWmnnXDd2tcE6ZX0XO2397/U7BhTx/qmOjl9UcnnN0rzWe6FZkZ6eO4liwfCYTyZtrlIcyuwP/8UU1J76t6vT9QdL3W0/6STZ2ifpJNnCoS+f7yZC8jCXQbySdgOa9fvmSV+leWtU1ulG9uRHQ97GLF+xBcCaK+sBKii9PIeZs3yTXDeBWvv3bubpd5bW6unKn0NORLv3+xdysbNx6mmbkvRQiFo4PEuVrozbZq0816OyMbzwz7wdfWiOmsDNqvpFr/T+PWels+109KJdt5WOHKf4yIlo1FInlHVhafZESADKC/SSPm5y/wvq/vinpocOX485ES+FPZC991Z6WcX64OEwbjHwqcRl0fhpawMmWIRIATYHQqrnHu8zAgVn6jGfYQTFgcvNcIOP1js/AcIHCcGf/F9FizA75PLrGoj3Gz7V5Clp0/C+ks+euHCxJ91MiYNoBBn4KMTdUZVujRNWPMfEmezKz4rGcb68OuWZ4xCGfwk8PLwfAGOXMdRvvw316CtWp/zoJ2bwP8e8BOPZa4pPB3EDRED6ooeAOAKWQyeIZ1O6IW6qY2VvcAUD7qX3dKkvKlvbw8OhkO4zvOEY3HvUqI9kuPNkrxdyYtGLoOuMosSEsJPodclOM43t3isTVY7wM6dUCgPwtxJ7SvdKbVgwiOEZGmozDANaSEdzXREyriLK5mEWQyew/JGiUKxoWyIx453S2/0STTL9Ion5lhm7bVaZErIYUmJ3k33VK90mpJjWb7GWDfPeNulLNkh0uNbpDcaJHpkais1bZ3qzORE3Sa6H3xcOkPyh1TphxcX5pcUlqa1KdGtZte3eEr6YxhTikF8rowv0r+1gx1ReLyuOFLHBbIPSgCKENPdwUOqMIfJh/gDsTLj10Bp5ZbjZwOv0dq6MoScyAs4LTWh0NE0+Fp098UvYykIvGgveWUInOVaCAIEHcSJ8DNpFQSa+anghA8QeDgELoFwHYfQ4qXneY87Fgz44b9Zz+17KfkKqwBBi2Al3ugzpeGaH/0cPwABa+GEj1G8orsuYWKUpYW/DO9NfqfwqUbvQkawkt4YHuZPhTg/8RG4opJd+8hsuO/Dy5gyh7jWFMSBMKeuAPXiaaFuiMPLmevuuOfklPnfJj0ifL876yKmZ4ZwscghbCSEp9lBGAWSC3MpANcK7WamL02jTZEu6syfJ02zlY7aQBWmc+5pwlHPh6vv42bZ9mfCI/d30hvzEyPZS8wKR9mYpEdeYr/VTQt7qsdLz7x3iOeuUsN0sZbMOtnaE8vDtlJ6ztnqZ21rZ3vste9QWKZKjawVz81SWn+/GTol6av7GyXW7BoXvo7mvRvkd7ApKl2M7Nko5gI1PjpVm+TQwtK2sTrTrPYXZWW5VKmS7jj0RNMYpMs+7qk70hvtiuXT9JDTqxrJX5lqjzTsWbxCTNCu+nZOKztjjgBllNXZsncCcJ04Gc5ZrIUzKG/3F4NrXt7eVnOUCZQ27r26rgwhJ/ICwoSXMCGmtBcS8DIiOO0FnkjX5WuFLSa55gKcFxpBjLXDNRPQCxGyCHJeeoQ21xGy+HErkZfcX3qAEHEUulKXEoiF1Y4wEXQQMXEygchBOuMj8HCdUCzea03YXksGzKKBVMzA2Cw1szx8wMnTBTxvjjjcdY0fiisqs8mLjGLYWczLyUGeXRkiX2uafnuuI2PPcXkUFKOl5QuIh+s46gYlizbhgry6PkieDt/PzjYqIX3UpYM2Yv63t7qdAJHGsHgYAlkKlETy1iD8o6s8i4c0klfC5v9XSlo+XVi65enIym6f9EltduiH0lm0afCkUeq12uGej6Rn8G/ht6CdzFYyIlW39FI7t3wNKdGC+exKVyjP/bvq7RpNdGf1E5RWSZQ2PVX9+p6is6d/qymX19HF6Yvm6RklA4do76aptu5oyujV0ubG0ce3TFW7tv0fRkC+42ABLR41VeMxncDYtsWZvQ+ukM3T3qE3A6U2S8cF/71BA8+Svq1cUUdXuE9PW/563XmuXpyzp75+PdErCZ8wXTH+PPcOfVsBsejvnLcX6tXPqU/uo8BbOTYiXdxz5an4OcqaNObIsW6Qb9EawEvnwpgJPPHYn6PwkrLBS/imN93nWFEcfTwSwY0QxVl4TEA7C7/c8/BjYYCg9f8AAkc4uH/IAIFBuMAFsxMDfhD2jMNzL0acJ0D6/RlP50U6Nn1Qg889JXSpX33aX0xMbqprkvVNv7O8VjNrLmwwUvi/XN5jrOzeipA9MzCdpPaJf8gDUA/UEWVPmNxjTBnLcqQ5CMcEeLcaptDZqTWT9OZEST175Vq48KfOEfLsSkZdU09VdGs6VmeHmfcQG9cdPANRFHe/e5tw4gDevrjmaVwe6UU9dEOvDuqcMMxCmr3tNzNr2BQFDNH2bxohnqNWD7xorDtWabPmenVMI+2RoNh4u6uo9DB7/zCCO1rreryCaiT9zErfWe9c0URJd4arUJQjXF+itJaVx8m+tn5FKK6zc6XWVqYoNXw7vghpsx7afMwH+uLZ3yrdKdGlm19mbZou89iqLh2t09+Hd2CB5ScjfeKmq51yid+hGOU1Pr1HTRIUSXp+/D2O/Re/nzm+j59wi9bb7C2jetYQ86w6q56Zb9FahkD3OC8albGbhqXX25GXF+eaPl2f1LpZV4HEuYbpimDAqsKiYqyOrtECiYOzEDK8yMBbDQKX+1wnHM65BhACLnD9HqTrQhvB7uEUxuxYSlZCdycKiF/zZzk6YkHu4d2swQ8YifcdIZ1+ky5NGpvAa2zXec4c63+XhhGH9WOCnooiVPu+cF45LF/he9WUDen0fJaGld2L8f23vP14ViY4CAc/hTHaIV1UYU4z7ZnuqQ6sYQ+CnyGWu6Se0wobj1xlpGXCvsUg+8OzOIgff9SPC4TPwodMso16YhIHxEse2debc0idI+2Jc/wTlrc7diScp/SRbpq7cY9CT4Cjot7oVd9Uhf1NobN0NmUM3fO9vdKvE11yyuVh7kirE140Erd8MB/gIaO2MB5PPO5/gZLHjMXvs9NDZCROWU3XpORRI/Fxdu4kjv9CW7ow1WvtqH+2ZHV4eDG8znbTben7duwvDR+tz08hv+RneUGajO2uprI4K9h5re4FxXQFJN50+bY2PHlbL+x+kP7939/ZP2/z/qyXqcPTushI/H478u5D4l42/OeIy1GmQNc4YndNXd61XtbgFggC8DW1SfY0ywmLqoHmLmarVBOY12J58BIzHu4vLwIA8oQUIXwX7C50lr3k2TkvM4LBjzH8RXfL2+8joFwx4B4EUSzYDSUlqroQAYJCwTP49yPw8LxL0q9bvMeTD7MeBjLBiZFLhBAKgQnJL7nnfv34Y4D0eJq8nBx2PVjWxV2R8TMx4mvU0Y+VTsKK02jnQeh7HXPP6n46RG5kZNyysNog/eul/dTvRle4eOOpFyPJ8HlQvqAFaEc8TzjUK345UrfEu5V6pUN1cxqWKhShot5Pr9Dg1NolpFz3vLDKQn1os9RhIc09+c/QCzv0VdSgw9uqSnPplGuW/ybALsk1uv+74/XoXFNSwxI4z/djSg68VVf3vlJpvUS6f7xdY3laeSVbMQzFf5SJmKRmK3krVdKCTj4UFAeKCuVg6G9KZ3PSBq5Wk4PfsbbHAnHfF8DDK24X4DWdmWynK9P/WP5aaPOEHjjK9fvvxIjElKDQ6/EDGIefQpk5xo3U3BLW41O3Zv3XpRwB9RW3L08r7xV5RJHn/aHePf2c58ixbvGrJvJ0S7NQWnYNa4/DjNv3uuvbOXato907/Wg9VG6R7lRt3X9xovTIzuaHFxuBW5jVWgELhhcVMi8s0wngJUYg8oIzk9evY0EAFwixUAA+Nu1WFiTuQsb3QOc/YXvXXXZ/boW7NCJl9rQLNY7cw3k8hAc8TD9a+tozRsoYKxOwChZIHYScKxc/Bjy+OO/xeDzw68tbWRn8nocD/Foc5o8BwnJh7PUHOEfhsfvtjJDqLtKz6ZWm/C1SesL5RmJPSJ2YnMWkLfyiKGbprbqQ8Dws6oey5T/1Sd1AjFvpiLSyfpP0VQ12KSlGzS56SgfqkP8+oYOvMdN4eommzW6oYecfqPQcll4ViCPMrvatUhfo5OQPmjVaqhfIxkHcVVS13D+yv31JN/ne3Cx0yPUsJRf2VHIoXd8Q1OmmXJhVXtfu1WamNsS+PNKP7F3pSzoKYMkZnywNzxvOukoaQ68W75zF9aQReXu69Ol9iMG7hvM6WIbL3rg+G80KeXUijtvEylCav6J2U/MApaeQh8IwW1gC6OD5ojQ1heg9DI7UJ2Xr7+eqpi3HTwaaztq6MoRft0VucvTbYYk6JidrSfXGun/7DXRPNemNhYn6maBA1PI6Bmr8SLoNUtfJeld7hy0xbzN/qtxFt6qz0qfON0+8uAhnXlxmrfMk5MrLzTXv0i5+sSEG4NedwCF0n8XrAsIIo383SwfCkS51/OB3gQ5OWio9huuAdLhw8XBjYeNEyT3+Y81/Lh1kQroRFtNsXfLR5YX7wIWX/3cULK1VgscfI57oFWNlCkRxvtYVXBkiPvLvZUaaTUkbhPKzifaz9qO6jyq5j09vQkhsquMTEL0e2O8cqw3wn+vUM3WPVKC98FxDXatLdIZV4/d3E6yoJf9ONEs1VbnC53ric3bsq64NGqdqc8JTSm551/7TRhw+4Y245qnmd92zL40tBxSN90JvQuhWqFyiPdId9EBLuva9LfHMZ0p71FTHR+/QJdOsXYQNWMKbUYCVB8s12Yhw3+xKwJwSJa2x0K0cg4VMeyVN3l2NMkAauLYMvdJHTQFgRnoXpR+TDh822klpe1MWvsuINr2dI2VXWttahllpL22bHmNnlHXc9kvBl4s0tUFtU1roWXFFkzL0thCXsV07vnC6FJ4WJ/SVpy3Hz4B49vmaujKEX/VkNzaXuMkMDF5rxAsfK3RF6wIL7ua5y157OnoRPS7az6pk4q0Q1Qsmj1teaoW5Uarq3T7W7HJM7EGbjy0WhCEvNVY6oULqsSAkVPx4DPiJhVsmRBBGU5Mwvdfgqc0I3nGbCeAz7TebAR0LEY8jFi5ZuMvAf5QHhGucvjUF4VEWcTexp2Fl8HRRXi5Mi9PqZLgu4XFyZLz5mWz5E0urGdqdOFJpr1ZKukDipKU04R3nN84D54AeHixllm1hRaMouJ8qppx11qKnpWfn7GMK3HEa+NzZ0jnW3mbaqzuHmeXFZUC50L7iNKwIJ1kzqm/JRimx9tLNlLiedL9bi29xeNZJEHpryFdx78ny9fhY+qIO6/Bs2KxGYxgT9/X1BfBRnpIVDA8tBzaKQakBFZVefrGm9KijHRI2YamufUzReL7GwXpq1j5BeV01kFbaUtwjAeL6Bdb2GzXLehWYEmDveXIsa9yZdEheKVvKwf3zDpIG7sf1yjlxcv5jvEe/BvyEk91Mb60Sf413NTHvG6lqu3yy288OLNp5n2QEjRiEpCFzXj3wjJE4NgALfHh1Ea3Ynl0uyqZnjfjaXnATWIkJupYnSH++qo9uLUl09oa3aJzRaP3UX2QHQsBfakLjv9+nISAQ4hcewenCh+cyi2BqMlzaBYsZ//jh+vIC+0x1160pRMw9Q9idjrDwRxzFAsfBf8JFKHlPAM86uO+Iz0uD3yf84rHeZcJ/GeKyAjznaXb4Nceaknhx2j1MrrtzeJyUC2UqvXvo1kZyvYzEmWBn10ZzFaWJerTyvZ768XB4lnoqjKWH/x7fIo3C8uzBumUj0+153okGPzxvZXW+nV1Gh/fnGjjhbE3dt7bE0u45EK63E/waKbOV7zPnqcIcH9f9IVTU3IUsI7P0t+uqdO/EVEB2WXtLam3K7mdYvFl7bZXuqjtSrH7H8vV4WG8jcfYhGGNlMINJkzEsfWF7ddJK+XAkv15Oy3BJyn7/3OONW6Dkip5G4q68nqdR2x4c3ruN9K39h/QJi7JdPpyAQd61XxqJO3jOv4hmyscwU5CMU9q0v1dTjmFSK23AHSROfBnqp2wIhcLidYDDH0fKJ36nc5QZ8DqvrStD+NVa5C8akbdoJD0wMXvVEIe8foBXklcQGmTJdj+TO5A6YgBxzPQh6hE9nM5S9p/C9qaT9DiTxzdNMdlb2Yp1Pt2VWEa8/AgaxrVjEBMxA3/5uUaKiN2tKq7h2D6VcWwIjPsceQb484VcINBnQqC46PpSMLmoaDlQDNbsHo21hzXN0ihKxJfh/BBKiy/GD92PgUAnbs8fJR8TCIS1/ASuH4aHAwjL01OcLm8JwOsK4qAMUP3iNFG/ThRedzzLPc5pOZQ3hMJzXCun9HVrs2b4Jhtae5lOeQNXULzecQ2V3ru3kn+let6sxZfTTro0aWHXmTtRaAvDLjD2IQxvNz+EWmqXltOQuW21sNrtSre8WId9PFjDkyV2b566pdOsrTfTUw+2kUzpTa+wdHbB+U5038f8hVeq0j5LwszxYvS2d65zIF8UoOKyjnGSyn9ZS4tqYr0DrwdTZNVN9ZpaGsbRA0LeF2Vx3mdxnjrV/rsl7yAeFALeQRQSEMdN2KjzvFsQ8m66On1em+gbdXr279nyuJ3IC2Ewzo9fD8fAPJIZ5qI0Lp+vleUzx/L4CS3yISZZ1tYiPzq3yH92QLoLxxjx8qlwg7+CiEQIGrHcrrM01EicV5dX+IyHlk7ZCf4Qy9xDrHcx4cKr/oDxLOGk/8CSYV0xLzhXIHFi5ZxrAGIoTPpZ+sJD4tyPVQvuIdwhcYQ0//0IUZAanokExkyzRPr/0U6Ik+ueDm90xZOLYpifo11h8PXNhEFOCQO3MkTpKNVvfB+Q/tLAs06kgOfi/yDMelpNuDLgYTmpe7o8zdz3uiqU73S37HjG7+GP69QJ8B6XBZq7mO/EAsqbfFKW1AH9P0ZIuz6h5CNriNMhN57xMCAHWiLtgGuTlJz4tRrd/Krmp/saiWM1o0wQJvVk4bVh0hiE5NZlaeVK3FjEtPBNrc2+aSSOGW2W7yc9jcSxuGmrDXXlgGv01Blt1O8YU16MyBPT6ZIurJV27FaYKLoMlStcViqJg87he6WULV8Po6w5x3nbzNAnvV4P1ThSn6aY8LRfr6dF2lbdjcR72zl5z+pt941fNRLHii8mcUA8r1kz4UMpKFPA6xlQvvSm0AsF5umSKX10/uTbwhfRZjYyA2EQdeFvPn4dluYZ1BsgnQ5vF8DbVo4yBZiveMx7dVwZY85fLZGPStvqpkod+XpDsDmZLnNKJSPveib+rKJ4vb/pL7VlWNSALfrOUebHZGMHs+QPNr8nq6deTa/UycenGj0uE9+8wuHVNcGXCQyEB0fu4APqd8HPdZ997nCBhsCPzxHACGxADDwLGZDSaMwuWiecnNVd6fWnFv65YuDh8h94HKTBSR4/2VKjbCCYEnJ4vP6co/g/4Br+VwR/xvMF4nB4lg9jeBjcc+dYWfjF8Pw5MTj47/dAKfXRlKVdhrrscoZ/SJIj8UO49Hx4fSxD1XIvm9UGcXKdsHiG+gLEyfM+lky8vt0u13Dcx0Egf9Nz2leHJXTFQzyESZuiPfg5xOpkQ1uLy0q6O/2XJbW8WeJWxwPa6aKWfHyED6jgj7eAPFRUer5Z/+VTJQNSnZ3UV3KdEehjzF6PlYPXNDRsCrN8HCsG++DTPn3uCPmifXk5ZuiU/FZ/t+tbJJfr6fSOwlVlk9W253naJ+A5e4OG8o6V1m0e1ePpPEf5xPXsYFIb+bYSSE0jP9DenQfSsG5+i4ZzlH0l0N8P0skxynNfwvbeNu6TLo9n+faQI8e6wK+WyE+uP0TvaMcwoWXHXtmr94IZDAPtf42njbo2lh6z/w+YQYqY4LXd0Qyd2XOlWfbObnKkWd2ju+k7U8/uvj/R3npXrYzYj7gwDXb4LFarBbJ+SZXnsx49EzoZELAII7dmeNldkLkgIEbOEZw4zhEmfp9zLDX+Ew/C3K5dO9SOy6yD5EKzjiYiaPAHPFyHnxOmk7y5QZAP964zhyXOmHnhnqU3+/oT8QJmRJWGOB7Asw7OS7tfdK1d/Ax5dFeaQP4heLmVBicHwHlF7ZOysJpzi6uB9G4gFSw7yJayt7DCOmSImbCpR46kjSOopfSf9M4QLwoLZUaeeJ56jft4uMZgDX7p78EfzsPaXJtfhh+ARU1Zebg4/jNZjvIBhM21Ze2hppmZbfcZZK12cfgy2aWjLrOr3g6xcgnfrPMbr1XDU8ySDYaq1wlHyDBG3LZKQ1x/+MN//D1vNlQqxiIN39VI+/QLjM5Nmzbynpjeralv/F5T30s0Ncymj8I9mjBLg5ebw+vJn+U9JE104Vv51SwJS/7aTDXtPnT0PKlek85V/ZeZ7Ea9+bMcec7ck/aedCT+OJ/A36WVlU2Onw2xKFlTV4bwqyVyvZfqrpM7ZJtgNJOOMgv7IJOl7Y2gF5nlPYnhGgPiktcRfX2GGTqTvjPRWcH+TDRn73Cr5FK1Mws9fXcHpX26aeL/bRfERY0Wdq3P1kr3OltfHUhXJ8IdoevWGPDxTUAsnONcAHBEaEAQLDXjnDC4zjVS5aSBQ+VA0OJnGTr/Hktq+WvfFzCE6bB77Qr7sC8lTNbJI/hI3zzNrcAAE//tfoWwQftK4GH/kFDzPEdgmsFSeD5xGdmuOYri+R4W6IXkIzsWhiYGXWV2mwn8sKoMdqPsLYymKE5ujcXKACA/d2mHehOscWH1gczyy4AVCYmSFs8Lz5A/gF/+W5k3RbFqr9ZX8oU37nucVgeBSKgX0kq7oF5iLLNWD05GGQ12113/7qBk2rW6JmFOCQSONU4YLqEWawu6lfafFramXfolsdUG6Y9BVzQW+crq7hRpwk1hXfz7uzfSi1OaqFFiyvAuJdr26FRvp6xvKw53VcFz/qwrJYX/X1orf6GFhj16YqZvjOqgLn+/WYfqCZWEMiDN9M15GZmnpUvP4vSsanvP8bMhJuQ1dWUIv9rJbmEfdLTuIYuUPr9RMGRS466ELSbpSmM/DLrHz5JGGocewM6tEDjDfM+a4/5Ue1Un22vLNyvsuWTbW80uPzuIc6hthrmmNa14ka1hC1FebIQBghiC5D83aRVo/FhVCG+6Rt0f4L774wg8LP5zdKFBuKQAoe7CXnoxfUx7J95tWwwED/ESP+A/s3EN2zcxOc8GHp6WWmap1tML59p9dqX8kqVJ3IMEIISVwdNWDOIrTejhn7yBWAFaWxTHV1r8XANc9/td1TodpuEJjQASgDA5co8eC5QdyhD/1JWXGf99oiDnjNcw9wDgj3ySP46ojtRbnJ4snIvSRKPUUq8k79g/ypE4fW06CgFpwW/cdkqD52dF8HZ1ethB7thNLY75MFsMr0vq3duNg/CZMUJ5xLDr5bpq4qLt9PvnpirZj73Mi1c0AC8D2qvnD3i6iZP0ldaW1gLs2246T8nzXVTyRi/t0/hJU+asnTNhHtEyubAsL+SL99XemfbtpIH+bgPSCOL6z7Fq+Aknuz1hLdiMtzXFPBMBVQ/JJ7v9/GAfdCPg9KuNNPBU6XaTF88YOScdn9DCcdIUk7kzWEdq5wdcZNebpxrZUZpmpD70aWmWGRXTxpr4nSuNt+Ob25rfMR20g4aEzslNrZHsbLrFs1/8Qc/zHeZOWFQINyemI7Wk+sW6Ud00Ky1Rusup+rYq/fE8jbDwsXUEAuCcBsPRhRmCgvsuRFyoZiSe7uIbeqhA4ox1I2hIgwscF46eLoeZnu2bqMK42WqXEu5J0oUI85NMuLGtpnTEF/epT8o+2iZU+zNWir8YHocjFrzc8xfA8+bw57j+mT7lk5oBxeGB4mv+vzS/oPg+Ry8/4HngGi6+f52GP3CMrkzpjuGaW7r4wUr3JV/UCdcoU8+XT3wkfPx6mPhzgc/RGlNlrHfOeXYZGeykt6x9vWuyjngIi+4Bt+ijnpg29N44aHOEEy1HY614eGZFsPqc0FXpU7X1jTZRerC137DL3zLcJtqqpXP/84KCEeLev8TaCm0XRaW4LQDL8+ISC31DDdrP3r29mIwJ4rp3EgcxiQMvM9r48iT+bPq0vT/L2vsPI44TWHobWZt+/j6VJEbSppO+kByoYemBUm3L0STKmrwxXEHZhX63Qg+NpwtwjltWbznKIIonr62JK0P49RI5GFSiVxs1UvstM9uGVzs95hC9W1mqXz+zFW5/0Ei7t13vnGg3q7x6W2e6eA27X8vI2l9Z5iQ/3zzRnTpabRZ+qk1MHg0wkv8ieVl7zZFu7YOwoyv9PL2tHiaOt9XfTB4xTapC5YXqN0G6wfynF3XW15WYoMYd7ypFcCBE3NrDcY7g5j5AAGLJkyIs4ypKJrBEBxQEfLAIEbKkGH8ubDk6ERA29wx1pEOrPqFBfPHrScvw9SxtMqIZZQJ8/k16JKmmTsnvpKb2nx6LpUqEoxBOqeBefB/BvHz8rVK6Og7TFknfbDndSsNzuJ/YL2HG4F5p/kAs4IufMwvMFJiTEmZNl1eHtIrSI7tlt0J9YZnROsgHZRwLc677NQ+XuPnvVnmWlle+gnxR5LwXAv8VdfJfh+juK87U11daW+p/nhE6hJwtwcrCoS2YwoaeEerU2szAtqqT2rU+nq6uGnqlmRLF+W7NKgcjwgaUc0WlUy2OjQnt0YxXZ9gRZa4AWpvGVdHTI/dWr6t5xuJ/psTaCu0IRSUMrhfmZyyPXZIT1W5fU45fYna7l4vDe3VIv0+ytHwM8nAoF2+3IDvfwd6z8ug/o78f3/KgLHGuCPh/Kzt77x95nAX6e0hH9wpJacPues1v0AsfW/1WONzuUW7+Ps2QZjIhMU6Po7RrOcoMeOXW1pUh/LqJ3PC77/4d3uF6Pl/LDEvEyqNT7PTSTDzXMP4bi/X9nbmPMlEzcLK0Sb2MGhFd2FsAup17cW31M0OVzmrExTxT3M82Sx0hsGf6nHY0pZ5RQmwpnt+kT0aBM9OrlVx3qyp9lwYrgDHRTJghOHySE4KEWBizRAgCBLhbMSaU+iPgAdcRUjEKAjaAWONjLFCtpZomM3RTK5D2zSSG2YP4tsTz/fJBzOImTsvhuBuyQilXopvTsDtKETwNxcc4Pq6RXieY8sECVTv29LbA2UmtVBQR0vdAuD/kx4HfyLINzy1LD3VQftA8bduf0ahy6pfMU/Iwu/hBvLQUhDfzIcgXY87Uk4dhBGPlk93Lwp+e3lqY0U7501Io3/La/TmYmDAdPG9lY1WXLEhDe5l5VqIN2tPF72mlARO2mYjvmUJB/TQ9g55KfdRxB918/umqvridStJuaju+sPPg0i9/Wd6Gl4RVDprMNUuLJeX0fW5WjUsWKJn4rtJnj1B66Q7h62N8+rSFNYv0qUQHnDFal17KhDlQCnmFb3UXw+J6zpeooax4GQM/h7DZsQFYnbRbFk6HlHZCvsuL5X3p6z2CnUzv2SMtUJhjUG+xcub1AbKyS19FGbOys3JtdOirdo4yau/W9lj4TMyze3VukxYyH4I84ujh8CEwfzdjUKfEjcuRY93iV0/kVSd8q0UMzRhxI4I/OHyz8GruRddJ04yfFh2YiZsdjVfpMj/KLJWw75ldZ1sV6PSl9JSlW7UMMev77I6pjp7PLmtP6xlTAL7ckI8nSy8npjgck4n4w00YothNM3mL2G6bXGqC6Xyl/2PCaOYope2wvCAIEyTXY24gQPhParAEIB2eRGVAiCOgLBfh86n8xx/PcB5hOeHqqqULHMLg3J4ZbQR9v4mrOy380d/olJTSsPjQQCDzAEprkRqnY1R70VSdu8UAbZb+ya4hPDNBuUxwxsdYwHHONb8PFmkXTVBqhBXCMoI5IuXTkqVhZcKSMIsFOekqjj/LR+aKyivcz9Twby+umjWKcI1w6YtBoaFMjWBasv85z2MpUz/m5/pCecM/S+Mxukg6m1EX1UVLtmhtoGQ7Nk25S0NTJzLDWV11x+snGjEPCnsJ17KG9914MyFDS2STGrqhaQeWzuNNOWjXS6m1w/RwKz8zMs9NBmh2uedVkhhJNWWs11TIMOMe8BzwMqmlN43I70jsQdM/79QOSvqlSq7uGb4+xqdPv7jb4jZFdtQAFSbMkS8y6MrlikCZxe1vRUDh9LYZ47WgQGVlvEhVy00Nq+d4d5PzUx2hF+0srlvKGv/F4A3Mwkh2R6kwf5MHaeLuu9s569GpO3CPOeaL8GZb/k4/T53STy3jls/hVs7VeB+z+lzW3h1c93s5yhSQ79krvWYu71ovYzB5MWquHfeRHkw7arPKX4SRzxpsFHOjtIdV2CS7f7gJzgfvbK1NTI6PMuKv08heURNi9bfO6PKw5K5AmdhUbU3Aqe8Netxk3f1qFeq95lisuN2Unn+2ksqpTn1viUaZTD7OZCBTZw43gwqxMracvfiWlq8r/VEP2P37jcjSx03gM9kmCCSfHOTCClbhSYSIkzbCfQ8TMj7TPRZshoklhc02uB7YZQWw+Fp/o6t1qZ1vorvKmxXS/oDMOv4SRYKwcQ31xu7NNTMx0jBl54u/8OUMROvKhDoCDqsLcI6AXz6dCyxPyRDKjYliFfUISlDIo4M884yHA1yYxkK1WJATBpawx0f8XoYOP4d0OLdymtxF193e0YiZLnTCxBF3oYybm7I1itn+cThGABfin2uEZX4aUC+e5kjJGFViypJZeXXppzGFscsIpYf0UP30SLXoN1Kn/eVeS0M7vXF9fc0y6/OFQygXCA8Sd2KydNw/WpNSI+ujjNyue1FJXa6TBsiIvNJiAeXAcygQgHuUSUXtzIpJI7PPp2yquemZ2U5/4X517ZKcos2TEUpOfFp/VIEEQ9yURxx2aSiuC8MAwubNKUZWJ5+nvVfySVKLb0zBJt5/hi5KmYlKuRTD69rh1nR83V5yXtb9aRuccI98QOpmmU+2cuq2SH2S48PE12MPNcKfw2RP/OHid8nDjcPPUWbghLw2rgwhJ/LR0gFmIU+7QupYua82OSsTrSM/MlvrBRN9Zk2DoWOlQysP1xsf19fhCLmv7RWFsM3/cUbmdfYyArdjXSPm5NBUvc16bXuRdLD9P3qckdEc89vISBDj5UIpHbaBWh4iVf3vrVqStg5d+th1B/DBseYmOiz84xpkYm/gofYDN1eGALDAEUB03QIXjAg9rANEGsLdyCDMlHdSWV6wbpFgUnMNIQxciOM49+cGm+Ciy2JWmBwodgUdQPc5c/LxVxDAYd6XpYGNv/rM0gYz2bjWJ4N5WMXwWc3EST48LZnwOzOxCK0stk1/Y/8KY+9tChuzLAVhU3IeB+UQH0tDHdVO2c4TgR0DQexl4OdO2tJpv+uriwb2tWJ2JYA46dS1cq9p18bg1y05kOUjg4drhBS6r7O8px8yaYx6y5SeuxKIkL6duppniuSgJ+xfslijex2gxn8bo6+bJPokmaIaVn37TMBip3uEFku85HmBLkmf1gEaqcM+G6x70+t1x1Z/srqz9NWk7CBzTxfnPIfVCTooHUU381ZKbrlVt6X/p/nJfG2pT9Q6/b1d5zmeoSGgbHj9FoM2sbLyXx6XnHa53li6jitSbAxsYduNcZ3Ry61DjGBKTFOpc/qindfRdQnvBcNRtSzvE9Qt/TasD1/Wtigv2j2SmDpeJpGfpidpjPl9hi50T4e9TzUZG/9YFWpb3vtbGVS2F3+hvRm70xNC+RG2Oy9bj8+POXKsO+REPlzqObizttXzmm7kOdKU/z0qmSgwt5O97+zytrNZyCwne83uLzYhOv4W+2P34bZpyHQjm+SlOzXWyH+Wcd6X/RLtlZhFZIrAdPvPxhtLjk008K3jNOI6adzxiZIL31VY3lang445yxJxcrbYhv0vktNS1TeLP5k8U2cYN7Q3uZR+m+jlr3YxD3TZQtZYFMAFB8dolu8uCC+EFBYXgqu0cTy3nhyxMHJBjKCy/yU1VHnMF6re3v63gM0JjzjoEXhNj32xnwnBHbOhWtXQkroUkFudhOXpdPDfXSzs3F/hWJOYNlXb8BEaiw+FaCnIF2GTT4Yefgj4J9w39Tu9q0Yp46EOrhOOl0Hs0KIW6Y5HOip5ypSy0CmCEIcIiN/y+SVL9Nw/14jL/wPvvoYgUMYYlFmg5LdMnCNAJ1juW9me3l5Vn03Vzryl+zRVqy6P6KPvttYmZnAeUjNV0vtGJbuiNVGHmyodfHZhvbe0tT7UZ7Nq6aG5x1orqaUD9ZQem7SfdvvC5y94mlBEUCBQVEjvWCUt79es9HANS4fZ3QX2XvTWsUkvPfbcsWEDpM4pZcR3+Klb0hyjUGdHm+XaB6WzNCtbWjLLZ5dnytc1Y69QY7q/AlwxzZDs2l23Jf+xszCeUSqSq2/VawmKBe0R5QJFdp5OTPZVz6Seen1xbmFzH8a1CYcyjknc0nFQiVrt9KKdkweUM/JWaA/hs/Av6dGqR6jtNaZQzLdrLc115HqO9RJ0ja+tK0PIiVw3qUWYhbxTeIURLezwhlts1ngN1pp/aGJ3X+mj9Ag1GZOJgBHMR2LJGTAZ8qJOVTMTuvXM1dwiVXO+oHSfibKqRhsPm/gwuXDKToN1sJEyojPdd4eMyBk6Z3ts42g+o8o8nqenJ+Fa2qq2ku4WjqVhzLONtWePCebPCcsJDJCiGJaTCb72G+HugrsgaCN0TNnYJROoy47499IoxGEG8fzmm2l2ObPEw8zgPcK4eIaKOix5MkvGABPEGPusMR+NJeOz2IvTwH93gLi459cKQtQMxC/u+K3+E/rzbwrdz8vChHzwh4CmolYGwnbiYbOXdzUxMS0hKDoeL+XFuafRzyGGKkp/Z/VinJs+y7g98fEMBM358nWQNjg7kEOWL6xEFB/SC1GZElZS+K7e/ssrIOmdnTV38cVKm1kcLSwydjC909rELUdY2X+rmc2qat8vTPEL8WHJ81nPSkqOfVvtE8j1dJ292UAtqrmpylsbbWkKap36s8KWp7WWdieDWkb89AqQZ1MsKmCtc2+SaiRd1CbZUycnpk2G9A5Wsl939djrItOjqAd2j6M3gGdjUB4Gtm5vUzgPoL7Ie4YNavh+7eTBSLU55RSX++oCZYa3yuqytYVVm3ZH+VLfH6tL0kT/q/9n567IQPakz+usme4d0aYww54hIQfpoUyyj/JA9GNRwI626wNw4XKO9RGIjbV1ZQi/3g1hHGzvaPw4ccp2+v0TUwP5QsysIa9TWA57+0PtdMZ+pomzasfkRXq+iTuTEbzi9UzWjTeBid3aIq2g6rsu1DsW3o4Ye2ZkjLXHmtWzgp52rSamfCPc7tWYqg2qp5owZQftXGOKEjaa2dr8jO1tCkFntTjG/jNGzxKdI3qrYdpS7xzVJJB90tiqq00/E8KjTHA/YJ4QMghbhCop4shMW6wKUoUARdAhlCAdhHksZAEWil9z4exClWfQNGaZi60iDw+ColXb//sv0CvH7aQ97nlL957URvfqJA1PEPxYSzF41uPz8+JjBHoX+ku9m52tznS3BwFMvrD4xpojzViACGJQHD4oCjPAy8uPoJT4w/0qVg/NNCkZrTE6X83DV7woe/JfWtjH6ur0dl1a/m+WXLYApY5IM+QS5xXrnCOkavGgqE3wIRH8kEeIh/Sdq7bpQxoy6GTd1+4Iszj3tGsQFj0x+C3ko2WJWjw/UncZfW33yKdBAflzgz5m2fKOxMMdECyKHn1BEDPp87gcxeWxvSal3dQwQXmiHkrLe3mld3fTC+32UIPkFX2ZbqtG5d837+TL4fmn7cTxOSDm4h6jVQV5A3GdOjy9fg2/e+ng9GONSGjP3lajMJgxPwjFGCxW7fQEzQw7R6E40f6Ky4hnV1Q2OVYMhvB+og1h7HWrQnWvIebZa1/Vqr+sbAiTEzkvYYWuunnB6erY/Q4NvSITnbUKXSc1drUfVoGxYmehWdfPZaK4pZHqZ0bYtYxXZk/KCFwkwYh97C1G3hgzELTJxlnPWjinm/+/m3/WW5u1umiKiQh7pArhMu/MAh1vMqTp/amWnJ0oMSssPdWsl9lmvXQykppv/z8xK82UiaQj3ZDltWD+2fpTpTt03/vmcXt2pvAvmmFlQrp030IQrj4iXEoRnHVNUE3/xk5eMetuoVmrWNoII/z5eCdCny5gF4AeDnG5cmDhYEFiqTDkSTc7/yeTLqy4YvACQHDFgrDo/0AL18Lc7MUP9cVdv7X6MKFa28pkZoG4lxO0RXlbmt7ShCqCmPyxGJD7xX5JH+Hxv6sVgd1nongLqUO/Gwqzp38I1AHCHpL08o+t8+2tPbS18oLkkCy0LsqUwrvaHBbiMuWLPccZamh+3xtKTkQxRFkDxWXosHDq1lHaPdHs9hWCtb0MVsfX2n+r2onHbadGycmF6w7C3CN0tddIGKMOi7yKUFr5rigtMZzs4vbIc9sovfRkJU+bWAqz6leVFF2Yep2sLA3co6w54h+lBAKnnZIWb5fA3wPg5zznKI5jZfHmWDlyIl9T5F3rLNXpKXV88A4lW6ZmbXRW+bSOaoyTOi++NXiZZRY4a1S1X0aLf+QBk/+1IOtDTSSftVBjjdSnvGDWOyTOXBueYTZ8c+PI76Qb+ndQLTN+HmWimxn+TJRjPD35KtUgM6jeMTnS5ASp8XFj9ILJ8hlHGK3a8WlTTthM5o0BRu5PvKt5zI0ygdIt/UgVultaktOUnreBGqV0E0MOAMGHQHFiB/xHaCLIOY+E0XSIki726UbifCACILAQXCgEWGmQC3AhRRxGQrX5iAjhggfMcjaB303a9u63dcQ+ZrUwpj3OV9kXw4WlP098jugc4h49wkTvVxp8ymFKHzKFbeb4QpesIZA46c3yPSx92Y5UggvV0gQr94yYOtLb4N2pxX5jAT5JT0/bO+vN/lK6dVxnIzhXHlYE4qAOOELe5BeiJr/EQ/hWvseTD/6jLOEXcoZYuIZ/lzjl9fuxU9V89zd03AnMjofg8Q/w6+cxzDo+w9rOqXONjAvlFYDfrZS+YcqhKaON9jSLeSmiMK89IGxY9H0SRwHCH/HiABPJgKeltPR4vZJ3f84wjLShWH0QxryXLY0rr2/nMAGvtLAcLXW1vQ/pW+HlKCAKeylIM2lkORnh0Ruym05L6XZH2aL9uPLmiNuu3ydswvB2G8PjXVl6c/zsKB7vXhNXhpATOTKCobN9pPf/vIVe1N6qv/sMySzzgQ3PDl/RnMfM9SOlP1/aJ0x7StvZQ7zTzOdiBrvJA7rP2Q3OkdyTarRZ3bPM0KLT8oLd++nGBmfqciOZj5HNZr2zM1zaLQnbtkOX04z3btAFamm8gsh3cQjNQNFvaAc9s/Bg3agz1TNpGz6zCv7x+Ak6NdlDGgOpInh4GiFDIgFHtwix/LiHQI3I8vQSXZQykQ4/xIpDoOHXhNcgMufXSRnkYoQzk/A8HnLRTmotTU2e0iN/N82ENDaNu1RjEBYgHo+PNBF+cTpeszB/r/MYrzAjlwlgYeJ8QJQPe5bx3YwIi1Vujw8UBG5fKh+r2eNy+Dn+rOze20kHPDxaj91s2pwpbdc17ajqXSE4iMH9FpSdgSVGKj2kIcyEBJQ9pOEgPxC7YYgpVkEhIQ+QpcV3bYlapQxlAMoBgodAyikZl2rHV8dr8NBTlD5L4y3kIyAuB8dAJffR6Ub3fpw/6rWGRtNDPMTUlJeJwxER1MUDVelrH9OOQX7IVxwm9e8gXXHaHOSdvPhz/De0oY2gJvOMd6kT/jyVt2LcLWWcq4BqXl6Ol3RE0oes/gAK6WvEJkPz1Ce9W4PTmwrj/qSJN413h+EbQH1C8A7Sxn1LewPCKKQ9x/oHmvjaujKEnMjZHGUX6ZrNO2ljfasna7TRNwwbGm8lw5foH8ecoHqspDKr+e9Pd1Kdy+11tvPRfITKiHiW+fv4nOpaZOS8yAykM8xI+8YEfbpZohZG7i+ZEtChlTTCLPoayW2a0GLP0EF946gzTUDeqGTilzrEyAmRVe8pad9tX9ZoC2dHMy5amFHJ9bYWf50tM9F11Ecjgsj5tmpTbWLXzhyV6k/b3hfoZGKz7ewXoCkgZBA83uK8C5ZrjD/69WUC8bokVbplMTkQjrl2jMcj6LhHqiyO472blrAQzHaPHelC0CbwJkq9jjjXzp3EYqEP4ngcsYDmPmTs10o0M3lVh205WD1GXaQJH+1g1ygNBG4h/uVAOXAdP444DfhnIltxtz/5o0S5bywyyBSk7W/WZUdeosN2fdb4YJSOSfqq/VW36utKJ+vzFKIjDcRnVmX7kRreaF+lv2FSnJXRZLpuuQeYvxClh61AWfIUCJv4rLws6qcGtLG6YMtUlAEmb1nZs/68Yy+zP60FNV+o5Bqrrzt9BjiAZBzESbhWdxMhSeo8vt9M6TmHqIW1rTuuPFFLkg/Ch3U0g+EpS0tYN46CQ7uJCYtwAEM5VHRc5sX1G5e936MuUYcB5+4IJw4LZMpOckt3/SWMPxVgOtyyNNG+Kur3+lpJ70eySysE4X8QVpFslp6g86+4Tcee+piGvm3KZygb7+EgXvLp70wxLJzJbFcMivMMuObvV44c6x45kQOTWedU6KNNK8xW/1mn6MP522hyr23UbbuuYdYvPXIff2zCHevyMHtNb+fb1CdoynNGA0bU7ySzVd74oPzjJvMvaqtNjOwHGdFPm5ZtJDP2aWnLtL7amXXPEmFEW2KkfqfO19OqqUfsGGxakyPv2DNB5Bu3DDWjcqsNTWl42K5/ktmY/X6b3X90rtlYFlb6dRKeOdwMln8mrI3OliBlQKDEQhjhAklBjhyJFQKCtDKyTD6xMC5GiCP0YuFLuCzCo/uzQJDMTA9hEkfBP+PWrJLra0dzt+qcsL1nBhfUHm4Mv0easrRkIC6/Rpo/1vBkY5W80EtXq6suSem7574LTsKOwydc0sc1ziPLbjl/8fN0wR6rhunhShtsZEoMRFglLGXSBCxb6cj0ZQ2sdXbYpndqMt+ukDaEP8MQL+mwZG8l+1FA5r8Bz1DmhM14PKRBWuj+J22xtT5Cj7XdT7OYW3C+RT3pdn3LR3dK2iltmNj5xTpR9+jurYx82lt93Yi1Tf0Bws+IdsF8NKp+gZBnpMRvVm7Y5tTzPFbzbiyv5EpTBG+5TzveLX1nZTC/ZiVrj9307tEoIW4hgyr6csMeSuudbedHZZeWq6fSYGVam1n5LU1h7hrG9/VkF22b0i/pkxbJP0cHYXq4WdzEe3LCFscFPEM+pKvTuUqbMqREefLdfNL7wzjx8Dv0+Y3bKOl+m1nxpkg1on4pF+qBOGlz1I3Dy8zB/0KPytLyif1wLX7vcpQ58LqvrStDyIk8oERVjHyr2Hvc4aO79DfT/xvs94F6Dr1a2143U59dbXTXYraGGqGGSW+PSn/a9b4gPqC1A/Y1Qj1QGtXCRFAyVLeb4QRZ1+sr3T6mXbBjN0mmKDkq1TdfZ3q+2yS87jhE1zcmvOncpoP1ASPntiarsejpEKR7/iQm0xkQMYga2hKbxZCsm16wtBup3BG+RoYwJwXETMgIFoiEazxJDMTENVJDDC5MX1Hja3xZGc8hoApCqRozpGOrDoEaCyz330t3n5NtSXsqa6dMB0jfxXJ0YYe/FZFAHB5+3DImXks7u6eR5pYDNTj5Vu9qBw1OBykdgyVJ+JSKp8Pj8zKQGod10JmVmI6h9wFAwsSb+QnDE5WTsEVsMhkCMQ2sHDMeKTv8jdIbyb+UfH6jki9TNed7tmGAhPsMbRAfcVCupBtXGGNuXWJ19G52HkDcLDwEPDfblIBTVfO7cRp90W4hf59Xra6bu5+u5GFT+ar2VotdX1O7l4aGzoRTXjeyHodF2V3pCd3MijeitTgqVmZzfCPvo29QnbC80uIZlBFgVi4LVLXc4zri9/dRXep3MjT2pv5TYYkONys9s0VJm5ehpa6C9PbUbZV+2Nj+kSfaUAzKz5/BGeGzFI0xECuK7uqhPgf+OXxjfFn7wz/wXhXKjbbIedZGan5nbSi0tQJKMoXkkgf7KKn7Q3N1s7p2NEwP1n1P/UlJJ6x3cuntzdI+kZ4Pi7cabYxeGuInHeSLN93r1RWnGN52cqwXcDJeG1eGkBN5AckXJhBMVu+49Xj9/YlOmmfmb3q2WSUDsn22QBhFZFy8MJEN0VzfDItHzTJPtmRnqOzjEditYGBH6YytBslEX7DTHmmehK+inWJhQMzQLaOBtAnub2KW7MEW9ol2jtiYMcgsbWNtbEjExDMWZweWpRUAZbQ3mdgqbaRG6Z4aZOT/p8MZ9EQ4ISTpKnRBhQXB1pUIIgQSIXJEkGKB8h+hVV1v/LV5tiwvgOuEZZjDciu3xhw8A1xg4n+xTn4DAqyoknuMJSxdYtLz0jhwnq5MWC8Pv8fxPaUPRd3HY3zsmJJboKHJbB0zZbiS5hAX+Yutu2JUNAIO351UOqqHktOdBIyA+T59qBGrjTp2nD9W9yVf2H/K8B4Llq04CZuaKaR/4nlGVFi7xqidmAVHtzmT2yAlyhVFinLBf2ErU/N6mhF1BloB9/BHKyC/xIFC8Iz23nW8RldrqZmWx46n3hGIpprmKJkwTkkLI+eBV+muxJ5BHxmWKOU7+kx2LwwFZ2VL3VqaK/uOeKSfegAv6ZHfnKBDPhyqDltbLc9dqK2bpkFh+KO12QxeP/N0w/zOapS8ouS3pY2ZA/JM2j38N7XBTNNcubbwBqurhuq0598t7YRNXlGOfHtY82NWe1avPO/lQfy8HRFKrE1ZGSfH3lgYAlgZIsWzToneebCJ0hHe20DZg0J6GzHoZed8fzy87cTvebG3fQxDSYRH75Rfz5Hj50eSLz+LcL8JhWpS7wPPVudLblU6M9GUgUbWJsMfPUM6zORUYpb7tE6ZCEZE7mzv/psmwxE39VvZDxvFmL8pdkSE10K4slrscXMsR3vd3ARzRmw93r1I3btcpzevM7G0odl021o8pjXsb0S/eG55vVZukVryJVLkFl9XhBDN8p73oYVt1vcUM+QQcaSlm97Q82qslqw9f44qZeYPggjBSOogCB/HLU0IQWKZHcb4QdWFm2tuhXvt3IUZuXHB6tdcEII4TK4fZHlsIj7egQXTIf2gaLkW4cX/AWHjSCMgnEVqm26vP+vvapWg4kAWH6tjulh9kyjOukYCZih1GnlNYUvZOHxPM/knj1ZhPVuqddcHNTyha/5jy+9Zll8jS8j4PQtoe5Z+MRZCOTq5gjjflpaaHTJjsSPL9/4WrmYklKU9ixdYGu43IvBlZhDrfJQA7qMooQgwXk+aeRbC3V/j08aW8z/raA3RAS1GK6lodftMIYygnMXlDvnU0pLqh2iD3xZeayP298/ZQtslf87+LwVlAjF9Y1bqZE1KRto5aTHNse4B1rDQvFwjcIJeGShv8h3XXUXtm+6g58JHVQCDQ8Rr5TnZ6qsBxMlkMq8rytnL1/MVn68qvv9Meo4pbrekuiM9Uaf9+16V/K5L9t3xkGfSTVlYGVxseWcntwG0W3qgsMx/KP9rksYc38dPt/xsjsnStYnCglE1k8H58rOyCJYBHfSZus7tqbevNa39CSPnzsafRuKHNzWRM6txmG3OJ0+PsuPOZg3PMPm7s1nl9Y1o33laGs9ubdYeIf9arIahp5tlaOx2ZgbIO0dIs64wN1X638QY3MgbaqlhRvC57/YKIuMZM2JGGYnvxFAie6/vZyIGY8WeZyb8Agt/lh23MsJHdHe1tM3duHHYsgV5WH0xISJ4XLi4gOR6fA1BRowuqCAH7j+kDcsxVR/wH0HlhOTP8wzmH//dj4P/ZvkyQa65CchqbY3E/Tn8QahOsvFzgHRwH5jQr1aiISeeHLpl07cYn52k2mkbHRrGOCAFhLBhupHbfKnPPZeYwgSzEgYvWPySkf/DVP5LI8luJUbiBxq5MtO/iuacvoUd6ft4TC22g1BJL4Rp6SnHxDHPJ3EyvosVbWXy5VAjcQgZEuc+y5KwzC1/u0AOnj8r7+NvULuU5wzzIQr8W5kff54qzyd+QHp3Ml6HRG4I+X7eSL5V/RclFMXC+PCy+iV8uoLp7kWte1PTZtVWOitR69cfDO0uI3HqKsZh6pz2NOtzE+2od+y/1+8rOmVaP1NO6K53EBf1Td5XBOoTf+6HtM0zEv/IjmbNohyENBbKI8xdy3pVlh15BrgiBPzaiuBtJcbyz7B17UY97CU8nt4QewEblBiJk07Psx+t/K61+iSZYSInJI6C5ePhxW0VcK20NJbmN0dZwXfWxNbWlSXkRP49jNbC1tU1ki8+mUGW3ll4zU3wNH/ijcw6PtJeUz4IZrIBEfT1BCtGk887NpOabCnNfNdY3jia5WHTMOjoLDAhPPI582PPsu1rDSN5xB5L34JoN6MFC7OhkTeWPuOUNYxn3jTNkTlCyJbRLaQWRtq1zGhibfomYfauKQ+mLFSx9BxsxP6AnT9fjs59BBUhIYAB/xE45MaJ3QUogor7OIikomaXoyv5JHMO/HMf0Ip5hq52Q1gO5IgF8CRpjBXYHO4TJ+A6hBr783MXqC44jRzm9FNyX3e9nPxTyU50n1+kT3ffLhBcttsMQAGxNDG0384sSVaFkdZGEJyHCbkilB/Topo32xGL9wZtdtyH2bi7KUzbhLX4CzT6AEgHQKZ2b7Hnj3SSD8a0P7Z66awrw5p1SIw02P3RTcyZqg4m8Bz58+fnaRC9usy07g9RnKvG6R5Kj0o0/6DNwn21tPhaHq67nz9a6QkXhz3Ov7XG0W7K7Uo+8s4zXx4FCL+f0kls5pKRWuOv39SUD+to+AvHRGm3RtfJz8Fg9U4sL21KNDRZ2hcfcNez9DKEsZAItFYvy5XB/eyfzYI/HSXIyn46bYXBoML9MJQRT8yMFS78kC9vbyvG3MXhM20rQUW1P/UBfTutqibex6oO4iRc6pKhGMqMSW4MiRQUWkaF6J0LajK9BisCYZDOFcHbdY4c6xY5kX8PZj1UMJl3wN/VsvMIJT551QyaJw8xi83I8wG+RjbBxO7nRtxGuJW2XZJ1l/P1zq3N6jYbp8u7JdrEDLp69vwitms1a/2Aw+zcyHwUQ6Tmvwnd5mZ9N8EQNJJO9+mmGhZGfcbBkS1GSIzPv2WypZ7JqxavW5xjTDjYM1PT1po5qqrqW/xNkDXGY5VuSXWcGRE10uq6m885PgMhxd2vGUlnRAwQmBCT/b8YgYtfrrkAQgth+05/HsLCvwvrAubwtSj8rEyw+XWEo/tzQe3PGsLmKAhXlBCAsgH8mQFKyqV6Jfmt0qlMWACebtLL+Vgj8cODBZY9wz1fLgW4RlnU1ReJvQLGY3XrT9IHz0KQ5ph1H0C3L7OhiRv/PAeyY9I71WUV2aqP++TL8tPCKr0F2l5MQlj2jmZKX91A6fxES6pXCssRk9eMoEcX/FSWJj6/XZh4tsO9E8J3wD/o3UCDnjojy0JQrgoT5wIgn/1DWjLFY4HmV75bOySm5LSM47Vy7RMTuYN0FyFMUAtq5g+AtuEEnJXnUrRoob3/PV4dbr9BZ6ZD1S5MMiRMys7LMQZtizAiq32p8gdQwgBzDZahyuGE5f5LQbUuGn/njkp2f1GNEia34NfbL3H6+DvWN+mzehtH/QG/F9d7XK+l5cOxsns5fm6UZmGvritLyIm8NNB92Uh6YTO6Sc2KNktvvBlhBz3xgibfvY2Os/+P3NtKVbCIGfYDZnHPQhbUl/a972X12rVEfzjfyNQs+fI3mJx+wgjcDBSWrrXE2MUwYLIzPY+w9QvmCI/VSRYGG8kkzz2vtkbqOz8ute97q6btaoLrt4v0qCkBx/x2uN5L5ip5+G7dbjLus67S3e0TjTpKqpN8ZHanCVkM1rPok0d4sSYYARYTsQs1E2DXsi6W1oll6fc5wh6x8OIc8igItZ6QgxNLsfCKhaYD4Vj8FkThB0uonFqlTCiI4WEbUYfPhVqFBB4/SsemdUz+85yRfokpJAMtr5A4W8UGy5vwEdoUsgt9SJprb2mPL17Qf7WRrt7vL/b/A737f6aNBcTEg2MowtNhhDIB65+0oHi4dcl98kw5+9oErhW61M3CS3a/VcmF3bVBlVQbDp1vZe/EYWnrZk3vsvfVeNoUvfuoaRRDzJK9cLTSHRLV/miq9knft+IhrxCeKX+dIScrk/BN77s0OB1vR7t3kNX7BOrewf1imL+WTDjzMgGW1nYM0rgGWwzK0gmbdoDGmdVZ1na212Z8DpShpAYP2L/3dFv58zUoOc7qFjKmrKL6Xg7UB70DXsYxCpZxWBbnKK/kiUfCTPTl8+CweKwKBoRhBYZLqE9/H0g37Za8+PRU7nNO/ZHG0sKM2/OK8uEoLR85ygIWb5iY22AtXNwOf37kRL4iYL1UMzJ9zCwdkwMlqTFsZ5NNT3+gPzR7VkfsYCY2Pah0sZssTHtLH39n/gc9Hz68MtrI9l+19tOo3e3+J2agmNXd0oj7dnp4MSo6muXO0cJIPukevn0+ysII/vuaVW2E/K7+aPee1jf2zF1Jw/Cp1UEWFiLoUVMAoMR3dXKww6ARRAx6RdquUlg6FdI1yxpcBYQXPgpd0CEEgAXKf4QrQgzSwypCiLuQMmF0Pd3AgHv4xy/ni3Vv1zZ25HmEngs+787HL/6AHwnXLS0XihwReh7nZKM9ZouD5YVl1YWnWbLJz2tKai3RKekzGpxsaPL/Hd2bvqzNun8otoV9t6uR8XSseZYUEb6njTRx7nG/adb9TN1iFVILRaDRBdrhj2hXAH+kmyNpdsHMf7r2WULFNR8qgIhIL+XB9RfCJKu0GX69h4EeA/xYuNN7acnkSko/ZpImE+tOUVo90Uc9E42ut5uSI1h2hd+XlGzb06joAL2QHKShiw6xdDKGbUTWm+EG7/5dpBphpoS1jCdNwdjFXNOYwEkjzmGkGb4m5/lyMPRgWufSdhLD8vYk5F9RledXNoWBXh9TAnc5T2rdVuntJ+vz5ttofNsdpUHH6YLPTRExBfWEdIgeO24/U7o2Unop+SVsbyfFoPy45+3H6jt8U9yU0yFsTBTjNU1KHrVjcR6MoPe3dnv9omiSJWGiePE1uoK1HZYVjjDHPdqE1RObRC1X3zG8rQNvQ8Xwco7LOkdZwnflyq21K0vIZ63/IOylNq1+j5EvaOxZZlEY4T45aZ9gnSeHpkovMqI0w6nfiVlHY51jpGns+mZgC9ZNzEofe6DZw48o7J+OXdDeLO5vjJA3McPxHcbN7f94s8qbmMAbyeQ4A2IE6r3AjLV+Jo8QKYi09kb88+zZe/6bTatixvpxT5l4sjigaewL7AwXgX48XqwldsFDaAgkSMXPISV844cnuI4gQghi0dxjDjgJQzDcy750lZzsXZ48w7PcJyz+E66HtTK44EPQ+hplworAcqOwNK6uWqRbaXT4DrWjvPZIW6h30lJ7z7C46zyix9Lbwic8hydvF/x4usgj6TEBPvk8pW0SJZNZXtBBaZ+NAvkkLVhmhV8scZQXhD1HL5sYXo4ZIXw752RtNM7aR/dEiyZKG80lbMqb+5QH48V0xTTTqLSdNrRy3TtBy3NQzvglvcTfwNK1bVi9kEyyV5aOkmsZd/b0rAiedvzQK0Oc/I/h+XJ4Gf0wJqUD1fCF6Wq8zxj9Q38yVeQuay0D9C/9QQ980j58W7/2iKmamWDBsArClMchbTW97ebapusX0cdRYqD00ONAGnhjgLerlcHTXTHs3FZN/9GUyxpLPSFvwPPUO4oq5G1g3gBKOx/mae/poMx8SAfEbRn8UDpyrBl+ulnrH80ub3GsuVU9b16qrasvymetrz+wl/uZEXrljH30SP9Wem1SQx20k7G5kXX6qjUEI1BmlfOqYxcxNI2MrWcW+EvzW4QJWBDso0bidBq2vzubsf4ey2vN8HswNUvMSAPyHcukNTsiRgoUo6EFEkdJYCidteIDrL1zLZC4KQGLTP53fdXiTs8M4g+aID2IZuhgm5QNPOjaxQriDgKJWFxYu/ULICP84AB+B5iwdauc0Indn12kZFd0QVIbk5vfJzxSQY7iMIvBNcIArmDE4NmtVGH/2UrbYeEepp5hAfUp5jy8zc26HqO9ma00oEKwCA9Ljtb72k6XpEtM80FQMwGOsDw9lrY2Ro6TzfotZ4S+9UZKLkyVDCBP1AbPUJL4Rbh7HoDXDECFYgb8ZFNsTtZL1aw+njPl4KXbjMSxmikPyo54KW+IZC/tmX6kfbZ9RS2OZV0zXfHUIOXlaSTOeXo3/R/tcv7L+oxqa2kEfi1d6Nynda0MxEs6TeE68hCNSBn/ieEkTrwOe6ZjiRbMt3Je+gUy71FwZNb6Gbpdvfc5W28kH6hJcoomJp+qU7KFBj91ilkJptDcn2jmwaaA1DEN9Fp6UqylmyJWN3lNSRVInBnzTqCAuFBhw4SACJaHNvhbmdAkr5bPVhfri+RVTUkeNhJnyMjbkqV5e+rfh0EMfTKSr3p8mBhgoB5XROKE42H9EEpr4znKCr7bcMO1dmUJOZGvEoyMjJD/quvU5I131OStFzWKeVXfmQW9bwstNMu7vVnl7dqb5TtroDqY0fGZcX3dZLTeNEN1R7PGD2fDDXuE3ds+s+d2Zhh2XyPZ5DqNvC+bP4tYbmZhYDPR8Yd4PWBj6Tzzh5insxM5jihx8TzNPE+aaxb57kZGyW1hlzdo4HRLE9R9tt7Wnsn/K3TFEgNXEdput7uAAjxpmkHYpxsBRoozoqiwvVtsxAwi4qYs2BwlgLBiIVa85C0GcRQDv7EgJSzcAnVOP9M71WooGQQx3qyWCYMKTCpgfANAkMQx2bjBBHjoPf1Mk5JNwzps9U11Wvr3bElcKEnKwcpkMsLc8rf4KjX7cJQRQaLadzKBgYllTGjAH+VAOihDQNlBKtQK59yni7eckr+n+qPuVHI1vSCulLiSgmKjoFhM1bb6V3PTAk+2unvwDSM1PsTBGC3h4Ugj+amlLf/7iT7RlqFtZGHRE0G6qI/YkrcyDfMWQJzeirr0oct0cMLExGJQD8vXTf2b31BFNsxpyvi913kM1NL9NTrZX5135yuBPrhTIMmD+unFrfbSUVUH6+ARDym9I9HcCzeyG6Td8tXG8nkxGyPsqFYpu6yRV+DpsDKrY4pwDDZqqQARG9kuHTKI21pFU1rbmpVP7xA9Otyj3XIkj1YX77Hen4ZB7wTI2ubcCpl1dgIK33LwvHsbXhUQH290jrKKJTIyXgvH82UJedf6KsMEUNPzNP7VHU1kf2X0sLlaNHxNnxlnuKjcNK2qz5O5qmtJeNOsZj56MsLkLR3FiDcXVYgGxIqLCERbEzMIx55qr7/94TOm+GcXt5GfZCITse4ds8THMX4e+oVSgE+rghIOpot43P1S7eOkmTAu3YoIt8Ja6TomEGdgtSBAEVaMGWK1eSwIJcgYYIWRGmIgByzDImWWEtZuL+R5ZnkXC70CUTQ3i2wMRIISAbwUiINn/FgEE9rpnYneaFTfavdbNUxQNEgv5MnzXhKUMEoA4TDZb2epP/8hWPLs/uz+xZYW9oLpzxpw8vWKnk0f1/W6UE+c0TYUQ9IChYG8ehl42uL0As4hdcoMomGMmVrnGZQBlA3icLIzv9NPV3qzWf932OsXluexYx40TfmSD/xRtl4HLfV5upU2++18JR+hIFB23CNMUw7qnmFhkhdLw3tGZNvTa+HpXF14OYLvh7Fv2lTPJWZlYzWzl/rMEVJNU6q+5EtylDPO0rfLcao8+gvNr71ZNh1jXNzOOFoZVTYF0/SRxq+PMauedkGZoaCgeNJWaGNZ/BvM/KuWHGQaKt88aG4KFp/Q7Wjn3d7Rwelk/UH/0mUJH4znecqxtPrxYwy7dpDl40mW3FHu3t7jvK9pWeZYdfx0XetT51bSpmvRtf7VvFTbVv0671pf/2DCyeRqk53e0TcmpPZOxmjhOKMSkyvVTTmrb/z4kpF4EBWHZ2IEOXuQuR1bmRg2Py3McETEHVDPzo0oEDeMlDYxmfWmkTgieYPZaRDf09MSzTJZeoCFy39EK13rhxUUwXbGL5A3Nil2C5vSdBuXqqsdCROxEwzSsMwWEjers2V7e034YhgEAAkauczwGdMQA92nTuJYjqTWBfoipcfw8RPuYe04GSP47Fkj8W3S97VkFt3dhOWORo4fE4JhtjnP8cUqwHXgAtKPpA/Ys3SnjntHyU53a5fkr0biKBqQgCsThfhDjkkveSBvlg96qqtRcghmnnFYPNdaWljLHCy8eUr7dtN+e/7LFK+jlAy4W8lZ6LeES5i4GNSIo5Dm0wnnYNVO2RaMmvpcao3lj3pFGhkI8XDsWHeAkt5vB1Kqnx5p1xiYsVYzmWdcacA/tUwdzNBNVm7Jn13v9rIik59r/mQaBudmaQYSB+7H68HQsqQws70Y5ufJEvVJP7Vzr3PgYSzDcwkTOej7sXwF5XCK9v1iuB1ZFUDfEeVvrW/CPM1vZyQ+3yzvcRbn/fTaEJ4rYVZG860eLNtvDG2ujul/MsWStMDHA02hup7ueCzsurq9lhE32ilRNrXzmSPDLH9N2FEjkl0LJE5eefvc4ga0ZdotypLnB8XKBbDdu5CjW/Glgefwj8PPivwB0pCjLGOxWdRr68oSciJfHfC5yYm3a5eG7+re9BhVvD/Vc/P3VRXkh8kqXu0WZpR89mAmypEP75ksHv+0UVNVI+urTY5irZvfWawhN5Sz9nDX3ceGrnZe/3FKwvHa2SWhC368WfQs2jnYnocOapiScJ5x2ZsmA1sektEEysRAM1xebGoapj2zk/0/1lwQWc35YanVWbp1VBKUh3RLyBzCw9pBqBIyd1AlfCzUyQ+XCb/hg/dV+S8hLFKIc6HI8wN0iJ7QBp1Ts5wwk7jmDr+UDv45YrESH4gFIv4Az3Dd0jKMCV3kkm5zXAy3nEgj5AqRIcTpuzCBe/SbZu2asA/dsN5P4SjEtdAUmfdMwFuFpU0SNd5rjNVzOzV+y45B+HvYDsLy9Hl+DAPogh+hmVtgqaKsmJ/h+I1JkTgJD0DSZqkff5WVxPt2ztjsYs1sgJUAeREHfsdaeZ6otMfvwyQydaNrmHghFNKHuraVKl//nUaljNFT18WwsPpTb4ZRvXRs4vMdIhxt1yy5nZKmhQuOuH78vECA25NOWvoCI3cmE/pSP29Xlnc6NSD4Tk0sr1jk5AtQR5yb//kW8dEl6ss39fnWzkFG4KYXHHvKXfbMQitbK5Nq7XVaYv8x+vt/oz1etTBbHpBVR9gvgIl0pIswSSdtGdAV4O2GXijuuz/Kr6A07o/1Tz1TL94OvX078I/jevG9GJ7HHGUVWRd5ubVwOZGvx4BS7SWdPCP7ayTJGtXyKP9mOQdqOtas51dNVFDPdh2xwG5vyX5mKRc+erWzGVlvGeHWO8E4xI6NksEa8VFmdTcxQsem6V8jEz88GzaIMexm5DzSDKH0UQvjMDOgHt9HHczwZPZ7e+O0FvbsiCn23/zN/jqz5R5qYDZ7XfPwZA1dYRZz87S6Bn1sgrIRy4bc8gUQIJZyKR+TKOCYuQ/q204MYSDwYmFlJNS6g/qxe84Qacm1loAgDD18/DoZepgsCwNxHE5ywK4/Q38DpUp6CCP2W0zq3Gfc2P1wHGFEYvkMG3ygoMSkxH1L3y5dlH6wgZL/mqXb2SzDj3cx6zzRhEF7Zt6CP0iH9JMfuq8B+XOlh3BJu12biWVNrTtiUojLzP7zqdcnu+qJ3lYfofY3Ve0SLG7GjvGL1TpbS8ZU0tddNtA2U77QKamR2dIwXdmarm27vq19rsDqLwZ+zZ0F4wHChdA8jAKGWBmNYWlXXK7bq37a2o7kr5ZuTkkX5E2+jSDfoywKZVoH5QAlg/S40mSNk6VcbUzzZNO8uljk+KcsAEec14spIaxm5KuwdVINTv6gbltdoUmnWfti4URf84flPGMDvbKFKRB0DJS8Y+8j9Uv9eH0QJoQLvN244kNc+HUlkP+UveebMo/rydO2qlhd/zlyrD1yIl8N3Jv2MYGEMBqrE5NLTEilGjbtRLFOHOzIh02MM2cZwbN3+mfX2V8mtZkxEpakGZnPYxhoF1MJ+JKjoY4RKxQKgmg1QwO9APoK1GckThc7lvtXRs50EiZPWdhmpB70oHm+wsQnRpgZY6ndfzo1s9+E3lbGOb9Nt9VRvzUym95Pxx54lz79+3aq8/HHOvw70wTCV0Zd4Ho3OvuFI8QQeByxErFoMiysZoE+bfG8ziYkTgQILrMKhyNMjSDoKg07o9EFDgEC/MTCEfh64FjwuYA3gcxSoGAl+bhyDOJ2v8DJwP3xn3Nz4ZvpALWGcWuPj/uWZzP4wl4BZrUn2/a2eCsoqZDqjXb1le5CFzXKGzXBc8RL2UAKxEHaPB1Y3oSJIuTwuDI/Q1OIlvNFoWejwzlGhA0WaXRnLFlznaxtldADQRj0LrTUmWyMY3modN+SsAHOwM/Zb94tSrDAyL2W3v+okZLuvgQwBmP07hcwyx/E1wD/4/yAzzUledaOXPtM5yb9NHcxShpl4Nutcm7tghGFdigk+F2WtoBhVpdMVKMoAyiX0LoL4BmuWZ5b3q7OL5oZ39+s8An11TPZIRtOud7C6Gium7k615rCZEfaWph/QHmAuDcCpYv68reLdALaOulC4UA7wB/xc9/ScBa9GjG8PLwuY3i8Mdx/jrKMeOLamrqyhJzIVwMnJsZQXyI8EAK8sANU47czlOyfhmVn193bMciShYur64XRe6iWccfwD/cNE3LqMUHHiLw6cpAh0blG0CaDvk1mhw7Jg40vt7e2MWJbaSeTLQf0zUQOe6ePMKudCXDEiKh9dHezIcz4HWHW/w0T7GgEfvsT0j3mp15yaejCT0xOTkymFoyUo8zO+Eo7/nm80rYVNaDcIlXoNFvp3bC5d0eXBoQb3aQuxG7PvsLG8OhSYY2whBxcIJoLn6mE2Ar/SwXPOSEWw6z1gVh7xE08lISDeApCN4D/foQcCBdwND8TUTCoL9bBx/nkvj1TzQ5LL1u4z5jyMOB27ZKcqGQC/cJY+fQMkA4UE4+XMEk/4ZAHux52l3PC8LzzHH6OUtsk2ynwsfRFLar5ZvYhmbpXae/kMNMJrSL9QyLlIES6zN/UbQecr9vuOzkoUP/Y8gSdu7nlZ3R7808XOOXyme6ycJLfsk49BumkTLDggTWYAPLDvbicYkLy5xyeH3CzqpZjhQCtkLkUgMZgYSwclSU5hOXvh+FJysTujzPlEQs6tBXqydsPR+LEP0MoH6v3X7sZcdspG9ostZwB/gjf0+cKFm2NOAHWNQooimncTvxIIj1ue1knH2fHwlAM4fZniKQ0FPITwvGw4rLJsT6hNGJeXVeWkBP5aoMXGkFG92QVzS5nVq2RwUsmN/bXs3rj4/ra6pbZalTulbDpS+sDnwtdtkPZLtVk6CZ0k9M9buTLGHg9I3v2S2eMGxxswpwJwZ8Z+WOXuSjivDDyGjDQwmIi3QVmHCOG4Gs6B108I2c5T/5gpHptLe1kT08ydk/GXqsLWlk4LWuESdK3hUF0YiCBPIGQ5MiYKiHb+SC6U/EzW8mNQ/TmFdKVKf2fCD9L4ZNscefWt2F7LPtsoVQGF4IxmFjk1z3VmYA8mLXO1Yif++QYYe69B8SDoPZn+Z+lLRPmhRIKXb2oSJQMfnH48x4G/NkzTMAbzic8yQv3qQjC4tzjgLQgQtJAWnnW00x58az5fQ/SMrTz8gLcK8QVnLWJj6xNLB2vzcD666BUgMWsMTe/17Yzb1fpzMQawwt0+n6ly3WlNtj+a711KMubqig9hF4Dwo3KP4C0c93zAIGDLA1Z3KQRJSVTMDIShBzdjxOV53VZejPQb8S2tpS7hT+aXhaUC8LL8p9ua5Z1o8KYPL1Q722lE1I+EMN9J2SAQgnsuj3+SspkNOIl/RxJG+ekyfPq5A1IN4DUg0ZhIA7PPyAcrmVpo10d8Tu+3087IW+0M/JOna0IhBeHmSPHz4+cyNcKCA0TCiWjtPPGJg6mTFLjA43AppnIqGAiwchah5ijqx3v5ocxbKxxLGxEK+vAbzdiR6QNNmKfZaQ/yCwXvsWEaEFUIX6gENQHxAwGJLvD8TlT+uGZyc51VhNzfCk1q+dys2vhrJLx0sU36fwBt+lFNTZLbt9wr8frF2moETIdpGkDpv5isVqM1/oacrp4C0KrHZaRC7u3NC49QQckLIHiGoKXLnBXOXDmb3usSuBC048OC7cBAr7gPxyJr2LYISzr+ucaAhxiRMh6GG6lkU5QSGdwCGErlBmkmRJzv8QBUIfqaiKflAvhQTzUBPez+LM+YM6BEwRE7soHXfT4x6E+edgFDILQ/Tm6Xxgs8W1UpZ5bWyV/D7NVdSabkhA/atsCte5S2CJQMyR2azUwX/byWlco2THVu+mFeoevuQYwtkt+VkZCgBbilix5maT01d/bkfkR3CMvBYXE0t05LafbUj6yz8Y3+GfmN8/ij/Zvz1RjGGWR5i7mC2xcZxgDv+WVPJqqzls0eqsHJqptn+i+v1v9BkDIXocoNoRr//dfpD3+avV0McocykJBUQr3Y5APrgOLN3y+FtBmgN/zvJI2v8bxKz3Sgy4mlAi/x5E0ebpiZSPHLwWlWdir68oSciJfK5ggQs40aqmqp6YaXt9IEjln7/4mJsvqmOx7p5NRnHFGy6bSeJOHUMCMp7Mj4gkagCIgZ0THY0bmXOM/DrsE6uEaoppneHaUycZ7TFF44MSs6x1UKSyhn53cpZvM6MusfEjKBOoLaVj+9tZWe2hoC6l7x+vU9qmMXoaav3E6X+lDRugXcwUB6wKNI1g29nta0krN+9B9TthoC06WGXldkpqG8V4sMP2IQHVnmBy+oG5wQWsw622L5D/KPgJCeJAL5+7HHSURd7k7gaFQMFZqlXA0RADZgEKc4ThdjRJIhxnXbr05eJ5nXIB7ObA+nsoG3hfvaXGhXxqYTR2N3Q4s0WXJX+3E0+OYp7kV6AaH9AlzQbSt7GIlB87VMY8OV41kuvZIrlO6QaLpyQztyJBNwGwtmI9CdlbYlzzd2peglQZPL2mYFL4Mlq0kIF6u+YS+seqdNNGZQ1F62KzG0jYI1Y/n8UfZmAI4B6WprqqWu82O7dUwpcXix8rwwimakdBlbmHPKCgzZ7Gbm5cdqipHwDOUv4XHErNr+QHUB20Sf/hxJcnbZiE/C2kntAP8cySNuML9pUePz8IpYQIfSgTAL+B5XmTvovfrOX4pgIhLW1K2qm5NifyWW25R3bp1VaFCBTVr1kyvvFLaBNVlmDNnjs455xxtscUW2njjjbXDDjvoiSeWau9LkRP5WsEEAt2pE43UTBa07vickmGpRmJAMgHOiHZH4/aXjNe+MeMQMcL/OsbciIfjns3EFptRYnHTWYqIgUI4IooQMS5+sHPYax1wH/GCTYwigEibYfHgl/8cTw0fVjaM66D0kyQTjpWktruYqLxFuunA7DnsTD6FeoPJrrT9H+0fT5MK77rkvws/YIKuE2PPAG0Bfwi9TLBec8wVSs/xXbxieBh+9MlfoJDL8C1x2InwHMXxk3NKLu6e5z8lFhEw+7IHVWhFeEF7pOQXoB4V0hBUJxfgOPJFPKTJ0xWnJ8v38gKfa16TEdqzOY33dsSg1kg/yhFwJQV/KA43KzlinPZJX9chGqMmvV4MakXqm9oZKlZ+wmq8koZ8mSj5iH3iS0d6PZMVya+n4bWwlj2d1EPplt1UkkJkpKe6RqWmFHxlbceM1jqpxRh6Z8gXZUW9OxFT/rjxmpRgepN/+9+GVkv3O0RsyiCbHvTZ0QiUuikGzxfq4Eu7XwdLn6ERyoI4KF/OCZvzijo25YXwdso1wgAcecbfKhDXk1ntu9AjRHmjpKImE7e3ISbReXr8+Ry/FJS+pGz13OrigQce0AUXXKDu3bvrtddeU+PGjXXggQfq888x076Pb7/9VgcccICmT5+uIUOG6N///rduv/12bbVVbMBkyIn8R8HVJmvHKpmbKp2ZZFSyZWE2+UeZ/YCFjvU00izlGSY7EGtD98vowjutESf8h3oQX4haOgk58p9w+pkBgRjCLuIaz6EI0IlMmGznin/SkNY/WnM3Pl+fNqkm7SrN/LiqepklzwQ5xBNxET5d8le1zML6JvTmMl4OvA8AQQZt8FRFPR120MM313EIPLfK7b8RaHJLd6m5b9vqKBaKbqlma5EDwqdHSRH+6PLkiJVKrgFHD4PwQChxA+kgV1zn3PzWoYvf/ZGvOH5TJZLn9Wz6tJ3xMjlJU9Lkl3T5s8TL2DUl5tccJxZ6EJxVPa2kJQIzr4OSUBqwWiFQ4iZ8L08vi67qnI7QCwnr20fptV1bhJA+mWV5b+GkOFZH641Cx3KhPK3+IGidbn72L9FFqZH8hVjOKAfL0jlHv9FdDSyuVtjYJyp9hF2MztME7aJD2g81jXKoWdYW8ii0VMqFMiddvtd8FmuWD1qioZwR5bAbtMFMlqWRD2vZcDx1HOYDUMY+JOAg3fy3MphBvmjdlAXhEyfKG+C5xRqcsBSUdPCMhxWHt6wnaRnwb3UzgfA9POqKuCl/zj1MyJ505sixdrjhhht0xhln6NRTT9WOO+6o/v37a5NNNtE//vGPgo/lwfXZs2dr2LBh2muvvYIlv88++wQFoBg5kf8o4KU3IT8oVXJtqprpZnrTyHKTrY0YzTJHBI23/ywV223DTITuZEeME0Q2T0NVh2+c+cW+gJgL4iyIGhdRkD7ijDH0ZmY07WzWNcTPNf6PN0UBG6OtKQ7JNqnGLdxTWyT/CpbbARq51HZxMdU0bRTkKs93PcHSjIFTsokapqQOEke48dR7ehECH9BFra6nW31FQGADCz3s5BYLQSeXYriwtdwutcgpiReya4HwPcWA1ALI2lDBFQb84jyXhjBWTrw8T/cxYeDwBypqv+RQs2Q7Kz3neKk1wt2eZ6JZN8rA4+UISAvLlhhHpzaa6etK2+rO0xNNTy3NLJG6H7IDnt5CnBeSlhiehhikNS4nX171gHonnq8FuvX19jr8btNTkguyBlUY166TVtTe7JE+kf+0jN3UrMGowE984Y0uwfTOM+26K0mZBfpFMl9765868c47NCV53az/azXi+Zb6t36nJxqaMnRtW7PaTYsMH9NnCMDT6LPXfQYHKJTVYlrpBepf6yxTKnewcjkga/QTLT0MuweCJk9exm5pQKaET/lwjyNKThZu+N75UrL1Zxniia8Bb79xeXqZY6k73D9HzwM9EpxTjqjMOX5J+M6oj3dhzV1GnWz5Grv//peJS98H1vX48eO1//4+qdPId4MNwv+XX365cGV5PProo9pzzz1D13qtWrXUqFEjXX311fruu8JYaoScyH9UJNJBY8NnMyuntYPQqmjkvLNxQoOFG2jR11INU/BbGvnWYI6NgY+pIIZ2NiNnpLUBCBtxgsV9uMkS6IxZ5oGoNzdnlj4iLVCZhdHz9c5BhDL3mF3gGPGtme4TvrCmZ3ppv3r/MrbeUX+tfqUm1t89iMgLLE6e53z3WhPDJ1LO1hMae590uwnYMSWJ3mnJmCihLROM3cwi1OkDjZDoVkdIlkZEEA85AsTgfvxa8TNcR9AW7rMpXDeI0Mna1yvzHM6FrYdn6WB3tgBIAVccR5wGnue/EwhHPqpybbYl+/AS3Z2+rvQ9q8vw+UvIGjBmCkiLKQQTWxqx0ffxpjZ9f75OnbFAv539hdTXTE7TB8IX2vYnH8Tp5bDsJc7+x+mKUfwfhYVaXoazk4Ya066gmc98IOgVndKN9dHhRphwGmMyzdtqfHq2XrnDGpc1xxvPOdPyOURt2t8r1YVRAWXAEqzXtF3yqu5LEBLEt0AHdxilu78+OdPNLr5d7zZkgwD8Au+1KYanneNDGpoeojOT3dX33dOsXKyewpQEa+WsOw/59/rAeS8EdRKH40SMpb+TvvjNb+2IIkUPivuLydpR6JUJdUjPARP66K437MKGSID4Y3ivDOow4HkK8/vdmTnWX5ROzqvnwNZbbx32bnd3zTXXhOvF+PLLLwMBQ8gx+D8zTHL9PqZOnRq61HmOcfHLLrtMvXv3Vs+eYbvE5bDWRP7xxx+rXbt2qlGjhipWrKiddtpJ48aFBaMBfJPl8ssvD4P13EcDmTKFWazLQPfBSSedFDafr1atmk477TTNn8/ypvUNdCFW1zUVr9C32lgv3L6HPjfOSQY9ocoVrlZ5I9DPrjYvbI5mcqLWRTxjIoklaUeaFW3HtuzDbjIniCWT/4i3oU9nIm4Gvb+mGLQdIzVhD/VDjPO27a0z7lzW+XhwJZPryQuav3gzpb0u1j7TntRmr35o1lw39ZpybrAthn4knWiKBeKyl4WJ3XSnBdbsQ+kMk/lB1iKzg1WyDC8kc+0XEiV17hw+Fu0WOAKS+96V7AIzfqYYdu89UxR6IoCxxgGpc8KDEGNwnfDICSAOnC9/wr+ng/+c+5H0cr4MyUfdNTCdpJMfGKKkDb0O+EOgM4PBLU+eMWfJDJ/JtLCX1O5jpvDb2qAGG7Ig9Euszl9Uh5E3ZHvPb0/3LHniHqoa/S+k2a0/4gE/ZPkRNwoUOMpKljzw7CSlZyb6298vVfLY/UpvSXTm+Tfqkpcv166zTQGgW72kJHxedM+nJuh/9KJVMh8IAZTNAONlPlJi7+vlWOuFrvH+V2l+5X+H03vTx5VUpkzo1aCl0ZBLg+clawdt2XbV8nluwibpppzNMDV0/yaqPMiUnm70pBA/jvJxEAaO6xx9o5ssr9lHZpgoGSuahaGCsJa/GChBlD09PYXv6odu9bj+C/W6VJkgjz42T13x8jF50ss/Rw7po48+Ch9OcXfJJZcU7qw9lixZos0331y33XabmjRpouOOO05du3YNXfLFWCsi/89//hP67suXL68RI0bonXfeCRrDb37zm4IP6brrrtNNN90UIh87dqwqVaoUBvgXLgx9qAGQ+Ntvv62RI0dq+PDh+uc//6kzz0SgrG9g/fRjZiHeoGP0oImCz/Rx2lBpX2PcuibMjVegJWEtn24y7TqjfpPlbzIxzuTiKDt+Y/JikAXBBjGY3i7aESnMgv+MSbbmL2X5K2AukZHKPiYja5mCsImF276p9GLyhV64aA/1TA7W5ydvo/TdRF3+fbOOMIJCPFZ6aUnoSu/CxhtpC7UfZQYpho4pG9zPloEb4dR1wQhpIjhjgetAuLmFjkBF+PHfhSOIhaaDa/glRifpz7RtapoGX0oLQKAiSAkPgvEw8Y/1xPOcuwXPPQjWBXBp8LTgBwcyv+3N0uV0xKFYfAC/CHeOrqwYwng3+eU65IziwTnp5fiS+iXVjdxN63pvmo5If2fXqFTyUNq4LXCr29NUDK57+S8yS7f10vrZ5YSXQxHsQU+QGZ23nXG+trSGkvXG11Kj9FAr12NMx7ldnRMUk3iM3MLtzwS8EUr+d4mOTSFdy1vPruqVPqDkilSH/9ca5bhe2mBmp8z/CtPoCOqgweLg4zQohQ3YNc3iNt1m/sDNLHyUCU8DZenwaw63jgFthbawiTnKGvAf5cjS5Gv5l4ZB2+Cc5yzuOjEZkwfuEXdxnuj38jz4PWaLHpttrZtjvUZpM9FX1wGMz9gxs7w01KxZUxtuuKE++4x2tQz8r13b3tlSgPHLLHWeczRs2DBY8HTVx1grIu/Vq1foWrjzzju1xx57qF69emrVqpW22267cB9rvE+fPurWrZuOOOII7bzzzvp//+//6ZNPPgkD+GDSpEl68sknNWDAgDAdv0WLFrr55pt1//33B3/rHxC08zSxx+5qmIxXNf1HNc6aofThRGNeb6wDHs/Ie16X8qpjFvmkr6WdzQq/3Qi8ZStTA+w/5D1lsvSAObYqQRbvaNb6CJOlI9O20vlmPZpMfmdbu2bWej/jkMcszIcwmJHRdu/kCqn26f5KoLfRJi/77SANaZCow8M3hPDolh9kysDAC81eSkbrUeOtIEqNQ7Ghxj4hvQ/5LJVZqBIIQxd8Dvtf14RjH4iPeziA31g4xkISxOFwjn+wWFMr/l7Z507jMHgBEMqQppO+C1oEM9atC3bANY/TCZh4uEYdQaYu0AsWaPhvaWrXSwdfZZpNENikkYEL4izOk/8nbk8/55QVpYwCgCX4sB5JPlXv9FlVX9w+WyYWNo2hq9fLy8F/0hErJhnSR1hS5v8h/dlKX0rsWEVvNGyu5NhbdSFbojGMb8k994QBem3zTBWcmLyoqQnvnFucwPPh5WeNcPvrNDipYOd1VafrFA3TkWFzlsoV/iU92UVb1vpEFeZk1nsG0lOcB0B5mFXewPIJ91MmLHAYZuk1Hb7xOUzac6WP5+O6i9NFHXjvDHXhdWZ1WJNBIerWMlv34KCsLIOHSzqob561/IUJdP4f4M/rDv8eNyjOF3U6WOrIGEyc3v/f3rnA61Tl//+7i0InFMWUSiYNIkLRREwXotJFpQt1mtJQRDe6qHRXo7uiUumfkkpFSqXELxMKQwmDIUUhGkQpsv/f99rPl3Uez8FB9RxnvV+2fVt73Z591md91237ZMqLQLaxXt+ZTCPRt3bj+YKw2267Oav6gw9Y8jgBi5tz+sEzgZE8Z84c586YNWuWE3j889kuIaczvn79+nL22We7JoAjjjjCDY835s2b52oPfgc//QgItnXws6c5HX8M3DMQAAu+cOEVAkyveaicGh93yfc195fv6uTIofIfidtpUaBiXfqMtTJCLXIrDlyxrdY2xe7halljg9CzR7HLNkLrNMjWmTkqcCzK9kRSlJsNhyy5ul5DrRSo8f/qmkgeuT0prriH/9ivfYdikSRN6kDxzdZKs9/5peHU0GP64/8TLVLxQCisQKQQJY0UaF5av7zLTUc7KqZfnevpBaJhhafdp0BNL/j0uvukJLHy3RM2cUB0rd/cwB/gGTC/AT9QkEyQK9zXysEAhJU/Ts5/kpyu32lNRw+dKCPGhGciaGJi/eZ+etnzS7G3LYnLNdH+8tyuF0rJnF9k1vMH6BUNv8RNMiLWSoPrw+VtOCg1/ctVtxQqLlBSosPWSxOXx5BMkYv2p7n7Ak0i4lJMzol6SvT2L3Je32dcD0O9D5izjR+p/Oi1oWaWorPE3VighilixIF08iZUlgX3V5VxURk5qqSGdW4DOaj5TJm74lDZr8y3nlVqv1EmqkvORM1H/rRL1ND3Y4xcdtrDbiD63+RDvUj+W975eatv6mgTXMY/cB935AnxIz26dzPsPpfn4/+Tp+edLzWEtPrwe9r7Ze+LneOXHWfC4uVDfLhGecYa9ulszr9AUYepZ+jjc8895wzYjh07yurVq90odrjwwgvzNM1zn27nLl26OAF/66233GA3Br+ls11CTmd83759pWrVqvLuu++6gK+88koXUbBO/M118LOnEuBTrFgx2XvvvTe4SYeRgemjBbMPLeC63iWDooslbh7JPievkpHRGuEDYQjqaLWuKRKoqtBcjjwNnJ1IwGC1rCmq1ImTCnobk953tU20EkD/NROhrOjDH+7hx1PHJ8UJK8ldWTOZqU3R2CY1wC2+PHJhUPwyGp7hWhRxPScmFYcBGoe+ejxAhZ7ifBLLyc5goRErpPwCzo4pMH+ST6JjdW/N3T7EALdWmKY/n8adKkru4xW4J9aAO94jYk4KKEy5zzlhsre4GPhvlQ4/HNwCOYgfVUVyGdhGDvKMyKqcV2XKuEMlbsI3Mu1Z3JIWcoq48Hwivgm443k2wrBjSETg1OhmaaTCfegZX0uVeLq8+NPp0mL+SDku/laKL0UcFkrv1ddKfLaK6wmIWSoPOnWXU/78qtrH+oPkJCJ6SsznaKk40yzOr0V8qHTw3i13Lfl3HE+tiPxJcb0NDExRs5w8wlo3J5WSuH5teVaw+knjBGl2zVCJx9eXWVop5J0bqOK12yGxzO18WJKt7vOwJm5+eu33riurpu2TTDnTbPxsRS35WP7qKkgPRVgZVLz427ffw35rTXNTG+FP+vHL/w2phebKgEuSgXftoiPkkuhQeTmi38mHZw384N0wP3z/wMIwOLZ4+aifXWnWt4/++OT3TCDbyDR4raBbQaGPu3fv3m7MWJ06dWTKlCmuNdr08auvvpJvv9VKcgpau9HVTz/91LVmo62I+vXXM/03L9sl5Jj8devWdbUErHH6tZknl6kzfkfCyEB/pCAJzj4oRPjDflCih992S2rOjbu6aTer4uOkKV16CgPccEURRrHGMT8r5STyUGH3pIhhw05D1AcP2FhcUDQhP2wUiTyHX65qo5Z9G6048Nywr7mgqH9WrOMOW5WY4h8NnTRUmkRerR4ime6zks5HPniBS4sRoXNug+IYsU5o3APbkyo2sGtg12xvTJb4T7QE4D+xIqbEiOpNdblXBTARLCv4ETAbTWCWFhv+4gfHiAvnHBNnugKYD630pOn8GIlvpMJilcLvpU70qkRj1IKs2TO18AjPajyqNZXW8Z6yJGY4N78acTQ/zYImvoYJG/vRMjb6l/si2NwjDlNZ+1jk0uIyquMpsrY8lnlHrURMcb/deSPVqnZrxl+pFnBfGV7ybOkaHa2/BwJaUoZHDP0m7YRr4dGCQFgr5c0Gx0v3siyli/We6kPOEy+R1fMi5/rtdyKJ6sdyger/ULlGpkoXeS/6r0SvqsUfV5Ju3W9zH3dxC7VgjWslVSaa2Or1njQD2bgG3gfC0t9Q/XOfJtV3ds2UvWWaxjl+ld82lfcu/sQJ9ybs9pdAfgHH5K9t+pY2YjyDrTLHlh88SwqBd8MnyccE3KWTN6828BDPEcdAYSWTMBd02xY6deok8+fPd8YoLc60ThujR4+WAQMYh7ERmt3Hjx/vxpT997//lRtvvDFPn7mxXUJOWz0T233ojKdmAdaJv7kOfvbpK9usW7fONSnkNwiA5gd/pCAjB/94rLDwSQpUZ3f3fkRujK6X6LBYThnE+qmptdBVi5AkpACBpXjwbdrSDZOiDQFHqijaKHpyGfmuEALeIFcMUQLut2IQ3C26qXXfeQ89f1fk4EvVflOjhTAo0tgjhY3iZE4tMbVGYcIaoj8LI+SFD2u1ZYQxI5atmwRXFHT4RAoQEKxCYmqxt0LSClBiyz2u+/mVnnfFJbqVQPGfag17xArWSveId45n8Jd7bIiV5lwJayInHNz8JJWc4OKGOFqcEM3UALWeCNJoie6+U81chJM04o72Eq0iTevpFh6JD0DoVURm3qshfSl/FxZyIByraNCJ4Vm/G+CexcnQcKf0lMrR5Zp9k0T6YSlrhWI8v/AhboXAQQf/XWQBbS9Y3Po35JYg5RciHcAvRhpJC3uwfmeV17s+kN7L6aDm7y9zN1Wps0Uu7xQ7X5/sF8luX8bOdW2+6PfVNfre3iuHXve13MfAOgfh0HJAGEk498dPy/M9I3n1rEgrAD3kC/chHn6vBe4fU98cTdfKkPhRiZq6uZHJtU2wBVrIf9LHno3fmt9Gw6zUKkmmg7z18zUTFtd0d+QnWN4VhPyesYpgIPD7sV1CTmc8y8b50JZ/0EFJUyOD3xBjv4OfZnBqItbBz571ZJksb4waNcpZ+35txYeRgemjBf94TCAM/tDNGgRk8wWR4cskulKtnHZqJas5PEItdGw4ihiKAJNFwFb5cWIiNzSRU8DSxE7D7ggVaL+IY9+yT7yhiHfq/p4+o/5/SXM8o9DHJrHBrRVrSFCJ6BNXHOIPlYEaanziDzFepsbVjzSvl8CKAkTDwDd8wUcqY5xbfzTHJjTcNzgnJBuAZnDd5weJG9DMy7PEjnB5zkYDkLdcR+itgFYrz4mdH55qSURLAdUh2i2IE7UcUr6nFF/aWSQH8Ufs9Xg4z5Pj+I97LEfitlairz/SOs1pUjc+Ru6PSmkKqDwQFu4Av4mftVAA/gBx9bF8Ix50osB9boyDlNcfQK3YFXMY0II70mswxoE3g7wAS7vtDfVX6x2J5aDxd83gVLLy8plWKMv0XiQdu6Xs3zrT3TuwfrL+3vXFfams7j9pGydMXJCe1BSuFHWjvi7F5AIxrcG0yvoIufrE+DpXB1gpB8X/lelCJcw+rWqQD/b7++mwd0WrlZ34jUjDOqn+teax63Uzt5a36e/Q1pQLPJued74/6X4a9m4HCiM7akGYbCGKGVq+jdB2/9e//lVuu+02Oeecc9wC8DStM++NKWXAyPZevXq5fnOEnUntn332mZuqxsLx0KJFC2el0yS/du1a1/nP4LcXX+SDE1uGygFN7OKWDs08/P+3hz9qKxAQKQp5w8SIQhsSgbghfk9u+vku+bXMercYTOveKjrXbrSdEGwGvSE7FJBUa5g9i81inxuheKWBkfuEQlFdT3Vgrapw8eP05EDVpoeOk2+jURvkBYFG/jBqCAv7kxgRHjY11TAWxrxc7av4uNouOdER+prkUpBa4WhpNUExqJYQguWHny9geeFf94+tUFd/RreXe5t0lu5PP5rMhXZwD4gttRPOSb35YXvymnB8wcNvNuIHuEWY1M3pN8n9r18uHXL6yqJVFeXP0e3J9Q3urcCvLM/Lxe7JNprP0SuaL/WphJJj3Cd/LHzaNXzL0+KGG/PP8iMvk+KXpV7Ex0q4h73cNlkVbSxpZRIjVS3eDmvNwi8f/YVP6ag/Pn25G630TajcU5bM21P2uX+VRDVjqdn8U5lW60j5cFrkQmkWHyTVXd8z88at8mT5ZvEu7vrrEem5EV9SIz/qJX+OvfgAC3mRmyz2w4I5Lk94G22tfcuX/PKHt5U84D7wjtHywdtPfuSl+NKrZW35B1J5SAXN3lnENz2/M+W/hePnWaZr1FgYYOBDWu39ChQMVkXr5VpZfyvjzLTi9RUNZY/SVskuOKtXrpMzyoz/TeNaELarWnHkkUfK66+/LoMGDXLLx91xxx1uupmJOHTr1k06d+7s+s9xz0IvdPCbiMMLL7wg1apVk+OPP15atmzppqBRGShc+H/gvoiboAB/4BTuuB0j9/zpdqm2+0w5d80Qaf1vvfRSUjQ3VSOqdR89UNqqIUlR00pF+au4ptR4Sis+NybFd9tmrnh01QY+a9pGz3E7Vsvd5ctz5DOmU2u9ZncV8aNiqgNqLemOoo9wMNp5BWfEbZ2AV1CtMHnoqNZY9XidzObT2cxZz6VfWl2XwCKkQDRIi6WdPwwrxLjmF9AGeZF+3T9GPPF/ocQDI+m+8J/uO9Y9YuZNkpcU4oRDFYSw2KwzgpwgBeQC181a5zn8x29GZgMpxx2on2/0lWuik2SP1U+qiD+k13ieuLKnenSTjGZlO41XO7lVztUfK5p3a2Lpns5IcvzCHXH/SVrHJWUKS4mOpQJCVenSZHCaqwwRJ9JgaeZZjtmIV/GUAKmlXg31bsHn6VItwZqWfieK9K8hOavofCa9+OeT8tdN+9qMiCvxoZHsG/WQ6NqhrtGDaWoy7S75m/wiXeRtFXHeMBbxJY72HuOfWff7S894pfxHDpW5j6mIuz9rzQ8WfutFlwXPqAizRk8fJlMi4vwNmIjjr+UF5+x5hmP72zERxx3XiRN/YxxbIZpKs+7XlqcLqHIqDwF3Fnf2+AvkHe8I2POAeyP9un9OWjj3u1N4XwLZTqYpZQXdsontssizheywyLcFCgGaDMdKfEzjpPWXqfNaCM7P3Udyin0nc37VYk+TVJqxVpTp7+qm79AQFesztTyK9tBzvsipIs6XzVzhjaF6i8jkK6pL3TNVoilcUWpmGamhyTfQy+FnE5Gn3hP5Mb5MnlUr8+/R0c66d5KklYnnNOzOmq3F1e8+L18inSdogd6QvlzE0F+KFXHFpqegQ22c4ih23y8YDb9AhHQ3VsAyV9j8M3jW3FMYY5nh3rfM7Xo6er+m5vm0VL/zS+o3S4c6eFbTVl5rO0sZDc7zXDOhsQqMCtFZbVJfV0vBCPP3vXMWQenAXHjaT0xEiBeWKFUl8MURCMOHfEV0rEM4icuAeLLkdlZLu49u72s8TmCADGJnqL/Xd0/0dylp88PIwEyNK9o43ou/g3NeJroLiCt7QDwv0gpMOa0AaQWvUg2RBbQRET9NY/1yUv3TyTIjorKFaKe6Y1hE59r0MHxSzzv//coiz5BGRFKv893xNVQS7B2w5/z845w4W4sMv2GmfEgPy96jLZH8Fhv95JzfamueDWTm97PIX13RaLst8rPKjM0aizwI+e+CNQOCFT7AHz/zd9dJo3iCfPRwM5nfZR/ZJ+c7KdVKL6vl/WNDtctWJw3JVfn6JKi1PETF24oglmVlRbe1WtYV53seaAWLw6glu+BILV70/ifqB8UalYK++veCzCG956hgl9YyeEDZpAm/qVYmZqu5fwiVBFZ6Uz8wfld+JVLmZz6Lmt5lQEHJH4TtidXWFGY8a4WgX+ACeUSBSsGdnl9WYNt1jqkB0UbBHj+tUuGH4YPfXMeN3adywnVEltzG4mRcgGZqMVW5dYgJYZFG3DEx0L7brTTU+04IES5E1fzlGXLbhJZz2kIQZ8Lw89Ow9BEPE08f/XH4UMxZesicRZfnzCMnDxPhbxFXl+Za6+sa0SSOhbo5LDzgeSpPA6Su+jH5OYaHky6f4hJXVSt+9uNaEVK3JO16RJsWC951vUBXiPsiXDqploY8+UPYfhw45rczgW2haW2QZJtbvpf00mXA+5Hfu2b+5fcOpL9zVhkFPx52bJh/vr8pdxU1vYuotPjjSAJbz+8n5C+vaCKltkPIf1QhP6fMmJ2jaT2wtVDSUSBYwWLwImE2PSpjo3VyQJdZUnnCEnlr1SlJ32vq+/GnrVKRxRKnrEar+om0bityolrKWOWlmGF0thYnqsQr76VQUav7YpG4eRLi+yrixIBFXgbo3wp97cTiUq37vKxW96Mq4jxFsTRm8VFSVS31aD89oRUAzdJw56xBoBAdXNpGQUgByJ6Q8IGC1XeTH7i1+/Y8m4E/nBMBg5LcznmWPyDcUEkiRYg5/nKN80zhV5d4xuUS16R5glHQpd23uPeJ99FjBmHRdMG66ggg1uyXEt+FoOOXFd7EjXR7bLBmEWjcAM9Y/DimlsU5+Uia+SUsHT4Wd0RcKwHO8jf/EXcVnDUq4ANT/c05mif92ou0RYCZW91BRkT7S9e3ntBjVhTYEkwrVL6kdUhfqJqE/YNMjsakRJxzj0Y3qYjz6Vd9JxiV7uoon2ktELfuRF9rm5rmw29Hfw/vkkF++HvgONUsXh4/NZ+mqU7eMVfzgrwi/wnH3rVMmH/8FuSnYXlN/nMdd2xWabTnwI79MHgO0n9jZVEy+yGQ/WQewFawLZsIQv67YwUAcGzW4wRZEL2glt0kOSd6Tc5b+4xEJ8eyxwuxTNjjKKnVjD5FtZYpa7G2MQi/Ebl6mQrOs8wXV8tRdaJ0HfWrU1LcvKxl08F1Emmi6ByoOkdonLdWS3uy+kPxRXUCO4dircmBn8gkBm2r4PfUMnegVhKixrE3aMgKN0SVY/OBAo0NX/S8PhE1uI6lB1aoegWg23PdrjHimWPldMQpdewEkMLb/MCt3SMviYcV3FY58FBRiueeK1H1RRJNS9WSil0ts6Ph8l1ki9eDPZv8VlF3akoIN+eExz59kJNyEqJDvoCfV+zZqLT5MD6c637TLuC/Pas/2llUKB7RjbAR9z3l7litYZenmh/MK++gbgY+4Ea7J8/rL37KMtdNkwgoeeLnvQ+/oVL5NYlfaydlJjIknPEGxIE3x+LCfHv9bcZSozxEtfSYpKmccX6k163GZtgzBnFQP5vyXnCPc1oqiAubxS1ZeXBD181SFccckXEz6ri14+NxVKqoaCW/zabhZMLcgr3pPMexnxfp+WL4YfjHuM/vXiDw+xGa1rMNFpvg2+VM21mOaFWQ4+Lh8mh0qpwfj5Mp1x7tPmwiqi0rtYwvTXmr5fWyZOq+lKui/2n5GmtZy5LZw1TsEW6KzVRx7Yqb7qo3i2cma7lDOzX/1+/dUm5TRxRzFH0UU8hXFzeRHHGzgo/C2C+0ERRrllQxnaaWLsub9qKP2JqO/UIv0zF7Y60cFJ8r8yPEFnG2mIPFjjD968TH+k0RUSuwiTdusWRp+mUgJgLyqMRjr5eoEZ8EtLiY32B+QHGJc3tINMC+wrUZemg87sRMtQFipCtddGhSx3L3w8iEHx/DruEvI8jwh42mGuu+sbzkd5qXHA48WC12jjNN/SIeuu+VKxW7z5VFbk12ixdCTnyBQX1cxz1izm9r3QZ+338G3FgEXgpaTcD8z5RGIA36u83pIPFuu8ipB7wsD6jIHxqxZoT/7oGl194j8sVmEaTD/fTf279WEDI9t61+BX7PpvXnV5wgpUrzW20bP65cK+3KvB+a1gP50FULqQEqSHRHl0V+R8uo6Fg5TGbJS6xz+Q+RL7pUcU3vP6zZWyZMTEapT1t3lMxYp2LFgLfjVbzROLXUKaoohk3yOEbaPlMRpyjmPhL8qrQUFhwzG4lG3x4yVLo0pJ7H00kB/mTMPHEGHuGKFxgfrVUhZbXWVAFnPrSbU24vOfcz/eFwnVjAxubq+YyedmEiwNznWTZiz94K4FSzsIsT4HalXBbzBb69JT67h2ZhR/mI73LHQ7SCwPe2sWov9UQcfywOBmFbmMUkmmP1XRO1fOAb5uNtaR6r/FjBbmHYr2FiZk3NhOXjC5zF0a7hJ8Kp1bRzb5I7Yn89B+6Rl1jyatn2VxFnMBvuGYTnln7FL93ep3tBK0sl1MH1s2VRdWqCLBCUsqBp4u6qAl5MN/etFPKO5zXcOTfq3n6zTCKOuBNO5VTLABUO0sw1Syt5xDnYHqjA6UNrIlmZTLhQEedbz4TNb5D+jP2O7OmDVzeppWw3hoVbcweEnY7d2xqIo4+FH8h2Mo1CL+iWTQQhz0q0MDhBBYFypizNzNjUe0v1s7+U+VX3kcNmz5VZDQ6QedH30nDBT1JXxbtJ+0+kbs5k+Qxr/rXE7vmseWIrtT4usUkplvEJsWbiDBLZWhUbaaDYfkD1hD20FEROC77xjN6mgDpE4t7XSPtzsKpS/aDuyZQ16D7raVb5QlnfmCZQCjUruMEKOfZ2DUycEDhzY/3KhEXzujX12nPEXkWkMh35QOsFkGl7y5MRgr1QRr18tOTU/04aV50kR0X9tYLwnsQ1G2sVpbxurNRmhTtx8EWFsPlj5Z5eH8sodyC9myvs1X1DnrEmactRsEqNpRd/CM/CxD2/lI8+Q/N1RazrdOHBH73/0gC5OaKP34ffgvuHa51Ff7PyethIlbjDI/rjM89bhTv1aV3JbS/xo/p7NVXFZEnVHKZHqAjXaa17zekHxzoD9/Hnc6XEcuY1gPp9CEsx8zuZYPpo+jucqHt+pxbqL9VGS7//O4s8H3+q/5MX5BXjCBgwp27Lapxq3itlfu4lw6Mv9Jq9X8wEIC94hjTil+WhoW+6W8oWNoa1EfLZrtse/zK5zQ/7HYHwrVslEPh9CUKetWjBsEoL3eUMaMI+1kLj1dlSOXpTJlet7poYGw+MJV5QUkppmdv3qYvcIDmKQj50wmIeSKCTkf0SG+vE1IdTEHLWK6un549MSCSSYpEGSZ5JFmylQFMRHtheJqrgxf9oJ1H5WKJXEHigKdcKvZLS5BqaMulHp+DeXw7Zexo3UqQLJKSLEuAmdX/DfOs58styuk1s9LZZuIwZUPdfpouI1ZQpZCvI8X/7WH74XuM6h2Z3FZBOV0o07U45TSsqp9Fl0BSL1OKEvyYQHOOHHZNe4xitBLDqnD9/2EfDOiX5oEeeNG2obJgAWBg2iBAQORM80PRSSVpEOv3WANzzLPmBv2bVG/gN7gv4boDkHR9dKzfErM9eQQbEV8r98y7X9Ovz40WizrHI6BHJgK1V07UiqYK9Rp1WimTyYyrs/UUuv2GArClr/edAuMSX/nsf4qZC6r5Dzu/EW0cak98kETxL777SLmJqBPHl7aNLgsqB+r1c416R38fyi7DsPeJ35jcxfwA//LxLx893qxQY+GN5trWQLgtf/W6UVHwC2U+mwWsF3bKJIORZC4UOGyPPtLAtRnMtTYYNpF716dIoHinxYLVYGPim5vcFv74o5xzwprwSX+KKKL58RpHXSq3ztfoYxenQr5rJBWq9n6jlX72z9YIaYF3OiqWZvCd/qxPLYSpuV6rCN65MMzJPq+UzXKT+GyrgT9yq4sqIXCvstLC9tKd0ikup5dVWDb6lsiSuK3HuabrPlf/Oo3CmIPcKuoyFZeq+WyMdEaWpVq8NsCV7S8puZVfLvTHzlIkTBTXPqJg04gtpwHW/YkBbrIZzp1ryGo3ofE3PcPyfLdKHKWMIAEKgcRp9l8S3YZkjyhZX4sixnZdUq9EfDDdaysRHyei4rzweW+tEGljATsi4j3/WzOyzMYz4ReJg54hzJmhPAb5jDhY/8tbupcO9OVL1tKmu+Lm71R2Ss2p3yY2ekmseY8DcC27teFkzREWTwWyI9Mtqteu1mfobLBjsFipy6aF5vj5LrNq4ByO9UkY6LW6knUqUVbA4p8uFPXlu/frAMzzLvdLSOlYhX0T3gME90sN93Nqz9vtb3pk/m0NF2P0+Bn5C+nOcI9hWefHx46KMJZ2BwkAmYS7olk2EwW5ZiRVYuu+vFsmlFGanqihpITqNYy3Iq5WS+PlIXqvfQs68dYREj+jPuHygSJ22MuXfh0rt/ipaGGnXaFk4voz8O1ohB8cHSbWv58ukA7U8flWt+QcjuWdsVzlB3pcj+0+T6P5YhsxoKbvJz3LK+aOcURSNorCncCQ+Bja9DVpaK6fFf5HRP/9Nlg/4k8hDWrzO2Fv2f+x7iSppnE7XwpLVzRrRJI9FxUbBlxJSN0Ida/sn2WVRV1lf8WM9RijO0I2BWbi9StYv20N2Kec+QK1gpVFoWuEL5Blu8RO/tWBn4Rf66t1UKN+thQ8IAGExLcoK5dTz3jM/rbpNSuakDXbTtD35eju5LDpCT9LFt7g+00NK8vWwDfOw7YMztiKY+V9Sno6nuk9xJqJB2CZIfrwzYe8KbmkRybsOenKf7RipGO+l/38sQyJeDOIgaqGvlnsiq8/jB1iYnNN2Q/83outXFswtbExHEncjPe7p6Uk/p5JGWtKfU1gEJkf3fH1tE8gze6/Anufc3rP0e2B5B/5xwoB4huQu1HdwYonkPd4kvjwDeZ8LbCu/32C3J1e02u7BbpeVGRYGuwXyg6ZHhDK1lOilWJBaUJRFxLlAoaX29czRMrP+QXJCiREy9Ta1QF35+YPU/fdYqT1KRRwDkqnSSqlff3Q2aLVz1MLWa/XUsH7+LLXm+4jcOPRBOXLgNBl+6XHSccYDau9PkFPnv+NWihv1wdESf365FqIIp4kQYAlRoCWF2tCoYSLiVFJVOE+Wt+S2K7pJPFLDoLBDq53wE0n747HClQVNEgtzfUXmPXNNRayr9X0TxnMq4izRyjNYjRSqWNjOY8X8RPxYKZ7zQzS/1F1/KhDkp8EfHYW7PQO0dFgBbXuzwBJ3E/egywC8597oKZdd9bzE76YyegMU8GdICbSFpVWTDg6F1hXrIiAc8+snFXGaZfnNaU+xSoHvJj9IDxvN7pn678lbIlJVrpRHZci/2krVmPTre3Rud7lnAmvKG8Q7PW8QfPKdZnSu20bcbDNw558Tr/RnfNLPSTfhA+6JD3v1h2b+pcyCMExEgfSBPQsWHnECji084gW4MczdRtzqedVUxN1nfMGPrx+/QGEDi3rddmzBIv8N2PkscqOkVIrPlAURQgNYUp+pZaLCuoq+Ty18+jeQEmd9L2tO14J59AApsbyV/PREOXmm23ny94dVzfnyGdsykQWqk5UwsLC0T9CfvU8sj8bt5R8rnpbi6Kze/653juzTfpWMfaquNGo0WaI/xXLQKzNl5urqaRapFZTQVOIGf5MJE8QtOhN1U7+1LhD3jCQarpb/Vbqv8GzKLU3NPEuhi7DbHvxj/KagpIBFCDmnwKYQNqHDH4SKlcu4b5aZYU23NNcjkBZfC98KbyoHWJ3461t35l45RSsFw9Mte4NKBfPKU/fU7ZA3W8qZX4+QkqWXyZpL1c9XeZb0WNwzUE3DoJk7g6hsEh+Hfw2/ybtM8TN3FeSO+L9y85je+pP9qBWRUtLttNvkvogiwPI6nUzhbi32LHnq57+R7jfnwDX/GKjkpE8pMzf0udNcb++PuTH/08PxyZRu3z3vEO9Dpt/NfxcD28/vZ5H3WXG2/m3a+1NwflKLvFOZV4JFHtg63CIxDgoWVcp+iPgALbsYPawC9YaKZxm10EdjrSyUB8pcLWO6HSV/757q06VsU/0fjYhfoSL7wk8SNdKCu5EK7Qe7SPPoaVmLwfq6yIj71YCM1PyYK/ILFaKH1M3Jkcy/v5qUYKGzmio0G6b0WEGHJThBogkPqzF+q0RLVOyvVTF6v6dEZ2k4vYapiFMBoDBkFRsKdZ61wpM9kbRrRMb8plDmC1NYg2Z94xbxxh/wlkl1z2M5c48/UgpZ/EJEuEahzXX2/sb8cp7lnlUkzLJPwon/TusCgoH7dNIEXg3j1v99S6IDe8masn1VxJlXzlQtRmRr+vpYHvo0UC3iuu+/X9CY/xQaZuGnrvGbjKXVxB8M56PvCU3T1TrKzdHxSZ93bimnffex2IDDfo/09BGGH49M8Axu0t1ZnPnt7dh3w7BK/zncJJ9ATrBnwFoyDHuG94FR7LhNr8hwjDv/Wjo8Y/mZDs9S8eQ9yvS7E7Zh8QkUBna2z5gGIc9qrHClIKHAKS4V/6EqWz5XC2EGg6m1WYdG7/elazxLz5vI5bUGyEXynES7qIjyiG5j26kM9lMRX6jXTigh8eJI7jw3ksFapmOvPqcW+yOqA02Yg64MHCWyWzROxh4pMuxi1aFrI7lXhTzur2LGWiGuULvVfSYyac61eAIFGgGre9e0bgUwrQlqOR9ype5NlK1wZCCYWj5vIGSINuAP97G2edYKZUSBaU9Kbyxh7oEKHNOpUv3tiRVuljUFLv4SL4SCe7nSM+a+H3ewc8SBeOGmtLQ5g3nqpFVBFJ2/+YAgH8KodvyiYvKanBa/JC/HF6iIt5dmVwzVa+SBNfnjF2uVA5UOS3smAeJdIE5UMDTNtBSs0oqT+9JZfgPe1P2akRovrP3J8mXffUUGTJdPuteS+F1asTYSj+ecdIOlkfxLT69/bvltv5HFH2wPdmzP0gpiabRr+U3vs+4cg2M2wjar2L9v8fCvZYL79rzBtfRn098T4HcwthROIPDbEYQ868ECswJwrSxbVl5kKU2hFHhaEI4XtbJ6azn+oJ5/L/ErkXx5fnWJ16uIVlFRVq2rvqta5B20kP42kh4z1DKcndiWbVqqnOgpjYfICh9nacECYB8kEoPsUVQxD727GpNRr1jKNGL6Ec2cz3mfiaTQs4KOAi2xVJ6rafcBkdHrc1QQy5uQ8wyhM6ZeLZ/TrfnZ4D4bovWONIsZCW9o7K7F/RypG9NfoOG6qWg8zzMacz5k4uJjcSNeCDSi0F96Rlhi1iy2Md5JehB8RukTdjF5OeI86eqQNfibWOpbhhz8SYZGe8i70lyaXPGO/FuOkJxVh3mj7n0RoEWB86QytBGrsADxJE3qbjjnmo6JfERkc5DHPFNMKkcPSNzvMDnqsc9lZrONFvBxcX33G8tLzP+27gzyJxXWBmy8gA/pNPFj4xn/vQDzx/wF/xmDY/stgHcEcOuTXjGAjX8rCenPZMKPo+HHJ7CzkdnKLtiWTQQhz3qwFihoVDhG95S15ZmGhbWXsr5cebdAKp+xRGbJafJjfT2lBZdyX0W+BSL+qwq1Oj99/Ityx7B75JGZrlVV+r4tMlgtbRoPrQExXqE223HV3UrXf5OH5WLpJdGoWyXqf6tazHfJihJYw9zlCaCgNPG0QjMpGHPd6GjDxGehxPdgqQPXCNUKX87VD74ilacgxnLbV2PTReJbbpO4CVO1sBpxs6dMZkk6V/XAHwQw+RBKk3H0qZrVy57wCUPdlbXvquNHuqgAgs/1H+Q9DTexmEunujoqyCdurXOL9+YgDLpBPpeno6UyJhov30VTZFXXfWTAR8w1J61gzbup+G0iJJbfQDqSPHbxupZ5YflZ4wbDHfGX58pJ1GGonHLFK+676va7XSjPS6XXZ8vLbU7VCosNbiT+Pril1SM9fuBfSypAm2IVIPMXN+Qz/toGxJNj8sXeEfOPdRW4bgLvh2v5Yv5kioPd2xFYnO0dChQGMglzQbdsIgh5oWGxqjGrrNnAN9AC5B2EQAuR5SJVtXwrpdaz+2raEpHG974n5X/9Qlqr5b1YNfWNCufL2NN4bmNvL/JGz2qrs9VC312tbt1PiGbI9XWw+ikoEUYKTb/w0ycH9kzmdjekeVutukOIR8oC76nHlTmvoJULFd5/6PaQivBrWgE59yaJqqvfE7nfTZ5kVa/hrNwGGlZlPV5En7VdY/Q4MV0i1aNciW7XisUZsbwc3ylV4rNlUkzFAiFLNXvTxHsKH0L5t4wewCA2niXuNFlzzKaF/XLCN1GhWZhjEw8K/5Q4vHGTNGOtWwfN8zx/khwVYQFTUUkvwPV+J/z2oRLgi40KYf9HpJT86MYhvBGP02v4jV+IpFnjfr6bQPn8JHfHKsRuVb0toc93ousBiM9kGR7NlSmDjnafPIXcUwfLguuqyodahVsQHSIjYmuRMIhLJgH3sfgmLREJ9huAWe4GacVdapZGHngzyRd9phpxt9+HPELc/cqL7ycQz9Rv7e75AzW557vPNEd8a8EvtvQKTyDw+xGEvNBAwcPQ8nThSBVIo6e76WQj0PmqKsgjYvl/UTNZsfthrLcqFfZTa1vLzEYvJvLMxy0pUrFlsfUGvKJ2/c/JyPZicVuRKTRbc8f6Ptkn1k184/W0TEv3dx+VuCbWtfo2R8PH2m6iov1JJPHFun1+uRzaKJY+/S6RqKsKznh99ia9/rM+w7SscyNpv2QgDQoyLn7DiaZ8yYc9aHVIfXSkPh9mR9AolKkoaMHc9S45J2ooc484TOpFND/0l0bxMak+bxUEN7p8oUR7WhcE1ijxB8SdPEOgcI+/5CtCv79WOrD2u2katdJRQq12N38YMbFuAtyb4DLfvZgsiP3vfWv89HfIiy+GRl25YNkL0rrLQDl9L75Ry69CF4E/YI2wiDvx9YUHuFdcq3WZBDATmla3GI5Z2uRpdYnO/1CaqnS7fGHRPq0X9Y00DQ9F0uLg0bIs7i7xFbQAET7vgWHx8eNGnMyNfx0x5Xq6Wz+tvLi8X1QxoaRW0ggXd8pMKneAP2xW2QH84Vp6PltcAL98/HtWCdxWUnEMFBqwqDNNK9vaLdss8jD9rNBAAUhBx55CiMIxBU3RWv798kYkS8rsLcui7+XwoerqQjWYl38kz0eN3VN8ZxwmjNHrfAxlPIJnflIYqWg0ba2VgvS+6pS1odZ/vH8kUS0WZrH7CGAi8EnhulbiY26TgVpDaCc0PyOW2P2MWEfwmkjcrbG0uXeAHCr/kTsjfrfUc7fcJjVumyQzIsJjfnklte5VYLDwieNDN8kbXZrL6Y1V+MZuOk0rPu82iQ7TdPXglWbMAAlGbOkTB/KNuBAewk7zOULJOfE0cT9KclbVkVU5T+rxOSpmh0u5iE9nEqckrgkapx4q9ncikOQBz2YC4U+32LCCcc9CLTmyKOKTdvdp/mtlJs/nQIkT6STeJjj8XlBMTomrpNYh3xI848XbHVu8isvT8RdyyZFay6spctGzfeW5mztqujS9J2itUCsm3f5i09R8fwqKPZvuB+cG7xVxwkr+XlrE5WTEPvrubLIQzJbiQdq4r3lH60/91Du0Sbick7f8FuTzlvxNxyoP+f32ga3n95t+dteKS6VE6d1SVwvOmpW/yE1l+ofpZ4GCQuFihRMFD8cUOmqNLFKLcfQCeb7MebL/td9Lv/h+t/hZ8bEik25qLDW6qYijV7TMny3S4GCR58edpScqGteqxfXUNWoda8HdBxG3QoxCzTbCUU7SAvZiDjhHwP3CC3epZ9WobtubAwpkE3nE7io9bSQjVK+WS1kV8ZZ6Db9wU1Ki22+VGfcykIrCHMFUIbEPiWnB/m2XsnJ6dHSyUpwfr9T+0he1otCDJm9bxOQdWb2HRrgSzf+Wf8SbY+Ju11ZK/HkPic++PHVtsoo40/cOEsmpKuXOxi8scJ4hTcSNa5qpfO2sIf3ttAzkB8+kQ2sHfhwipdi/Txo07RtE3BcIvX8unx6zAoP8YttbqyOkZ2tI/TYb/CA88pn9Wrkkqi3xGZG+S6Skvwy5Q3+bPirimpXv/aWx1E9WttlGCCMJJ8H2QBz86xYnRnEskR81d2QplTaDe4BbO7YWG58TUgsZKU7EwQ8X7JyKHr8FpLvZEvw+6S0BgcDvSxDyrMYKCCuwUoW6s8xMHI5RIaEgWyiXTFWLarzI49deIzGtxcz91vP59+4jQustH6AaIBLNe1jaRUfqyQMS7xbJ9PZqzZ6shTirZzUirPN1owkWsaBgs8JtsKweq6/MSwgXlQnccs8GtRWXafHzyadUWe7cuQEKSo5VaNc9IC3VUn+30+kiZ/GVLZ43cdlb4gMjKbMmGUl9d6w1grIcqcCVaCUVb2VhecPyBCjE95anowN1j0AyQht/D5I9Vj8u4ioV5BHXyD+eRQBpziZu6ySqdadErzC4wCxg7uueL2i9SrdB8imZjWlmj0WvYY9HKGgBKAiEwfaCzK16mAq4HubQ7A/4zW9t+afwPe8NvznN6dxrIYMX28dZtgR+shEmkGeEAcn16KZnpe2Ip9yX4ljMJn5N34n+Is2u+0jOGUzTN3lD2tNF0/zmOvt0eMZ/zvb87lSKfIifVf5KygHytb4nCLK9I/gDFh5wjXESPq/p+0zL0tbgpydT/DcHz/IeBAoT/qC1bd2yiSDkWQ2FtRUyXqG+4RoFqyr2eAadNZB7a3d2rVPxjSrWqmkrn9dCSQ2r8j8vk4V11K3eiyYihj9ItxjV1sL77rlymNwvUbs71TpXk919+IFCmwFRWMeEgQgmlYWcEmMkPiqSX8o40zyFfUSjpFYxDkm6Izvp9hBWJAWjFrTDmWpFIb1S2sbF5OE+l/HBc4W0mKCooJ4fy/JBf9LjPVVD1Mo9i/nyag2vWaAW+/16jH80u5pVyjnN5MnI8I1wHX8XqzU7XeJ91do+AUGg0EcQyU/uc2zf1dZwqjHPHfDbrF3WYScfUmlxe6vkmDBaH/zWwPPWt63pnzM48c5979vCACoZnKfDCAcqc/1lfcWH3JX8sefNTwIC0s012/gdVspAZhrMWanvz6vy1w8+kA8u+WvySP1YpJLlDTMG/HiZ35YXkCne3Cccc8eefAWLg+/HT9Jca6BtX6EpKVnGNy9WsaEywJiK0tIi5j1ITzNwLVOcNHz3XgD3/We2wLlUrohvAZ4JZAVhQZjA7wjCROHCYB5EJ73A5JypOFqoXy/S/YtHJToplgjjRMv30nwX+wg1kM9cL/uP+l4+uwkDvYzEt/SQe/+lhVBZveDWNPcXAFGBq3ilVIxP0WOak7GEGOy10i0A87Y0ds3rxeZqheEp+2qYsdI1fUfnv+damuOHI5mbWvB92sl/lhdjPpYuKhYL5SP8cYuYWFrMMusp0XwVjd5tZe6Jaqm6ZTkRXfqoTTxpduWaPYPgIQg0oRNfBMEqIfCmREvUMn9/pB6TRsLkGXU3sadMdX8GCIX6P5NV2MwNQsGx8lA9kVPwn3Obe43/xIfwrDKSH7ixuPEMI645TsXjVd2hRRt+481h30ZPxW2z+P5xnJ/wkJekgfXg9f5DrWXcw8fJ8Z0/Ttb4v1Otcz5a4uJM10V+8eQ68crvvv1m+AO8W8Az5A+tQcSR+3tLuxdelYH/0krgWX5a0/23d2h/GeH68ZPjZGqfPZceH7uuaX6fymu6n1vBS3QX8Z4FAn8sQcizHkSDwt4KK4OCTq+hpf1UzCuJ3HDYLTKVAlfLpulNRUZOVOE+rraMfFtk2PHJl6npKufTpxMaicz63wESz48kPrihPK8eYWW/pCr9+KJI3oj+rIKvtYNeudIk5hNiFWTPaIYb7jVWy/r+ahTWuvQTkTrUGoijiaYIK8DKQJrwn5QqknyxrGZ0s5zXkBXNkgJ0yF5qfo5mhLq+hItQdApRrNri8u2tZeWga1SsnfAC6cfSIg+sALaBX4klXDdeqVa3pt1B3iDIqaZvJx4IxhyJF5JhXDtf4tzLJf535KorS3fVP4VDsMz44hr3fQFQge96lywdEcmX8cNa0cF0NuGD9N/GB38qaAbgt1q7lcz6I/58AZ5Kmoq6ellxrdaO8lSMtiQueo8vvOWLpYG9NU3bNfDvEw57KksaN6LBzD7V7LpvjpUlz+4pzWbw+5kQ+5BfPrwL5rflpW0GeYYIcg03hE+gFk8qUXXlxQtOl9OOGaQVHau8QHqecE5XEJWjmbJqzS26V3/c+kG+W9JmcfCvp/u3tRBHew8DhYlMI9ELumUTQcizHqxya0I0KIwoCLVQvVMFSq3vRvVGyt1H3uEawOmjxmbi+PNoqitqWlVTrThD5OA+IgNUi+iS/SxaII+8nugpXeoPqMAjd0gj9++9XeT56yPJjVpIvPhi1+BO0Yt80Q4wjX72KVg9x6il3kUDSCygjzo1k2g283YRYKAPvYlEExAqtdT3TaYCtY6Z/GZfPaMwx+di8qeHl8stwle5KJgTcU9aB0wwE+Go6loNkubvydE6abqYKUoUymyEbQU0BbhIieVt3Idh4tHXS/xilaRbVYMhhDd/1evvURHALeHwLCILyXn5X++XypHm1ACRX5ZTIdhYeckf/Nlfio/mN9Q0LBirexMTrF8qG/pLXT9aFo3RONW3vl7SaP4n6c0IX3hzMwIyQdiExd5aFyxPOPb9pbuCe6RV8xErvKJuMz+TyU83kn2/+EGz61mNp7V6GPjDMxZX9uSohWN5CX7YYPPAeZuAaiKLDaU4pIGcH70iQ6PlekL8SWt+2PQ0kZwSN+v/+iZPGyjxLH/amR8Xw88Di9eW8N2l/20GCgO/6t/59m7ZRBDyQolXGOWoCMxcJn+R/7gW1woMBC8jcuWlasNq+ciHt87RyuNINXAR7cGdkqdZJBXxpmjjlbxK3SEhVqRSvLFxHwZrMNjdnGM3UVGIz0b4KNSek5YlYlk6SK37a3pINMSaNw2qEvQzU0gXk2jJnRLXjjTGf9FzK1ypdiAQuqn1yyjqxG+EmvuIAzFCcIhJcZkdcZ97XB8tHbXCsbFfG7/wE//ZisuasmMlul0rE/eJROc/K1HbWB75OpFSKjAPqI46i7n/TVoxuU1mSTu94ItHSkxOWia7lWXSNRUPK9Q318T6paytqPE56SaZFZ+n51QQsCCJ91V6XXP+If1FmqqQMTDPfVSFXCZWYFYwaaILIN1qt18pE967suGYfOHYRIhjf3yB0kPjwEty1uH6Eo2Wcw57Ts6/7Q3pes89etHCo/na8t/Sz+C7/KxU4kra9Rm3aA7fgWdLKnRJflqalTn0jdPszTXCxCrf3OwAsDTivoVEh05NTvPMtycfgXy0tNhzW4O53Z6FZAJ/JOvVos7c9711G89nE0HICzUlZcAPWnAu2EOePlsVmu96HKOS9oruvxIZMkElVsvGT9TapMil+KbINamjmR37iSL8NXVXsWbs7F4rlnHPxrMUsdi4nGOtUxwPIxxbKGVNT7VY75RTe6tYsxz7Bi5I7fEVKkjctodMUmP0Hde0bBAChaqKy6tYfYgX54g2BSbVDgpgYmaFb2K9XRbzBa/icu4JsXwtPeScWGsyvRlZT5hNJb5XrbLR+Mn5v6TlW0NUOHNlxXeR84li+dx4H7m6i1ZODtLKyAGRtFB9qXqwnuuxnOCLOTAfPinM4/FuxJ4cHeekWicyobm87l63CM6hbs43Io41jkB9qRmh1mRXphSUlK5NVCg70fdq1qpVVtgjvITNyHywSgTVKms9ALueH55Y5ovGmZ/n1c+07tVU8/UAmXbrn/VJqwSAtbiQr7xJ/Na8hOlYGiAl8n0e0f+scmf30jH/DeKt7q8ln7eUxuLSg2mY5I1b8pf2JN5k4FcvKXVjP88gv3ikY2GnVX4CgT+IIOSFmpVyu9yiQlBCar8yXqY/pkWRWpuumFfDr3XNpMj6UTdkAcubYhTprbVHMkMMGxZbF3ePT7M+5sQPZAMLneIKmcV+ObyZ/qe0OkC3+ipk+x2aXHCsdYuTxOPVn4e08DyLAhRftKAvwZKre0t88MWu2ZbKxNvR99IxLi0z4r7yvFwjj7uBcSoUGwZiEysEHJvZCllGhJnFlxSoT/LpVcTx/Z4qN7HcH+XK89emRtb3aipR91j1nNXimJY2X0ZEyyQ+PpJ//Zz4QHFeIvpOon3UndZuRjTX0EaJDJ4n8pRa7Cs+Il8QMAQrTUBSZbmbz10HAfYxyy/VV+/mQy9Qo55R5/hFnuCGX2F/aRuPkOOdKJulTFiW7kwi4907xA15T+G7TYtvHriHAIPF1dD0NCS+r2klZLbG9kepGX0sg6Jvk9t5ULenVJVvY6Y0kk/pEB/C8psjeQNIJ9ftGY4tvrYHP276TG+s9NTIeffp10yslDsG0Xqg7heZG79i8JNMjsjrbcHSEyisZLKyC7plE0HICy0UwPvL3BcOk8cvyZWp/2ooh6mI7TY4lty5In1zL5LP6OdUKCbppaY4ZI/2/LA6mWCGwLdtopsKM8UTol5KNySU5xgrTqMkoR2/ZheZ9J5Ilfg4ma4Cx2CidgtZ/SyN8SJDurRUa44CFItLrWr3xbDDZdDc01zTP72h7TXMx6tcIx9F8+UEtaI7upXnisnQsZE0ievpMTGisDdhozrhw30EUSlGlYMUDlExf0mOiKvIbiseFrkeMVKBLYF4UoXhme9lsBr5LbTeQHqx/e+M73WfXV2gRiJ50n9FEir3SqvbRXK5CjUD1XhiYyEetaeJXeS96N/6v8XTsPMkzCQn31Eh55yN4YeIC1Ps6srAF9rLHVTMNoCbTJBmE+BU+ueQv+kWJmTyg2f4dbmHoAK/uA/3uIa/JeWDx4g7TduZ/Fsrb755vDymefRBnP4+EE/yy/yz59lbfLGULU2IPedmPYPFzQSfZ2kX0n01E+l0Wkh0/vOpY+DNN3g+lW+bBTeZ8hSyq480UDDC9LNAlpBqir5UpAbS0+gR2Sf+KvkGuIpQx+Ofc9YzdgtFYg0t907MTYqlUvFRUkFF+AK1yl0xhQYemHSJspAaAlcrri2t1DLueLa60fK1TVxC9jh+vdQ7WI2vWqOkKiurvi1yYXSZHuQlmhNL64hpREZitsb7NXQruhHn9qp70de9JJp3q1w2MJY/3bxc6o3+SC3zdq74TAa7mWBmsH5O8AddacG8DiuN/tMKEueeKx/LX/XYmudVUNcg6Hy5LPGrDWPONJ8Ii4b7GlF3GTgmqdzQa8vyL+2rafr1JCobS0X5ReJ3I7kk5k/GL8QRha2FSg3iTlyJG83rNPl+ohWOSEZf0ED6uAn4NFFnSPMGSJNVavAPt/zSJnTgP2/XuUaKeZ5mahMzE3Xup4dLXF+QqJP/0ZFNqa+VkTu63iPHdeIDMD7E08JJh9+PeNtARusLp3Jj3QdA3BB5P87p8fSxe7SEGLzdPoTjg7/p6ccNrT/p1yH9PBD44whCXqjRQlI1penZKj+Vr5TvFu6rgqWXGU/VQWSeWs+H35YqstqJ/PiKFoe7ihxRQoVD9aKUivnB/0i8WavWey0tK5tiWKox3PDuqTK7i8q66k2kYUxhQvqN6scSkenqtvjuIp8urikntpXU9DQPN1gr74AnvlQmWrHoUO456d62p0RHMC0NMVMY7X7nU66p8/H4A3XWS46v+rHeSLd6PEF4n6VYTXzgIHmWOfLnNZbnnj1H2s8bqNdMZHFDWOy5Vlq+OybHLZZDdwEN7sgJ9RnOiTmu580UZ6HfPfIqDa+4RCNjmaiSdU7McO508Jv41dVo52clWlwRMOLBdpDssuhCkV7TpWk0TC5i+ltZOj3s4yFbA/4wYMwGjVk6DesT5xpvg4kWqeSaf98gJyy/00UvL83iI+RPUVeZ/FB1iR7LJPgWnl/RgMlSMWY1vi1BfqW3HPhxtXw1GP1hMxgMf/paJvD31NRYinTwx/cL0ltfAoWJTNPJCrplE0HICzuY1Cyb/uUAFYMSMr5Pbfl+RglMWrdsCmV7Dfq11XoupfpQTg3d0l/pOd+W+VVFmZlfWu69uvw02eubb5NKgF5foOVZ1UELpO9rFzlr/bjq46ROy3Hy3ap9pAZtz2qRd1L7sfHz78mYyE3Y3Qyl5T51M+bZo2SX0nHq4xuIiCfMqf5LPqTiClW16jfepxClsLbmVga8YenhBwVqaYmPaed6mvn7uqj7y9L0YApyG+FsBbH5c6rsXmKVTDozCSFXBf1wTUJV1U6kBglroHl1sF47JR4nNzz8kPti26MXXCovRkdLOfd1trryfEzfRarJ1s3n1nh3bSXN1jLfOhMmBnlFYP37rGmr6T+9gsyINN58YrVha73mC1S6WBmZrls4+YFoWX6A74ddwyI2d5pLfJZ2wfVa06OS4v9udCvQGaP1vz1ZyjYTVBTokmCfN76LajFVAMj5vP4mcA1rHBB0nrdzI/053iVzkyF/8v3s6+GSU/+71HE6+GPhsw8UZjJNJyvolk0EIS/saNmac4oWPh1yZVXvXeX/pLEWv1qwfiDSgvlkKlZlh6lAz1b5QIDVKj993xdlNCusrlCRx81EVlFvIzfufpdMnlFdFqv1Xon2ZbXoO9Z6TlaO18KrlVrl/zpa9iv7nSxQ7Xpm1nkyoVZT+WgetQQa5LFpM0A/+bSrta4xVS1OldovrRBFIBC0vIXwc5FWHFwhzELxCImBexIANhQvmf4zLX5MpmuFpUITtaIxxDXeYx47SW5g8ZY84O9aiUcfIHuqdtar49mId4lM0prP0fEsqfqpnp8tEk1bL6/JGRJ1nSvRyR9K56ipi+3jza+RD+U0afvEEJHxbTQ6KuKu1qQ8dJcKW0G+qqSi8JD+IS76q8gb1sqgjGfqFccmRKnrDq5ZvvnXM1mTuDM/DDvP5HcmtOLEx3R6agVR8yzv70KepvqRmTyQL2ZR+2hFy82DJx7WKuDDu0D80yse+MUzqfjr+7WpyOOGZ3nG0pnaX0t3AXCfzd7dnrIq5zHdpwu1+cs7h395K2KBwB9NEPLCzp2qzXucLaf0fUW+KbFeup3TR/Z/+HsZuV8jteq0/O2gBt7Zf5JhKugT1xztBoG/Uet8aTpLn6UZXgVtgArf6dH5ckbUR+p+PUMq0DKZaqXtq0bnjGJrZfB9eqI6WvxYlW0t9/7ecJCM1XtDD24mzwqjuq1ZNw1GrteksGbYXDq1pHac+raqcVIpqRIfrweIkhxvOa0AAFRuSURBVF8AU+AaWOMU7vStihxWZa4rtheMSSY0DZgictwVw+VYrdYkmD/fyy9lbpMRTUX6qRcD1R2xHvy2bqclRfXz0aEy9kiRYVqPeF7/PA4ut0jiz9Vq7NlU4lntXC/3mHePkqZ6EHV4WOLukcSP7ibPrtO9W3yEgp6e9q2BeBWXKp9+IbdUYEwAbQHAnioG930hMrjmiyl5k/i1ETv23Rk87+8NeyY9vE8kp/xykf76OzIbgfvVesre61g/v43+XsyLOFPix23Wgz+wDPDPfj//d3xB+DTuxjSmx5UxBPwqdl33A/W9OJ13g2eS+MdrI1m15jqJ3+ohcf0ueoXpfWDPmf9mRZnYc58t/d215ywfeD6I985EmEceyC7OUsv7xNGq5zclxRRjutRQLRmNdccUP33fTIqi494e57peJ6kAz2bWGB8fUws9t2bSWM33yucfsI8sYMaXejZwQFIkNzhAi+v6ImMptxmL9ZXWAdTipy/5tP3fk9ykVbzArF+mdnpHv39dC1gV2f8+XFPujq/ScwpUCl1ib8fpVJbP5mnRvWqJGzaGS7a/yWhp8QEjm1U4zqLgbyqvym0yeoW4hvGODZLqALKCPUn6aahn1jrVg1b7iZTXSkakdYqo1uMq5HfJBM2z7meIzIo+kUfOEXlJusgDqjUj7tc81LybrvfvjfE9HbMWN2VWfJnMjQ7TvCQWJhaklW4EUgK2z4QJIG5SIuvwn8kkooZdY1Q6z/B8enjFUt9mh5T/M3vKnbveJB/EZ7iZE5Vi9ecbbjCojJYTP734R9rIB0sjlRWN97kc4zZT3PiFGLDGM8z7PkHi97XCdKFWGMqTVkY16Ka/VanV6yU6+WGJJt6qvzcvNvlncbA0kU/F3dK8efHjCib4lg+Ew9sR2FnIJM4F3bKJIOSFnI9urefWvKjdf7bMi49Wi0TL2OMOkkbHiSycmwgfRaazWE/W/8olPYhsjwxSUUN3VLhprGaRlq+j71wj5wRXKCcNnqx+NmGi6n4/rQA0V3d6XjInllXxJTJP3e27nz86eOvZpZwWuv0okI3DJX4skmFdGYlPf+tFamkh6EYFKbGcL3BZod9NI5UrL8U3q9Csl8t7xi6t3L35X71dl0GzuJrE7SN5WKUdTtR8OXMPFecX1qsMxy59DHZjZD52GZ9ouXJflaOFI2R6NEb6ukVvTpL1e/eQhmNjmaAmPx0JB8XNnFQQFpPIEHRy4Yioj7znPv+m8rCUJl9AiEwUeCIRrvulhxwaUTMaLAPfpZZkAwQRMKzRTPBsukCBXaOFw44Nv4JgmBu7RjUI/HgC7qyiAOyT48ujqnJ81E7inyI3//2pLm21omijw809WFjEw45541TYnZAjnIRhYRobwwIGQ0bL4+SH0ndkStxF349T5Kp9707eJc23+HPNezftkTfcnt3oR7d4nbzzbForUJ64gp9PwGTJdDeBQPYQhLyQ03gf5iDr1kot7kbj5Hu1OKtVmS/LVAf2f/t7aaWG1gll1GK8Iik63awuBYnHzvjXr+7UNeQiH1BPxe4oddD2mqQ4xCqnaJvUQWTXuKIcrv49HZ8vZ6mNe7C6/S7i010+6UICSGym62A91YslGveTtPpU5PRJfEC9v+SUoK/cmCNr3ifmZm1p7CpSD9lXxsVawzgpCQXb6bhjhks8IZJn5O/ygN4ira6X9lL1dbXI6D83dN/btkbYlzXx+NqRNWl0G31+C7lGhbtjTc2L+Ct3P+4QScMvf5GWWgE4veq7Lj+RIOSHGerIFHl4otYO4pq3ydpOfl8r8WVNdOLPkmnrUg3QxHaOtG5O537S55+IBoPDMsE9ExXbE44dqzVcOVNfuQ9xMfcG1/zfh3iykUL7fTZWQsyPvde1kujXWAbMvFwue+H5ZInZDe4NPyw7ToXVjw/jWOuDibnFwxdUjvX6Gz0lur+XxKMiqfPcLMl56Fd5KFqfOFFOrUnnB9A/xNsApCPZ3zf/RmkRbe033A335gR2IjKNQi/olk0EIS/sLB2s4lRPontiuXMsKqSW9zyREQg0q2WqdhQ/QGTsY8ls7viYjQ2cSAX7lSr+DQ5OilBnE85Mlmx94P7EvjtBy0GK83pniKyJFklxtWj/PmiQVKyyQhZ+sLfEcwnXCl9IFwmNT0xk8hMnCmkt/E/QAvaEEhIdqdZVfd9SRxjwX58/i4FKreSjmD73F+SnAZHUiDrLx9FUebVhJHW1kkEj9QftT5UvXquiVvX3TiawmnOf0srI+dj9anGfOkE+PaOm7LtmF3cfO5JQhmiaR3ZXIR+keXV/JEOmqRUXNXWWezQtWfwFK3LWnMjl42WXxlI3rusmO52q+UIekmnD9Lk4sj5j4JvnKiwPqeXdp57ItJu0QvC4XiNnj5IhL7AyGyuNERPSmhIuh5+3kH5uFjfQvOI3sWeCMMHcEGt+M/93o3+FHKGiYVU84mSCm/jxfTH9XTtoePpuxPtEEvfUNJ/FinWZSBd4/FkoK9b9Xfcu5xQLA4ifnw67vk6iUbfKrIsOkCbdaUPZGO/hUdnUEVVQrWr17iktYtpQ+LU0HZV5fyw96Vh7jmFh+/kS2BlImsczj0bfui0IeWCHkhTiq3rtKlfn3C/lqiR9vNgQY18Rmc3o9JYijf6R2HsvpMowikvryZzws4qUVgQadUuK5+nfJM3HiLhzp89QvPV9XaQGo5ZZMEsrCn21wrB/he9lBDOI+mAFqgf50CJiFLZfgBaXTjHTlig8KShVKt9XQfCW3IzPu00t2+v1iAVSsKqITTWtFLSSxtFFckp8mJTMedUJMfGjElJcnSG6tEyvieZKUxX2NmqOMy75AdVQ3OALan+yvCUzS6x3ljHVAlpsW7+YxAh7TjRfWmsdBeG/QP9ur4ljiU/aTeSlBc7tCSrcH/aP5Idosvs4zWS19Pk1xmpFiDgM1MrARhgtqLEcr7uXdKuZyo9qWmuoeaJrKk6gXx/SxYYUkgfsbcuEiY7tfSE0EGeumxuXI4q5xW/u0ebA3vfLwrU+Y84vkGjmrRLtESd91K5pOxN+mhiNkIRRZvQvus+UnvSwLX7JtUOjN+SjxY3dcQL3aXsxistp1wySERGftOWX8VtI/PDsmPRaXoCFHdjZ8Pu6t3XLJoKQF3rUij1Jre3da0m5hctk9ee7uKKsYzUVb+ZG76eCohoS363np24syk5spiKlRkubVEvks+dGskyt0Xavxs5Ng1lqgZ8n8m58g9Q4DhEbIc1ZCOVdFf2//CSz21aSbquWyFp110Itfj47Hn+uypYvrKrms788Wp0lTyncrfC0D6yAVjtyRV75nE+VMi0LaawgcZ+ztFLwoQbXxTXtS7HWaiA/KR3VoCXdUfNYTlIrm5Oqu2tRrpbiUxO0AqJpoD0Aq7nF2aqdD34q3z18oJPGqlWTxu4L1P1narFXZdwXrFDLWvOk2qJV7sMzV0Q3ywgV6fjdA6R8fJyUSnVXtNB8mqzJQEba9ksqSFSE2rp6DVepajDPT63Xl/qq0pMe0qwBzVSxmHavyFJf/BAQrFoTEvYIJ9UznkOUfMFJh2lbhvlhIghcs+sG97nGHr+Zg+8/Y5iAGyslZ1XKCm5EJcS6Bwz8yOSPq3Ylhyeslcdj+1wP1+wt9Z9Ljy+8Kesr/jN1zLNs/nr3B8nQ/7AwAvmGX9ZygV9+/mXKy0xxDgSykyDkhR5VqbN+lKOjF+WMMm+oGA10H0mR+rqphTh7YSVp+4EKnJqkC94UaaVmdtOHRJbptWUHiow4R0VdRQ9BW6liteKCSCoh7mpY9XnxErmjwz0yaVRSg/1z52/l/H2fFplYQqotnik/9N9XGpb5SJapBX/Q1zM3+Xzp0fGxqaNMVFArjr51K6BLS8XYq+WWbe2E9JyIwW00yZaUS+JVIiqsX+tr213Td1KkEaW1u197GfP8Ua6Yjv8RyR5nrpeRzzeSEWpRP6La6QR+1CzXH/655sniV1Q7+Zb6+yIHMw3+xmR9+WHq/nA1zV8b1sItQTtMze5WKsy/Hp4jLXR/sAp3i89FRjYXOSzSTGHEv15f+7ZWev6RDIma3iGx4Fto1Bbeq7nakJYKmnkRKiot2PoIh4r7S7hkxTHO04WD6oCP5ZNvSUL6ufpT9uDUsY+JZDr2fLpQ0kZhwmf4bjjGv+KyKucZdyUh9RUZB/fN8iYc/3nu2fldcnmktZ5OVOy4xjNgz20NVDD8+OK/VhaqPSJyiE1XKwgFdR8oTKRb19uyZRNByAs9NPKWkmVxPRm0599laHSeHEzTt4ogq7RVnb3Aid8CtSQr3YLVrNdVIxaraJdrKHJgXGVDi+ePelzmOhVjRmqrKnVqqqL9ntYJpsQyduqJasaKDBrzd7fwx/oee0ibLgNkyuIjpFwnvkiuVmBPPsW5kXERK6vYcLJ0mGtNZMwa4ktujDxOsVwL4NdFvmBdV2e9lZb+Yzq7ufEsVvPZRJV3FVFGuc/tEEmTVz6RVimjlxb+EyeOlTNVjK9UTaOSEnc71PnSQI3gW+KHJB4dJQOzpummVNhPLWhNH9l5ZocR8sviXaSVWu4/XqNZQXcxuqZ5Oqrm0dLsnVhK69/xGkRdhfsn5uPniLTR8MhKxhtEpWPZ/4nvZcG4cslIar56Vgyhap18WORaragQIfeEL2rAefpcdHOTbj2mW8jqZrkteOJjz+EPm5Hun8Uj9VJsEFJ7jvv+sR8n3kWqTZBaJMaN5ecX8MM3N/ht1rfWfNzSvlzjvbD+9PT4GTaQbUtoeAVZ7TZQJAjzyANZSblopcTDI2eRjml7lLQbpmLhOnoVtcYr0SWr51E5FaZ+lVxxyndMD3t4rhOodXELOezruRJ/qAKHoDFzCoFS6z1+K5IRtZvKt/8o6waAxU9Esv61SG6NcuXXkapgqrXLmNfmZmP7UAhv7aci95fLIprRjdLy6Ys1XbE+I+bb1d9L1HSRRE20oqGiW4tpcyrmE75OGk5jFdSYegSzti7WY7WamTNOB3glDFS9f8weWgF4U+TJPbu4Foc41rTyyVS1qN03XdVan6SVHvRoj5brXatGKX2uKvmh90SN8OOeGCczmleW8lfFMlGTTmtGaQaja7jFNX+PUc2aOfcgieeo31ph2v/172UN4ee0F2Fguurb8Rd/nHyNtccQ/c9wv0gKE0ffGjWBTSfTda4hnul+MgKCfX5+gR8m4AebPcP9TH6YGyogHLtaSgrSYnExN8A1X6jNDXG3ioCPhYk7Wjnyg+dxm/jf+k0y3khPXyBQ+AlCvlOg1t40LbTUkj6r3/PS5O5PVOu+cdY0U6mG33icTGCasoraPLW0qw5LBmtNUOt1dFfdq8V5SDRCRvP9Ci0DR6rIjTxfrXYtbz87Ta+p6Jx0/BiZH62QYUw3VoGcvqyK1FALf3o7PVeBO7Us47ZRp22FldKtOVkjekiuHFllmmuQrjZRrbp+NI/uKbPU+qa1oL/WGwZocA1U1Cmy31EDkiliwgAzFVbOsekmqUiPnacHmjelWokc3lYF/D+RrJ2i6dNgRp+jz5NPKsgD1R1zyhdjpWsYIzCgn9dKikZrrGbYAs3SISrsB+bMl6m9I9fzLXzOdbw+q5WKgfpMVEJPo/kyspM+/7A+o3F5dY/WctoPGjHG7c25NxnPtpwmdSzPdGHkHAFin8ka3ZwQmRACx77wEdtMogn+IDDcpJ+T9xZPawGw5xFN4J5do8KAe0YlZHoGuE5TuMUR9zxHePyQvKH5wTP2nOGf++ksJkOOZkYAYZMu/16gqJJpOllBt2wiCPnOQKNKbg3s6LGh8m85Qj69saZcKY/IyLcauVlEpzQfJQ0oy1SYXLO7XstV4WqgliZ2D2N6D28p0vRZFSoVaopUhpapLkllPq5yl7pRsW6glnerK7QyoMd8OOQzPsCit0Ut4d3a5e0fz4uTvC3gT03S0FUwsbyhT/1L9Jz58qWcsP+oZXx7tXJz1QIemBphv6EYP0/jqlY1cQeEmUbYBZr2sYg8lRW9+ZlWRkpq2pChL7HcNU1t1QJnqBZfOF2rGkODBpUcuiEo/rEjWz+l7tU6Jx4zdXtEw2f0PmEgV8s06oyCJ8UtTk0kqd0Rr8rQMedJ8YkIl7r6khDIYUgXFnwhNSamvvgB7rmWft3PP+6lCx0WrP+Mfz/99+GeueVtsJYD89ePGyk0kilpSRp88bawbI+fwD0L256xcA3ud04ON4Ab4pDu1iCPuE94Gj8+KuSO0/v8A0WVpIk807Syrd2CkAd2NGN7ipyulubnp8ncaKYcefw0mR19L6WjsTIb9aFZ+GyRRZ+WkfFtaydWpArl0M+bSSUV9tYq6qPeOpr2cflbXEIavZusflZd39XSZRLr3DWUqqgteEykSsNYKj6xQqrrvWbxJHkK1eyDhWkFvEelnrJ+Wfo3yzO4c9OzoKR0jNfJ+rsjWaCCzWKbnQ58Wv9HMAa4xvtSWqEYouKJyDJcDFlsqqJMMf2ZWto0pSMVh2vlBvc07u+vit3IuhpoPldKH69uVGydrGiURqtVDUjiMBX3epovCDS2IaPTicvi9skUPAQfob5SKz9MbcO25hvmb6roI9Gc/6iVA7I/HhS5oQJry+tZf6xbfARfiDIJEzEx8fOxJnKDFJA/XOOYve+XnWfyC0idued5BJUw7JpmtBNHe94s6XT/rFJi9yxO4Lu1ygjX8Nv9Aoo950MF5NHkcAO4yU+ULc7efbqIAoGdmCDkOwvTRF6pSR9zaZmtAoKl2eAfIlWZGgZaXk6UetLw5KkyILW622ld30tWelOrclU0ThZfq+ITrZEJzVUsVaQ/V1Hic6UnallKUT9SRbKCnr86XoVJRb64WqczHqsrlwnrcGuh/Y4tSZqChUIWjJBdyqV/hWwzhfBD3eWQ6Bo3yr60inPFAWrpEw8XgyZStZ/uNA6tVUwbtFSLOH5UztTEllYzuP3clCTU1GON89x/V5QGKt4Mt4s0TdM1DxbfrcKqOoqlvkwrLKPf1KyJ9WGtjDTV56mw4AdSM0x112Z1U2Gg84B1yPgoC+54llYOhJv8pq8eUW+l//H891qBQlaGYKK7GVonilzKYvhUL3jCXyAnXRyZQmZWezommECbCuf2XMoS7pS+KEu6QJrgsbfn/WOwnCAe5t4n0zUbhJZ+z87Zs1lFgbD8MP3n/GPDv5bpGcO71oMpaeQ3ZHIbKGr4A9e2dcsmgpDvLKjOnXOXKkuxE6WqWomHqzXpmqZ/VqtQhWuEWpIHRqNkyNsiuUwRVjFiTrj7yIoKJYubVPh3IlYNXlYrV8WdYvwzFbiB+29suJ2glupZl6q4qjX7wNkd5csrMHOxmq6Sac3/7NxsoB+mOo3QSNzWwMh39UnL3AOGzZIOa56W+NhIVs/lNW2lm5rab4k8xcj0szV8TUurqLO8r3WIeZqe6VU0vnhzhG6PifxftEgGqHhjFy4YlMSymP79vakXsKjLHZhI6b7RDDcafqw+zzlFPlJL+mnYpejHhkZ6WHctt2pyj4216k/UypLJMKkdrY6RJp7LVVGnxUOW6say6s5HfMOF5UsGcSmbfON7U9LdWtUjbXZAHwYIGpnEy0TQF0N+S/aaO4cwQIB7/lr35o+1qNizQK5xnwoXcI/zdLfs2TKJN+nwr3Fs94z0Z8CugT3jX+PX4S3wydQqFCgqZBLmgm7ZRBDynYU1qoD9RY5bO1yiZbGMGn+0zGM21xkqzLlqaeshxVnr49RCVHcMxGJxE/fZ77tEVq/KkbEqgO1VeNaq6NOsTp84kkMzO8/X1WuN1BJ+sr9a5DeJdC7bV16KvtM78KDUjBj55vOC9Ihp1880AjkdCt6SMut/B8j/lpWQr48/VF68+BJZq3G6dXemb2lVor5a1pfEbhW1vhr+qXoVn7FBD9Y0WlE97HYVe00Xooy8ke5KaqXjrtyZiUg7txpdrrlx9arSh++e9LcfrHpWWdOM8NNEjvQiMUgPbgdr/YTrDM1joRgqNUgHfmKRE95ZcY5UFK3w9NGUkc8yT48ZVs/ofsA3YmiClLZnhZpN7iE+5JNZl2BVLNoYDNxZbvCsL2rmFznn+4+IU7EgThrhOTa/nTcA8MP8IYXkCJgflh6w+OGe6z64t82HZ3y3FlamuAPVqvzwn0mHOBJ30hAI7BwEId+Z+HKejGIK17UiXeRhqTJehYSpVWqV0vzcSEV99CgVczVsj1JR/jVWVVdrcfV5u6SmjylqwRfXy+Vv02e/EumoallKLfgj4opSjuVeVbQQQjfdSsXxbFZ7c2QqPCvInZ2pKdho9C1QrZwc2u5r2bvKGtc9MEQt77bLB8j9t/XQm2prVxOJy0Zy9bK7pdOiVa4or6GVkC/ji2SlWtyNNC3HqoAiCe3303Rq/CqpBd+oSTLynCL8nZebODloxdxiFWSKcycfWmlZrGmP49pOI0qprp2qeUSr+NL4NLlgXXFpPzSRvzbqNzpLnzgiz9gCxtwDfeKt5orsU2GVvMp32rWmUPxFvXgpc9DIB1wAsUA4SQV5Z/mXEig3E49ruGOPOJuAItImajR7kwITJtxyzH1z42PhML8bv0gBYdIkzkIs1jRuzfoIeSZ/THTNP6pEFibx88U8faU523CLO47NP/ODLR3cAfcsvK2BdJqfxM2vMASKIplGoRd0yyaCkO9UPKfbaDeC/fNOKjPXizz81WXS5q0BEh2oRvvzIk3/oU5U9CqvWCKntBoll/Z5VPYYtF6qfTNfno8fErlZrd5vY3n8ply5ccbN8v2wEq4Zu8qti2QCs8v02TFxRxm5sJGMGXuU9JbrCDgPQ+JP3Ne/pHJHtUJ7pq5uDgpYLWzPUiE9XsVPreGqGk9apLtFudL6VuYBqzgxLay7CnR0o/x6ZI5cEQ+RyTdWl1pqH5emi0Djt0/TVc63NbNEDv18iixqWcZ5dPq696TRByrAb49xXQhzZ1R0y7meqEnuqJo1KPc0qXqNSMMKU93I85Wzi0u5WirWGpdJUl9Kd1kr807TSgHdFZq/9S+NpUauyJ+04jD2Ta2y6HGr+rppcHMP1sqNaqOTiydU+FtqjaQ/y7IaxNBEKZOo6P22/uI6JuKwtSLkVxC8hXbyCCx+Ioi0I9D+QNMBTePco/PBWlLSW1QQRh9rFUAkLV1+iwCVGPbp4Nb8svtcMz/yI73ysyXIM8JJVZICRZ71+i5kHo2+dRvPZxNRrKSOCy0rV66UMmW0BHUTdZkvVVTRwrDpTUl59f5AqR7XkB+llMyPPpT4xctlt2Yr5JfvNJ9UI4Z2a6Yv5K7S+t63pWb3T+XPMkcuVSV8QjpIK3Vw2fxn1AJW/zC4v6RTuq5Mis+V434eJSvqV5T3Pm8szSLs0vTC9AIN9weZ3rWeRF/oq8WHULaW8j0lPlqFXI34a2veIedFN8uCuJmc/sG7rs07p9J3MjpnX6mq1nHps9fK1NeqSu3H1KxWLYpvV1t3WW1pOHuqjK9aW46Opkh8hfqlGjLpWpH746flH6iqcuz3n0h0i778YzR+S7XS8O1UOVY+kqejs2XvdetkerFKUjwuIXv3XyPT26tMaeX7H+uel1cbtZMDxs6SzvKIdDu0j6ycofHovlYm3C9ywqolcvMet0u32/u4MFbeVFzu2vUm+a/m7FIpL2Mivq9uYpwfiKxZ25av/rGR6drmSHePcCNsm1usx57JLyzvuv5uedeK3xaIj1VS0sO2e35cOIZMcUsHt7TH0AKyNe4Dfww/69ZLVqxYIaVL/zZjGEwrmqx4WYqVzm8cypZZt/JHGVPmnN80rgUhWOQ7FVpIjZ6UlM8PtZUZnevKAyzRVqKj5J73uMwrp6r2jUhut8fltE7vyZmNRsjj3XPlKWkvbWSwnFxulLx57TnSvtVAqXvQBKn601SJz1ExdNbaa7JcysrI3U90lnGz6PgkvHRyqsqM++tK1D4/EbcCOANLh0i9YR9JdG8sf5WPpf6Cn+S0t99zA+BYga3OHlNkWnyOlG65Vsa8dpTUnqkivkYN/y4zJOqg1vShU6VW1U/kDNZTnRNLVF3joPWWeloPePG+S6Ra9IlMkKNkl0F6TysZv3wdyZRvD5WLZYA8fXQneSO+UP6264dScXQs5f7zk3x6aU2p8ay4L8q9WqWdW0X03ehQ6Talj6z9VO3k49e6leAYGf9D+33lCJkiC9T4jRrEUmHVIrnvg1ulntrzY6K/agJMxNPTb+fszYqlJkbhsJm8KhDpvxPN5vqSVCRjLQzE0j6hCvYM1zMVVJ6fS1k2EHx3PAf4Z8ebw29pML9tb/f8dHDsn28J0lYQ94FA4SEI+U4H32dW66/rEJE3KLJVZdQiXSIVZN+yKhTXiAyodblrUp859iBpKW9Lw4FT5bxWQ6XXsq4yvPdxbmW0SYMay6xWdZxofyQ9RE7qKcfPHyNHtp8mK3ZH3A1fCIpLXE/vXasCWjO5mhf6X/MrTPFnibwlp8h7AyPZPxohX1dSP2nhZaK4JmtPtaguevtlie6L9fJnrsn/0GumyKRi1ZNV7NSg/bzKUfLtfX+WLw7ZReJvNC5LRL5rliNjuycj2rt16COPX5Er8VGR+zLactlLbvziQWfxn171Xc0tfYAsrDZbjrruc+mTe4mbJz99nm77i1THaH5YY1tD5MeJInX1fLE+wsfNTjxwrJsyF38fyZpGeqOEyI0RS+P586D99JNmGyDmX6dnnvy0awRKXzZCybYlQbLfJBPco2Kmv0Uvd0HBT8RSLXX3gRHdD+gpjfh4vQuLOGYScyCeZAD++mJMk73hX88Ez26N2G8PzMcIBBJ+VelLH4VesC27pDMI+U4HQ9EwySvJKV+/Ipe3H+BGTh8gX0tx+r/7xbL2a5H+wzq7pUR/klISd1HnKjoHRA9J87KjZASD2urr9rOK19uq6/F8aTHiNYlH7uYGz31GC5iDAjglKid0l/gYFfw9VMi+yu+1whLMVGCnhKdYR6nYYYWbwjUyvsYNC2t5AKuKLZMSU76XZ6PW8l3LHIlnRbJXuTUyUCsZs5rXkXLongrpZ/rAZyq4rOKGFsf91B/VpbeiVW6UOVI04AlNT/ScrFQxHqlZc4B8JfGpkcQzVfTPEunb4moVOLWe76wqxa9fKZ2j/nJZ/1hqaH2oRhPNv6oqCfocK8rx/fHPtW6Erb2S2XEHahhqtc8+r5Ls8r7ebISlykz0/PrTyDuae0l/Kg8c5IDlFW64h/i6kHTbHIwsSBd632/uIdC6uZlinJufd4nM4YMr6kfuPBkbMRKeOBBH3OAPcxd9uGbx9MMlzdxLjwtYfGyPGxP+4qmv5mk4D9FikP6+2DMFgUrQlioTgaJEpsFrBd2yiSDkOx2MjKbwe1+GR6pMTUVq/2+86vJEWXjN3hJ3j+SU5W/IADUUmZrFUqtRGTV6+eKZMmNFYn8tOFT/65CsYvZd9K2MiPaVke1FvlhYRRrz7VC12DYW0pXl8fcjeeRfKoQq9PNU0P4b/0mvEw8reLEq0wtlg0J/rdy7trP0VaFl6NTVOfc7+30onzM9t5ysKbu3M8wHqSj3PUeLZa1MtNC/pcVqiQ9TQR/cKfGFZyulRpX3U5FFDrlOUc5StBTnamC7T5yeqGnbI1ok0YOxq+BUv0cFlEDHquT3eEDWlu/rxn/VvWSstFv8pPta2iNaWWDEP5UCZ9eqBc5+gfo3cmwjiU5bLYe2/1rWV2Remom0b52Cb92aAFpeco9nLN+opZCKrcXmcRv4Y58FNcbIpFhfgJ6MfUiHeNCCwMBJg6lpNI3om1GeCXo+5Kibx+BBmJsTTsIw8beBcpCkedTq4+XxWCuFq/SkB/PZeXdsNL3lU37vkuHnYRDxwM5NEPKdDgotmjpBJabtWrWvJkj7QQPldTlDRo8RuSE6XebH3aTSFSL7vL3KLXfa6B/JDOfDhyZS4uSA9c4ZQ+iaJd+XZrJUakbX6rEW6rl+//eXcrn0ki4yVPf3SxW5VYX0HbkoxicreOn/pcBnopY/HQmIc3HpHjVyxXNuNZEHmX7OVQxEFFyFmmlznbVMZ/74HL1frmVi7xJXinqqMC/oNlit5RpqVJaKz3E5wapsx6j42oQrllBpwZhIrbRUrBOLvKTHKtgzbtb4Yco3Ygg8FqjGq1pPmRztLQP/prUY9ffKszVcteaRnzYHaF4107pSW5HD2sbyrjRPnnFjyBjib5au5QEgLnbdhMbHvt9N9YN82cqpew784xl/lDl+kWI/rM5Sr/p0qR6TMwb3zY3Flz2fhSPn8FcrJK4/3Nzy+/KSUPXjF+CaL7A8b36mg39Ur/LmUYnlHaXkwFgu/++zUvum8YmYC6vUUV3y4fktQR5CQSpCgaJAppHoBd2yiSDkOyWIARtWVXF5YmJXNXNUC2992k0/a8pXPNvf5/S4Xcsn5UQVtWWqOy1miUxQQ40ik8VRaCYfy2dBN4B/2PE0/aYX0BSsXKdA3l9mR6/LcxHibdYnIq4+X494pFuowHPfO/vzKRVVZKGeCrU00Q1Tuo9I47nvyTo1dH+N93HSMeJNFdNcFVe1lE/UdBGDq1XAmd8NOdHLzjI//BiVVX2OY2QG6ShNBYHPj2pUDhqkAV7KBeVLKihYf376/iWiWRjdFMs9L3eVSVqpaKDa0PKrIfLnYdMkUuFh9Pv9EWlV4XV+EBv6mxOB2oid5ydw5BlsjVClg988h3Cnw71UmAM1njPvkhlV+U1MeLmfHlegg4PrtoIc/mOh2ztG1YmqlB9vLywHx5nSy3vgp3OtVCijVS/qBodEMjWqKh0ffECkJs9ScGbyY3NsSx4GigLhe+SBLMcKXSvM75LoDBUavt8NGI2qlrMxGFUkO0WXSelr1LKlJVjFvoGauy1LxPLxmiYStY6lca9YTokP05tmPVFwQ6ZCHyg8feuJZ1T8x9KJPEPiixgo9zI3MrDYfZYUMf8y7im13vpE6tQcJ7ssWi1t46fkownNpPixKh8nfycHq3WOmNM3Pv6a2jL4iaSYn6C6Q8oH6p4vldVQq3mg6jDSTDUDkXeLtxyh93pPEpk2W+ZHmOSK+7iG2fZ+jVsrH6erOKvHNx75oNSXWRJVWC8jomoyN2KOdF+15JlehphZvpM/fAgmk/gQhp9/6W6s8oO7gpLf7wIux0Tasva4uptDhSNTpQqsyZu4sREnLFvSyO+Llf653BvP1kpOaz0GP2w7Zm9bOrwrlvZkP38vVuqhnUXfWX13+kZXCz05G/OMtwMsTpngHu9rIFA0CEK+U5MqQBfcK9Hr6yXaL5boF90qxzI4VvVeocLdTYvnu1X0qqrF2eF5id6c6Eact4hUIXtrQX99TxkefaH+mDhbwbslsN6s8FaznsVcVAyj6nx6LFOhnjB+YW1prBG774lbZdqfjpTpy2rI+lWlZOCQ9tK9QU95YFjHZJ14Lc8b0Ow/T6Th21Pl1D3UOm+r1+aqdX5LIk+j24sM+To5RsBJAU3tVW/TtO4ey4yLsUi9ignpdUKFiPEUaWWjrVxFY829IhPpZuAZlo1lCB1ijcBZ5cTSxnMc++e2mfWang/kGbHkuu+uIJiFDRaeYcdUrkgjVRo/DnbfRBtoEqFSwzO+X8lz3SNW23GHih+2fwzp5zYAzSpM+Kdult8lTWKtUeVqhW+gVpK0Dtj1tHu0JqY/psPvarC4p/uNn+TdtlSEAkWBdAt7W7Zt4bHHHpPKlStLiRIlpEGDBvLJJ/7Syvnz0ksvSRRFcvrpG/7Y8hCEvEhAganC02GBWmNq6+REcu/q7nJoA1XEWlqkq/BNYASYK/zUfJ2IoKUPmjL8gn9z+M2a+kwH3d7AEkQQfPIWtkdHvKiPOsP2oG9nyi/nq1ofooW6ntPXf/UTfeW7hTkS/T12H3BhpbloXCx7PBzLMBaAU8N/8O2qAw+JNK2f2G/IdbndVXR6i/SJn5Spt2itpVEsdZ+l892HuCBW5ANPAellI96kCSExQUv1zjciv4DrCLEveIb5ky46wHXFDewCwkld24A/KGxz8Kwfhh8m4qxxq0x8GbjGCHcfBBAR938jKjH5We2glnlTWiPA3JlIM5qBsMkP/30Aq7D415N0j4m0dkbfODMndP/QATdoVvsr4+Enz/rxIgzLd64HEQ/kTyZhLuhWUAYPHixXX3213HrrrTJ58mSpXbu2NG/eXJYssTFNmfnyyy/l2muvlcaNG6eubEoQ8iJFfy3j1sq+x8yXVXP2kdlRJZnatqpES2Jp2IGmTARsW6zArYE+6HQRB0Z2p6OFsIrul/OqS3SUxouWVq2DtI6elH3/MV/2eW+VnNf6GWk8Z73UevcTqX3HeInHR9LqOHWnRlybbrpXQ3nCRJU//XtDAn9ek+PmmveOLpM682lheFkmR6wjbiDcJioIGn3DhomRCRJ934bmF9+Dd5j4mpWZqenX8sD89LgTsUq7tgGzkDeHPWvpID4WZ0OvIZDEbSmDDwxzx5ZfpcHS58M1G51vWOsN33kFiwcbeULa2Xz85zWt43XXS6TjOK38LeDdMT8hPY4IN2FYOOwXS4s4fYR9IPDH8cADD0j79u3l4osvlho1aki/fv2kVKlS8swzz6RcbMqvv/4qF1xwgdx2221SpUqV1NVN2aFC3qtXL2f+d+3aNXVFZM2aNXLFFVdIuXLlJCcnR1q3bi2LF+ctlL766is5+eSTXaL23Xdfue6662Tdus1ZAYFt5y75LtIXpw5ftyoudSJVzHdE7u97uZ5joZn4pBe0v4WFo2HkIop+IQ7fS9w2kqjKUBW3e0UW6SUV5U7xi3Ks/J9Ee8TOOpdDXpZp0VKZ2rmhG1Hu9FUvj6W1W4UA27lcatozo/OjY2OpeJJWDCrbWHdf4GgmN0woTJB5F+lfNrFIrYM+Wi1ot3odo8R9YTF/0ysufjpxg18GVixiZWGmY7+LtRrY5uP7Z6Rf07i+OkTzgDEL1q0Avrv0SoN/Lz1MoLuBuel+3Hl/iLP9HeOHbaTdz3vww1AWaL4OFOl729X6ruoP25a9VZiAOPoVKouX+fOTjIgYmBkIbMo6lb5Mc8O3fkukkyVf/e3nnzcsspGHX375RSZNmiQnnLDxndxll13c+bhx41JXNuX22293mnjJJZekrmRmhwn5p59+Kk888YQcfrg/pUXkqquukjfffFNeeeUVGTNmjHzzzTdy5pkMF06gxoGIk9CPP/5YnnvuORkwYIDccsstKReB3wYKQpq6VcC+nCTXtHhcj1WsemuB6QphClpfLLDU7ThTYe5jomPk517DGECFIq0Q1/NoIB/6UCnu012atNGahgozS6kOmdpW4n9FarBfK9K1jVZCWkh8ViQ3v3WDW6zmqsV3J6G11DpCru7LiFTsH0v0bCxVb5qq7hFxLPFMQsI1iwv547uxlgp8R/R133SeyAkqLhXb6rkvfrhJTxPYNT8/rIKkIl6NvGfzoR/bmqqBeCCYPId/vl+bG+BllnAylazuPLoVztEtnUzx9snnfjWWQPX/9okvFZl09+n5nolUmtZp3g7X/RTN24H6u7E/CTEnnaSFY3vX0vOW+1tKS6Cokmk6WUE3OOCAA9za7bbdc8897no6S5cudVpXoULe1i7OFy3CUtmUsWPHytNPPy1PPWVLIOfPDhHyVatWOfOfAPfaa6/UVXELyhMRmhSOO+44qVevnjz77LNOsMePp+1M5L333pPp06fLwIEDpU6dOtKiRQu544473KAAxD3wW0Nh96YKnBaKxRqJ9NPT8fTVUiBSGFLYW+FoBeOWCkjfEqWg3Zx7XwDT0UK/Uyxjoll6/KPUi+5wH0J5ptt58sWvh0n830iGNG8pUdNYPlEbfez9Ig8OutEt+BKrhR5jOO8rUuIsFb8SIrNr1dYLCLlB+oA4WnoNjtks/vYHyCQ2LEGupQa4vZHsNuJbpv4fLsIDiDB+E6ZVavV4JovIesu5urXQia/lv+35TWghYJEWPyy/+dncGslv8lH8mv4/3y1Nm3yVzMC9PePnw1YyUzN7wd9EyloaM5Eep/yw96W6yMQfRRqRhxqnYrp/Z7F8Ej+SnEMuFR+bcAg8yz3y2F8aNxDYSKY+74Ju8PXXXzuds+2GG9Sg2AH88MMP0q5dO6ep5cuXT13Nnx0i5DSdY1X7zQZAU8LatWvzXK9WrZoceOCBG5oT2NeqVStPTYUBADRTfPEFfZmB3w0sIL52NlDksjhHDxAJml+tYLVm3YLgi3oDt8BKwfzge+YNZJdFsaze4yyJ/jVL+sulUvortdpPjqV1pGb4l2vlvc6nyXFLV7i40zMaNVEJXTZfojdiWVNf440eTksXGbMOzXI06w64ZxvxLSnN4iN0r27cGuVMaKPCo5ZoQ/qa/TTRnGxi6FdU6OvFHddsMB3zAIG8pjPA4qQsQrA4xz3CjRv8pe85mf6VP6TH4mRx+UkaR0/qfq3s5/oitMpTwvIE93QR8IwXhzz4aUxH49hDa0u8P3fiZ6YuE3uPDItXJniWqXwPqmnC76Pvzjp+xApyVPS5vBG/pcfKAJbwtXywChnx9ys1gcBvA18+87fdd2cBjk1BjHfddddNupU5r1iRP5q8/Pe//3WD3E499VQpVqyY2/7f//t/MmzYMHfMfZ/tFnKGxTMCL1OTAk0Gu+22m5QtWzZ1JcFvTmCfqbkB8mtyoB8ivW8isIMYe5dMerSGPHl/FxVIVtTyxY1m3fTCuCBUk7gC88jNYtoSFMqEN0HW99pDxqxWK7vmoTIu+p9EVT5MpqGBauq4R+vIleVU+PYQGR7fwfd55bt3D0zu0/K9gNXaDPzN+84l5P0jSyB8FdAeufKehovYHtWdVXL0umr4+mVqhfK1tTzwzJbGeNC87+clFQPyF8EG8siE0ARvnVrUtAKQd8y31n0dG+meCfPfhBn/3LJzMjai0qCVtDWphXAcNFlbBcPHBNKPbzoa9wGT1DKfrnmFkKs13Nbvwwb8sDSx9/Mo/R5hWXgMPLQZBjSzjJbTo5OTU/cNdUufVcgCgc3zey8Igw7SIv3BBx+krmgc1q9350cffXTqykYweD///HOZMmXKhq1Vq1byt7/9zR3TpO+zXUJOs0KXLl3khRdecPPifi+oNPj9EumJCmwf9aKLnEg9epAKeQmaLtMt2UxYIZw/q9YcItGescRnXKNniFZ+4BfipWLlpnZdIB8+FCUy6z73zf2Vcl7fZ1Q0OJ8sR0cvyv1H9JBY/07uP1svoleU8WNV3Hvih29lIliZRDsdS5MKjrMyGSA3WT6JqGC2cAbjLuXoyyctfhM3mKD4VqcvTj7EB+sTfxA3RJ3ncEsciDvX16pFfUHqHNTNlPx+G78Clg73bLaAWfmAZeuP1jdMIHGX3+9MnFjfltYCKhrVkyS5KWjEkTAt/fiRKR8Mu2fumGtLnhDGMVphoD/ef38251cgsCmZB7AVbCsoTD2jqZxxYDNmzJCOHTvK6tWr3Sh2uPDCCzc0zaOnNWvWzLNhEO+5557umIqBz3YJOU3nzIGrW7fuBvOfAW2PPPKIO8aypp97+fLlqScS/OYE9pmaGyBTkwOQWL9fggpFYEdBoagFZv2e0jk6XC02mi5HazlKYZxuxZpYZCqYNxWSq3d/QJ5/8yyJXkf88gMRKCl7r8OMbioDPmojNeO5cuqqJbIk7iRRLtPk1Gqs2EoGXfX3VDM3AqPCNGWl7PL9Cvcls31++CoZKOUKfBMf2+c3R97w1yqHdJGmX7t/alqUYeKaHpZhYpl+HWgGthYKRJMNoTU/2VurE+4QslK6ba4yZO7BBDj127pzjrnGuVZK3BS6LVVucLs50eQeFQ7dyqqf45nYz0x+/Lb08w5l8kOv9Uq34A3c0wVBJaOfSK7FE383F59AIHto06aN9O7d2w3kZjwYlvU777yzoQWa2VvffvutOy4oUaykjgsMHfLz59NXtxFqFzQLdO/e3VnK++yzjwwaNMhNO4P//Oc/7j594w0bNpQRI0bIKaec4hLAMHt48skn3RQ0Kgn59Tn40LSOZS5yvW5bdh8oKLxoFMgUmlr4H6JC4pb3/C1QEZ3ZVjr95T559Mzu8txr58hf5D/SRR5WS5hXlQFeajmO1zg0JA4mUEp5PV/KSPyr5Zz4OXnZWc4mhmBuqWT4QpcO6fVFzQujwCBgiTW9eZj6x6AtFSqHX3nw04CQa/xPyk0GKG4Xlq79RTq016B35G96tSZB48m4C9dcj7VPd4D1ZzNdje4FP2/9vPKvc0x++PkQ2Plg6lYvZ5zR3/xbYFqx34rJsktp68YqOOtX/iDflKn7m8a1IGyXRW5mvr/tsccebs44x2QY899oUvjwww+dBY/Q0yeAiEOzZs3c5HhG6E2dOlXeffdd6dGjhxtAtzUiHvg9QPQYaDTZifh5s1nAgAGMZuntOMqsUX87iPTZp5ssfl2Nr3aDpWGnqTJ9dY2UC9rMNdyGjPAGK/SVpYgG8RqoIs4ANCv4zRpMidaGUc52PR1E3NKFcJqgbAmewU/bsJzNiuXe5vKKsfY2sJBneQ5RSy8k8EMt+HcYCLct+K0NhIX/S1TEreKypXhuDTz/aBJ9d5zKZz5J68Kza+z9vLW8Av86x84zhUqWdT0EAttGpn7vgm7ZxA4Ztb45HnzwQWdxY5Efe+yxrrn8tdc2Dg5iJN/w4cPdHoFv27at6ytgInwgG6Cw9SwhtcQHRbVF+jfSk3NErs2vOTQ/Mg2mMorLirIVXb/3qgW7SsWZaoGvEYkemyurrt1H7zNAi40FSPwBZn6hz3U6Z9MFwkAQ8CMtXRvgOtjzm2u+9kFYsBrx3zYqP2CCZX5aGD6EkzSxbQQ/05u7OcefrY2XQZhseVvQkjjjX9IaljeeBcXCwE/8o1sGK/xEkbP0PTlXD7teLU3ieuqE92dbwuE3oysi028XCBRNtqtpPVsITeu/FxTSFL7ssexYrGS0xFecJtFQfY1YjWsTaqnYqyU2UQ9Hj5BflreU3d5Qt7n0n7rRUGmoRf2SFvJ4NTPT2uxA+Ma2is7WYOGoFT8zV+JdInmm6nlyCRUZJyRYl+wtT6w53ETG8stnS9fMT+O3TJ8P4abnNRWJggomrRD0ZVORQcyZDMh5Z9X0cpqPn4mcfngyHb/DAP2PComFmylvgOt8w96m6gV2Tn6/pvXyK6Ztd9P60jI1s6ZpPQh5YDuhkNVSuVg96bj2AXlbWkobGSz3XXerCL0nDDgbgAXNHw3CgEXOB0UpwL21zumfRbzdjENWe8PypLKQSex90dkWsdlaTFg8gaFffjzN2mYR+27A7wf28fzYIqQJ91ZJ+D1Jj2dB422/Bcd0Y9ACQPcEYywY36Bi7ix1mtlZsYoPRpj/mwsL/+C3+q0Dfzy/n5Dv9b8Z2y3k/9ur+s7RRx4IJAWvitq6AdI3Wuu+7X0fg9J635uMKB+gxzlY7lpIv1FP9yriOfWkzBoKdQp4Cm/dd1ALHWPOqbk1J2cScdwj4uwBy++3wkQFS5vwdBuP+PgfejE37NnSRdziyb1Mf/B2H/zjP0LEDY3HhhXarJVha0BsWXXOBJ3KDl0vDGzT3/gsRDzVt++66ulK8PMlv/SSL/zO9I0HAoF0gpAHdgBY1v5HSBBoLXjd51BvE1nFXq3y01mUZYyeD5AVJZjkTQFPQd9GN7XYXqK53cTdFz2EgWtsVtj7hX5JaREfnoxa/03AmiwmT8bEefOfHNxUrC2ezP/O1E2A1cozCCBuSStbfqL2W5PqM9/w4bCCVJQQbixwnuG3osLDb864BU27+5QyaWuVqqMxVsFIHx8AVPbA8sJ3HwhsO7+u21XWbcfG89lEEPLAbwAFeiYhooCncxTBZyAYC4gwF5umdFt21KzdlNW9gO4SQAAw4xAIg+PEYhwRfZYatf4b0JAvhf0kl0U0m6eELl8yiTVx9780BsSdzQZuva4bmCX7R0H4DVKtIz4W381BOpktwB7Ir9TxKY2SFhrhc3R8no6WDaskkGekGf/tWaB1g3MqOv71QGD7+HVdse3esokg5IEdzOYKewQQwTLLnXNfFO0cqxz0uBKlvxXwWP1+v5b9MSEIFPZbEpptZLy/vKuJD2FZeFsKN5MIkU6Lv6U7G9C05LSQTo8itsTbj2N+kH5riWBPKwMD3RBirZjRTM9YCff589u0PkYrTPpa6JYH5C+rwRkXqCXP6oL+tUBg+/h13S66JZb1tm3ZJZ1ByAM7GL/AtwLehBm471utvhia4NFHTlOr3cM9z1EB8PunOfetOj/sHUl6xYN4+cebgzT5Fjb5YaKHv79VnLcVjc+1In2iU/QYQba0g8XVT7Pfb22LBiHSJtRqgS9ndHpf3dNiom7m0IUC6Wknr/RaWcZS8M6w9deKlO42adEIBAJGEPLAbwxCsLmmYr8w98WcZ9Kbr+yeD8+nC8JvjR+ehZ8u6Igg+EKIgFPh4JqJeRbSkwFpiLKJdHra/N8BweZ3sv5sukesoqbCXZYK2SGq53yABzfco4Pc/Ej3W8V7OR9GIY9SlbZFv9XYh0BRJbOVXbAtmwhCHvgNKYjIIgYU3iZ89hwFPZvd21r/fm/SxRyB49wfxGVxZ5+t6UjRlK/UsYqenybEl3MTaioj/G7WKmJpPUFkNOKraVxOt8QnalhzTlO7DRbkt8Q/Px+o/FCBY3piNv/WgcKOG7S2dju2IOSBQCas4EYcEAs2u8ZmYpGtMD8+vQWBePutEaTBT1u2onF2i9IRT8t/8MXV7pGm83XDyp4hci79342SlXLdaHWe8YXfnoeU8J+CyONfpumGgUBgSwQhD2QZFPq+eBjp59mEiVB+4sx9XxSzOS0pyvLf5uLJPdKLFY2VTbP5YpGX+G74SNX36bq36WLWjG6CTl5wLfUVuuEp6z0Q+J2Ify0m67dj4/lsIgh5ILBDQKQQqHRMuAuZUC1nSuDWgJizBCv92Yj6v0Qqn6h7m06HYFtLBMdmledX6QkEfgdoGt/eLYsIQh4IbDdmce5MVqUvtJY+H0aUM69f95Wu1D1flJsv0qu7GtoPiNSnid1GvVu+cGxWOWTyNxAIFJQg5IHAduOL086Cpskt08pmI+wZyW7Q98/1L0UWzNP9o7qpqF9/l8g7V8tBn87U4/Z6zboVaIpE2P1Wi2CVB/4gMlnYBd2yiCDkgUAgM27eNxvz+hFg2xv0gSPmjDIH7qv1fVJPmR+9p9Y55wbN64j/ztRqESi0/BrpK7kdG89nEUHIA4HA5umlYl6JpnJ/MR4EneZ1tdzH8yUzsD5wQLj57CjX/Kb1QCCwowlCHggENg/N5QtYJAZRttG6HCPWh4g05LvxkN4HjluuIfrBEg9kEby627tlEUHIA4HAVkCzOKJsA9QQ7D11Y5GX/MYIMJnchN9vkg8E/mAyCXNBtywiCHkgENgCWNP2nXF/pbrNLeDCM2N0O1w3PqASCGQRmYS5oFsWEYQ8EAhsmTtr6H9Y3nzflH5wNqafZcL6yVkkhjnmLBiTXQtoBAI7E0HIA4HAlunBmulY5Axgs77wTBY5bhgEZ33jHGOdcx4IZAlY1LyW27oFizwQCBQ+EGI2LOvNWdeIt93HGr8gOQwEsolfd8CWRQQhDwQCBcAEPT+w1Pn8KZtZ8DZALhAI/BYEIQ8EAjsYPn/KB1FspPvmhD8Q+APwB61t65ZFBCEPBAKBQNEikzAXdMsigpAHAoFAIFCICUIeCAQCgaJFJgu7oFsWEYQ8EAgEAkULRp1nEuet3cKo9UAgEAgEAjuKIOSBQCAQKFpksrILumURQcgDgUAgULTIJMwF3bKIIOSBQCAQKFpkWna1oFsWEYQ8EAgEAoFCTBDyQCAQCBQt/DXTt3XLIoKQBwKBQKBogRBn6vfe2i0IeSAQCAQCgR1FEPJAIBAIFC0yWdkF3bKIIOSBQCAQKFpkEuaCbllEEPJAIBAIBAoxQcgDgUAgULTIZGEXdMsigpAHAoFAoGgRRq0HAoFAIBDIFoKQBwKBQKBokcnKLuiWRQQhDwQCgUDRItPa6QXdsogg5IFAIBAoWtDHvb1bFhGEPBAIBAKBQkwQ8kAgEAgULTL1eRd0yyKCkAcCgUCgaEHTeCZx3totNK0HAoFAIBDYUQQhDwQCgUDRIpOVXdAtiwhCHggEAoGiRabpZAXdsogg5IFAIBAIFGKCkAcCgUCgaOHPB9/WLYsIQh4IBAKBogVCnKnfe2u3IOSBQCAQCAR2FEHIA4FAIFC0yGRlF3TLIoKQBwKBQKBokWkUekG3LCIIeSAQCASKFv6gtW3dsogg5IFAIBAIFGKCkAcCgUCgaJGpz7ugWxYRhDwQCAQCRQuaxjOJ89ZuoWk9EAgEAoGix2OPPSaVK1eWEiVKSIMGDeSTTz5J3dmUp556Sho3bix77bWX20444YR83QchDwQCgUDRItMo9IJuBWTw4MFy9dVXy6233iqTJ0+W2rVrS/PmzWXJkiUpF3kZPXq0nHfeefLhhx/KuHHj5IADDpBmzZrJwoULUy42sl1Cfs8998iRRx4pe+65p+y7775y+umny3/+85/U3YQ1a9bIFVdcIeXKlZOcnBxp3bq1LF68OHU34auvvpKTTz5ZSpUq5fy57rrrZN062i8CgUAgENjB+KPPt3UrIA888IC0b99eLr74YqlRo4b069fPad4zzzyTcpGXF154QS6//HKpU6eOVKtWTfr37y/r16+XDz74IOViI9sl5GPGjHEiPX78eBk5cqSsXbvW1RhWr16dciFy1VVXyZtvvimvvPKKc//NN9/ImWeembqr+fHrr07Ef/nlF/n444/lueeekwEDBsgtt9ySchEIBAKBQPaxcuXKPNvPP/+cupMX9G3SpEmuedzYZZdd3DnW9tbw448/Oo3de++9U1c2sl1C/s4770hubq4cdthhrpkAAca6JsKwYsUKefrpp11N5LjjjpN69erJs88+6wQb8Yf33ntPpk+fLgMHDnQ1jxYtWsgdd9zh+hJIfCAQCAQCO5T0wWvbsik0d5cpU2bDRit1JpYuXeqM1goVKqSuJHC+aNGi1Nnm6d69u+y33355KgPGDu0jR7jBagwIOjUIP2CaCA488MANtRD2tWrVypNA+g2o3XzxxRepK3mh1pNeEwoEAoFAYKvIJMwF3ZSvv/7a6Z5tN9xwQ3JjB9OrVy956aWX5PXXX3cD5dLZYUJO233Xrl3lmGOOkZo1a7pr1DR22203KVu2rDs3/FoI+0y1FMivpkKtx68FUSsKBAKBQOD3pHTp0nm23XffPXUnL+XLl5ddd911k/FhnFesWDF1lpnevXs7Iaf1+vDDD09dzcsOE3L6yqdNm+ZqDb811Hr8WhC1okAgEAgEtgos6kwj0bd2S1nkWwsGLV3L/kA1G7h29NFHp65syn333ee6munGrl+/furqpuwQIe/UqZMMHz7cDZOvVKlS6qq4mgb93MuXL09dSfBrIewz1VIgv5oKtZ70mlAgEAgEAltFplHoBd0KCFPPmBvOgO4ZM2ZIx44d3cBwRrHDhRdemKdp/t5775Wbb77ZjWpn7jkt1GyrVq1KudjIdgl5HMdOxGm3HzVqlBx88MGpOwnUQIoXL56nFsL0NAbEWS2E/eeff55nLh0j4BFnhugHAoFAILBD8fu6t3UrIG3atHHN5MzIYmD3lClTnKVtXcno4rfffuuOoW/fvs4QPuuss+RPf/rThg0/0olUjOPUcYFhjtuLL74oQ4cOlb/85S+pq+L6rUuWLOmOqXW8/fbbbkQ74ty5c2d3nZHrwEg+EsVoPJoRqHG0a9dOLr30Urn77rudmy3BYDfCFLlet8x9FIFAIBDIZpi61ct1l/5WrawbtOLoFSLFtiOMdStFxpX5TeNaELbLIqfGQEKaNm2ap8bACjbGgw8+KKeccopbCObYY491zeWvvfZa6q64AQA0y7PHOm/btq1rYrj99ttTLgKBQCAQ2IFksrALumUR22WRZwvBIg8EAoHCzu9okR+hFvmu2xHGr2qR/3snscgDgUAgEAj8sQQhDwQCgUDRItMo9IJuWUQQ8kAgEAgULTL1eRd0yyKCkAcCgUAgUIgJQh4IBAKBokUmC7ugWxYRhDwQCAQCRQuEONPSq1u7BSEPBAKBQCCwowhCHggEAoGiRaZR6AXdsogg5IFAIBAoWvh93du6ZRFByAOBQCBQtMgkzAXdsogg5IFAIBAIFGKCkAcCgUCgaJFpJHpBtywiCHkgEAgEihbrdcs0gG1rN57PIoKQBwKBQCBQiAlCHggEAoGiRabBawXdsogg5IFAIBAoWmQS5oJuWUQQ8kAgEAgECjFByAOBQCBQtMg0Cr2gWxYRhDwQCAQCRYtMI9ELumURQcgDgUAgUPSIt2PLMoKQBwKBQCBQiAlCHggEAoFAISYIeSAQCAQChZgg5IFAIBAIFGKCkAcCgUAgUIgJQh4IBAKBIkamieEF3bKHIOSBQCAQCBRigpAHAoFAoIiRafH0gm7ZQxDyQCAQCBQxMjWVF3TLHoKQBwKBQCBQiAlCHggEAoEiRqam8oJu2UMQ8kAgEAgUMRDiTM3lW7sFIQ8EAoFA4A8kkzgXdMsegpAHAoFAIFCICUIeCAQCgSKG39e9rVv2EIQ8EAgEAkUMhDhTc/nWbkHIA4FAIBAI7CCCkAcCgUCgiOE3kW/rlj0EIQ8EAoFAESNTc3lBt+whCHkgEAgEAoWYIOSBQCAQKGJkaiov6JY9BCEPBAKBQBEDIc7UXL61WxDyQCAQCAQCO4gg5IFAIBAoYvhN5Nu6ZQ9ByAOBQCBQxMjUXF7QLXsIQh4IBAKBIkYmC7ugW/YQhDwQCAQCgUJMEPJAIBAIFDGwqDM1l2/tFizyQCAQCAT+QPwm8m3dsocg5IFAIBAIFGKCkAcCgUCgiJGpubygW/YQhDwQCAQCRYxMwlzQLXsIQh4IBAKBQCEmCHkgEAgEihiZBq8VdMsegpAHAoFAoIiBEGdqLt/aLQh5IBAIBAKBHUQQ8kAgEAgUMfwm8m3dsocg5IFAIBAoYmRqLi/olj0EIQ8EAoFAESOThV3QLXsIQh4IBAKBQCEmCHkgEAgEihhY1Jmay7d2CxZ5vjz22GNSuXJlKVGihDRo0EA++eST1J1AIBAIBHYUfhP5tm4Fp6Aa98orr0i1atWc+1q1asnbb7+dupOXrBHywYMHy9VXXy233nqrTJ48WWrXri3NmzeXJUuWpFwEAoFAIFA4KajGffzxx3LeeefJJZdcIv/+97/l9NNPd9u0adNSLjYSxUrq+A+F2smRRx4pffr0cefr16+XAw44QDp37izXX3+9u5YfK1eulDJlyugR7nZ31wKBQCBQmPhZt16yYsUKKV26dHJpB7NRK3roVsJd2zbW6HZngeJaUI1r06aNrF69WoYPH566ItKwYUOpU6eO9OvXL3UlISuE/JdffpFSpUrJq6++6mocxkUXXSTLly+XoUOHpq4k/Pzzz24zyMwDDzxQj67SLQh5IBAIFD4o0x90ZX4itjuejUK+vVqRxPXrr7/OI+S7776729IpqMYBmoYF37Vr19QVcdb8G2+8IVOnTk1dSYGQ/9EsXLiQykT88ccfp64kXHfddfFRRx2VOtuIJsa5D1vYwha2sO1cm4pjqqTf8fz0009xxYoVM4Zb0C0nJ2eTa2hTJgqqcVC8ePH4xRdfTJ0lPPbYY/G+++6bOttIVljk33zzjey///6uT+Doo49OXRXp1q2bjBkzRiZMmJC6kpBukVOjOeigg+Srr776zWpyhRlqoTThpNceAxsJebR5Qv5snpA/m2dr8gcp+uGHH2S//faTXXb57YZvrVmzxlnI2wvxjaIodZaQn0VeUI2D3XbbTZ577jnXT248/vjjctttt8nixYtTVxIKZdN6OrwkCPhv2bdSmAn5s2VCHm2ekD+bJ+TP5inq+fNbN61nxah1ah716tWTDz74IHUlGQjAuV97CQQCgUCgsLEtGsd13z2MHDkyo/usmX5GzeOpp55yTQkzZsyQjh07uhF7F198ccpFIBAIBAKFky1p3IUXXig33HCDO4YuXbrIO++8I/fff7/MnDlTevbsKRMnTpROnTqlXGxkV73ZM3X8h1KzZk0pW7as3HXXXdK7d2937YUXXpC//OUv7nhL7LrrrtK0aVMpVqxY6krAJ+TPlgl5tHlC/myekD+bp6jnz5Y07uGHH3Z5Y03vjCmoXr26/POf/5RevXq5fvGnn35ajjnmGHffJ2vmkQcCgUAgECg4WbVEayAQCAQCgYIRhDwQCAQCgUJMEPJAIBAIBAoxQcgDgUAgECjE7BRCXhQ/f3rPPfe4Bfj33HNP2Xfffd1Ix//85z+puwmsYHTFFVdIuXLlJCcnR1q3br3JikCshnfyySe7xQrw57rrrpN167btE33ZDKM+WYXJX1wh5I/IwoULpW3bti4PSpYs6T6VyBQXg7Gwt9xyi/zpT39y90844QSZPXt26m7C999/LxdccIFb6INRuXytadWqVam7hZdff/1Vbr75Zjn44INd2v/85z/LHXfc4fLEKEr583//939y6qmnupXX+FtiYRKfHZUXn332mTRu3NiV54zcvu+++1J3AvmimV+oeemll+LddtstfuaZZ+Ivvvgibt++fawvSKwFcsrFzknz5s3jZ599Np42bVo8ZcqUuGXLlvGBBx4Y6x9FykUcd+jQIdY/hPiDDz6ItXCOGzZsGP/1r39N3Y1jFaS4Zs2asf7Bxf/+97/jt99+Oy5fvnx8ww03pFzsHGjFLtaKXnz44YfHXbp0SV0N+aOFanzQQQfFubm58YQJE+K5c+fG7777bjxnzpyUizjWClBcpkyZWAvteOrUqXGrVq1iFTa3ZrVx0kknxbVr147Hjx8ff/TRR/EhhxwSn3feeam7hZe77ror1gpOPHz48HjevHnxK6+84tbXfvjhh1Muilb+8P7fdNNN8WuvvebWDX/99ddTdxJ2RF6sWLEirlChQqxi78q2QYMGxVopiJ944omUi0AmCr2Qs+C8WlWpszjWWnSsNcZYLdbUlaLBkiVL3B/XmDFj3Pny5cvdovsUPsaMGTOcm3Hjxrlz/jB32WWXeNGiRe4c+vbtG2ttOf75559TVwo3P/zwQ1y1atV45MiRcZMmTTYIecifOO7evXvcqFGj1NmmrF+/3n1g4p///GfqSpJvu+++uytgYfr06S7PPv30U3cOI0aMiNVicx+KKMycfPLJ8d///vfUWcKZZ57pRAaKcv6QJl/Id1RePP744/Fee+2V5++L9/Qvf/lL6iyQiULdtM76tZMmTXJNOAaL7XOuhXHqStGANYxh7733dnvyZe3atXnyplq1am79Xssb9jSlag3YnQMfumdd5C+++CJ1pXBD0zlN434+QMgfkWHDhkn9+vXl7LPPdt0GRxxxhFt5ylArVLQSkyePWC+b7is/j2gixR8D9/wdZvoQRGHir3/9q1sic9asWe6c9a3Hjh0rLVq0cOdFPX98dlRe4ObYY491S5oa/M3Rbfi///0vdSWQTqEW8qVLl7p+LL+gBc55qYoKrNlL3y8r/rB6EJB+/hj4w/Hx84Z9pryDnSH/XnrpJZk8ebIbT5BOyB+RuXPnSt++faVq1ary7rvvuiUjr7zySreEJFgaM+WBn0dUAnxYnYoKZWHPo+uvv17OPfdcV8ErXry4q+jwd0YfLxT1/PHZUXnBPpMfYG4CmxJGre8EYHVOmzbNCVcggc8lslYxSyAyaCawKVQA69atK3fffbcTqcsuu0zat28v/fr1S7ko2rz88svu/XnxxRddhZAKDktrWkUnEMgWCrWQly9f3q3fmz7SmPOKFSumznZuWEB/+PDh8uGHH0qlSpVSV8Wln66H5cuXp64k+HnDPlPeQWHPP5rOlyxZ4oSKWj8b3/195JFH3DG1/KKcP8Do4ho1aqTOEljbmZH6YGnMlAd+HpHPPozqZ3RyYc8jZiiYVU4XS7t27eSqq67a0MJT1PPHZ0flBftMfoC5CWxKoRbybfk03M5CHMdOxF9//XUZNWqUmyLjQ77QHOjnDf1MFNKWN+w///zzPH9cfCaPqSHpBXxh4/jjj3dpmzJlyoaNvjmaRe24KOcP0BWTPmWR/uCDDjrIHfNOUXj6ecT4APoz/TyiMkTFyeB95O+Q/tHCzI8//uj6b30wHEgbFPX88dlReYEbprkxfsXgb44Pi+y1116pK4FNSMa8FV6YfsbIyAEDBrhRkZdddpmbfrbIG2m8M9KxY0c31WP06NHxt99+u2HTwiflIplexZQ0/WNx06v0j8Rthk2vatasmZvC9s4778T77LPPTjf9zPBHrUNRzx+m5RUrVsxNs5o9e3b8wgsvxKVKlYoHDhyYcpFMKeLvaejQofFnn30Wn3baaRmnFB1xxBFuCtvYsWPdLIGdYfrZRRddFO+///4bpp8x7Yrph926dUu5KFr5wwwQpmGyIR0PPPCAO54/f767vyPyQoXeTT9r166dm35G+c47GaafbZ5CL+Tw6KOPugKZ+eRMR2OO4s4Of0iZNuaWG/wBXX755W46B38MZ5xxhhN7ny+//DJu0aKFm6tJIXXNNdfEWhtO3d25SBfykD9x/Oabb7rKCpXhatWqxU8++WTqToJaS/HNN9/sClfcHH/88bFa8am7CcuWLXOFMXOsmZp38cUXu0K/sKMWpXtfKFtKlCgRV6lSxc2j9qdGFaX8+fDDDzOWOVR4YEflBXPQmRaJH1SkqCAENk/4jGkgEAgEAoWYMGo9EAgEAoFCTBDyQCAQCAQKMUHIA4FAIBAoxAQhDwQCgUCg0CLy/wHquRWluNsHYQAAAABJRU5ErkJggg==;" vertex="1">
          <mxGeometry as="geometry" x="42" y="190" width="195.77" height="160" />
        </mxCell>
        <mxCell id="_H1u6RRBhLndzVg0ieA8-3" value="" parent="1" style="shape=flexArrow;endArrow=classic;html=1;" edge="1">
          <mxGeometry as="geometry" width="50" height="50" relative="1">
            <mxPoint as="sourcePoint" x="237.77" y="269.5" />
            <mxPoint as="targetPoint" x="277.77" y="269.5" />
          </mxGeometry>
        </mxCell>
        <mxCell id="_H1u6RRBhLndzVg0ieA8-4" value="Feature Vector" parent="1" style="rounded=1;whiteSpace=wrap;html=1;" vertex="1">
          <mxGeometry as="geometry" x="280" y="250" width="120" height="40" />
        </mxCell>
        <mxCell id="_H1u6RRBhLndzVg0ieA8-5" value="" parent="1" style="shape=flexArrow;endArrow=classic;html=1;" edge="1">
          <mxGeometry as="geometry" width="50" height="50" relative="1">
            <mxPoint as="sourcePoint" x="400" y="269.5" />
            <mxPoint as="targetPoint" x="440" y="269.5" />
          </mxGeometry>
        </mxCell>
        <mxCell id="_H1u6RRBhLndzVg0ieA8-6" value="Random Forest Classifier" parent="1" style="rounded=1;whiteSpace=wrap;html=1;" vertex="1">
          <mxGeometry as="geometry" x="440" y="250" width="120" height="40" />
        </mxCell>
        <mxCell id="_H1u6RRBhLndzVg0ieA8-7" value="" parent="1" style="shape=flexArrow;endArrow=classic;html=1;" edge="1">
          <mxGeometry as="geometry" width="50" height="50" relative="1">
            <mxPoint as="sourcePoint" x="560" y="269.5" />
            <mxPoint as="targetPoint" x="600" y="269.5" />
          </mxGeometry>
        </mxCell>
        <mxCell id="_H1u6RRBhLndzVg0ieA8-8" value="" parent="1" style="ellipse;whiteSpace=wrap;html=1;aspect=fixed;" vertex="1">
          <mxGeometry as="geometry" x="616" y="297" width="10" height="10" />
        </mxCell>
        <mxCell id="_H1u6RRBhLndzVg0ieA8-9" value="" parent="1" style="ellipse;whiteSpace=wrap;html=1;aspect=fixed;" vertex="1">
          <mxGeometry as="geometry" x="655" y="288" width="10" height="10" />
        </mxCell>
        <mxCell id="_H1u6RRBhLndzVg0ieA8-10" value="" parent="1" style="ellipse;whiteSpace=wrap;html=1;aspect=fixed;" vertex="1">
          <mxGeometry as="geometry" x="696" y="278" width="10" height="10" />
        </mxCell>
        <mxCell id="_H1u6RRBhLndzVg0ieA8-11" value="" parent="1" style="ellipse;whiteSpace=wrap;html=1;aspect=fixed;" vertex="1">
          <mxGeometry as="geometry" x="656" y="307" width="10" height="10" />
        </mxCell>
        <mxCell id="_H1u6RRBhLndzVg0ieA8-12" value="" parent="1" style="ellipse;whiteSpace=wrap;html=1;aspect=fixed;" vertex="1">
          <mxGeometry as="geometry" x="697" y="317" width="10" height="10" />
        </mxCell>
        <mxCell id="_H1u6RRBhLndzVg0ieA8-14" value="" parent="1" style="ellipse;whiteSpace=wrap;html=1;aspect=fixed;" vertex="1">
          <mxGeometry as="geometry" x="736" y="267" width="10" height="10" />
        </mxCell>
        <mxCell id="_H1u6RRBhLndzVg0ieA8-15" value="" parent="1" style="ellipse;whiteSpace=wrap;html=1;aspect=fixed;" vertex="1">
          <mxGeometry as="geometry" x="736" y="287" width="10" height="10" />
        </mxCell>
        <mxCell id="_H1u6RRBhLndzVg0ieA8-16" value="" parent="1" style="endArrow=none;html=1;exitX=1;exitY=0.5;exitDx=0;exitDy=0;entryX=0;entryY=0.5;entryDx=0;entryDy=0;" edge="1" source="_H1u6RRBhLndzVg0ieA8-8" target="_H1u6RRBhLndzVg0ieA8-9">
          <mxGeometry as="geometry" width="50" height="50" relative="1">
            <mxPoint as="sourcePoint" x="651" y="252" />
            <mxPoint as="targetPoint" x="701" y="202" />
          </mxGeometry>
        </mxCell>
        <mxCell id="_H1u6RRBhLndzVg0ieA8-17" value="" parent="1" style="endArrow=none;html=1;exitX=1;exitY=0.5;exitDx=0;exitDy=0;entryX=0;entryY=0.5;entryDx=0;entryDy=0;" edge="1" source="_H1u6RRBhLndzVg0ieA8-9" target="_H1u6RRBhLndzVg0ieA8-10">
          <mxGeometry as="geometry" width="50" height="50" relative="1">
            <mxPoint as="sourcePoint" x="681" y="284" />
            <mxPoint as="targetPoint" x="671" y="262" />
          </mxGeometry>
        </mxCell>
        <mxCell id="_H1u6RRBhLndzVg0ieA8-19" value="" parent="1" style="endArrow=none;html=1;exitX=1;exitY=0.5;exitDx=0;exitDy=0;entryX=0;entryY=0.5;entryDx=0;entryDy=0;" edge="1">
          <mxGeometry as="geometry" width="50" height="50" relative="1">
            <mxPoint as="sourcePoint" x="707" y="282" />
            <mxPoint as="targetPoint" x="736" y="273" />
          </mxGeometry>
        </mxCell>
        <mxCell id="_H1u6RRBhLndzVg0ieA8-20" value="" parent="1" style="endArrow=none;html=1;exitX=1;exitY=0.5;exitDx=0;exitDy=0;entryX=0;entryY=0.5;entryDx=0;entryDy=0;" edge="1" source="_H1u6RRBhLndzVg0ieA8-8" target="_H1u6RRBhLndzVg0ieA8-11">
          <mxGeometry as="geometry" width="50" height="50" relative="1">
            <mxPoint as="sourcePoint" x="651" y="252" />
            <mxPoint as="targetPoint" x="641" y="312" />
          </mxGeometry>
        </mxCell>
        <mxCell id="_H1u6RRBhLndzVg0ieA8-21" value="" parent="1" style="endArrow=none;html=1;exitX=1;exitY=0.5;exitDx=0;exitDy=0;entryX=0;entryY=0.5;entryDx=0;entryDy=0;" edge="1">
          <mxGeometry as="geometry" width="50" height="50" relative="1">
            <mxPoint as="sourcePoint" x="668" y="313" />
            <mxPoint as="targetPoint" x="698" y="323" />
          </mxGeometry>
        </mxCell>
        <mxCell id="_H1u6RRBhLndzVg0ieA8-22" value="" parent="1" style="endArrow=none;html=1;exitX=1;exitY=0.5;exitDx=0;exitDy=0;entryX=0;entryY=0.5;entryDx=0;entryDy=0;" edge="1">
          <mxGeometry as="geometry" width="50" height="50" relative="1">
            <mxPoint as="sourcePoint" x="707" y="283" />
            <mxPoint as="targetPoint" x="737" y="293" />
          </mxGeometry>
        </mxCell>
        <mxCell id="_H1u6RRBhLndzVg0ieA8-23" value="" parent="1" style="endArrow=classic;html=1;" edge="1">
          <mxGeometry as="geometry" width="50" height="50" relative="1">
            <mxPoint as="sourcePoint" x="760" y="278" />
            <mxPoint as="targetPoint" x="800" y="318" />
          </mxGeometry>
        </mxCell>
        <mxCell id="_H1u6RRBhLndzVg0ieA8-24" value="" parent="1" style="endArrow=classic;html=1;" edge="1">
          <mxGeometry as="geometry" width="50" height="50" relative="1">
            <mxPoint as="sourcePoint" x="760" y="278" />
            <mxPoint as="targetPoint" x="800" y="240" />
          </mxGeometry>
        </mxCell>
        <mxCell id="_H1u6RRBhLndzVg0ieA8-25" value="Normal" parent="1" style="text;html=1;align=center;verticalAlign=middle;resizable=0;points=[];autosize=1;" vertex="1">
          <mxGeometry as="geometry" x="795" y="230" width="50" height="20" />
        </mxCell>
        <mxCell id="_H1u6RRBhLndzVg0ieA8-26" value="Tumor" parent="1" style="text;html=1;strokeColor=none;fillColor=none;align=center;verticalAlign=middle;whiteSpace=wrap;rounded=0;" vertex="1">
          <mxGeometry as="geometry" x="800" y="307" width="40" height="20" />
        </mxCell>
      </root>
    </mxGraphModel>
  </diagram>
</mxfile>
